<?xml version="1.0" encoding="utf-8"?>
<!-- Generator: Adobe Illustrator 24.1.2, SVG Export Plug-In . SVG Version: 6.00 Build 0)  -->
<svg version="1.1" id="Laag_1" xmlns="http://www.w3.org/2000/svg" xmlns:xlink="http://www.w3.org/1999/xlink" x="0px" y="0px"
	 viewBox="0 0 762.3 100.2" style="enable-background:new 0 0 762.3 100.2;" xml:space="preserve">
<style type="text/css">
	.st0{clip-path:url(#SVGID_2_);fill:#3B3561;}
	.st1{fill:#FFFFFF;}
</style>
<g>
	<defs>
		<rect id="SVGID_1_" x="-28.5" y="-8.6" width="823.4" height="109.9"/>
	</defs>
	<clipPath id="SVGID_2_">
		<use xlink:href="#SVGID_1_"  style="overflow:visible;"/>
	</clipPath>
	<path class="st0" d="M156.7,14.1c68.7-6.4,152.6,1.9,222-3.9c83.2-7.8,173.4-7.8,256.6-7.8c0,3.9-6.9,9.7,0,11.6
		C663,19.9,663,27.7,663,35.5c0,3.9-20.8,0-13.9,3.9c-20.8,0-55.5,1.9-34.7,5.8c6.9,3.9,34.7,0,41.6,5.8c6.9,5.8-6.9,11.6,0,17.5
		h27.8c6.9,3.9-6.9,11.6,0,11.6c20.8,3.9,48.6,1.9,76.3,1.9c0,3.9,7,7.8-6.9,9.7C510.4,95.6,260.7,103.4,18,97.5
		C-9.8,95.6,11,87.8,31.8,82c-6.9,1.9-6.9-3.9-13.9-1.9c0-5.8,13.9-15.5,41.6-17.5H38.8c-6.9-1.9,0-5.8,0-9.7c6.9,0,13.9,0,13.9-1.9
		v-7.8H24.9c6.9,0,13.9,0,13.9-1.9v-7.8c13.9-1.9,34.7,1.9,48.6,0v-5.8c-13.9-1.9-34.7,0-48.6,0c6.9-1.9,6.9-3.9,6.9-7.8
		c20.8-1.9,41.6,3.9,62.4-1.9H87.3C101.2,8.3,135.9,16.1,156.7,14.1"/>
</g>
<g>
	<path class="st1" d="M185.7,71.2c-0.4-0.8-0.9-1.6-1.2-2.5c-0.1-0.5-0.3-1.2-0.4-1.6c-0.3-1.1-1.1-1.8-1.3-3
		c-0.4-1.5-1.3-4.3-1.6-4.8c-0.7-1.2-0.7-2.6-1.5-3.8c-0.2,0.4-0.6,0.8-0.7,1.2c0.1,1.1,0.7,2.2,1.4,3.2c0.8,1.1,1.2,2.4,1.5,3.7
		c0.5,1.9,2,3.6,2,5.7c0,0.8-0.8,2-1,2.2c-0.5-0.1-1.1-0.1-1.6-0.2c-0.4-0.3-0.7-0.6-1.1-1c-0.2-0.5-0.3-1.2-0.6-1.7
		c-0.4-1-0.5-2.1-1-3.1c-0.6-1.1-1-2.4-1.5-3.6c-1.8,0-3.6-0.7-5.3-0.7c-0.3,0-5,0.8-5.9,1.4l-0.4,1.7c-0.2,0.7-0.5,1.4-0.6,2.2
		c-0.1,1.2-0.2,2.4-0.5,3.5c-0.3,0.8-1,1.3-1.8,1.6c-0.6-0.1-1.1-0.4-1.8-0.6c-0.8,0.2-1.5,0.7-2.3,0.7c-0.9-0.3-2.2-0.9-2.2-1.7
		c0-0.5,0.2-1.1,0.4-1.6c0.6-1.4,1.3-2.8,1.7-4.2c0.2-0.8,0-1.5,0.4-2.1c0.9-1.4,1.3-3.1,1.9-4.6c0.6-2.7,1.8-3.4,2.6-7.3
		c0.2-1.2,0.8-2.3,1.2-3.4c0.7-2.1,1.2-4.1,1.7-6.2c0.5-0.8,1-1.5,1.5-2.4c0.3-0.8,0.7-1.8,1.3-2.5c1.1,0,1.5,0.2,2.1,0.2
		c0.6,0,1.2-0.2,1.8-0.2c1.9,0.3,2,2.3,2.7,3.7c0.3,0.6,0.7,1.3,1.1,1.9c1,1.6,1.3,3.3,2.1,5c0.4,0.9,0.6,1.8,1,2.8
		c0.4,0.8,0.6,1.5,0.9,2.4c0.3,1.3,1.2,2.3,1.6,3.6c0.4,1.2,0.6,2.4,1.1,3.6c0.4,1.1,0.6,2.4,1.2,3.5c0.4,0.7,0.5,1.5,1,2.2
		c0.5,0.8,0.9,1.6,1.4,2.4c0.5,0.9,1.1,1.8,1.4,2.8c-0.4,0.4-0.8,1-1.4,1.1L185.7,71.2z M163.6,59.4l-1.5,2.9
		c-0.6,1-0.7,2.3-0.8,3.5c0.4-0.3,0.9-0.6,1.1-1.2C162.9,62.8,163.5,60.9,163.6,59.4z M164.6,56.8c0-0.1,0-0.2-0.2-0.2
		c-0.1,0-0.2,0.1-0.2,0.3c0,0.1,0,0.2,0.2,0.2C164.5,57.1,164.6,57,164.6,56.8z M165.8,54.4c0.7-0.9,1.1-2.5,1.2-3.9
		c-0.9,1-1.4,1.7-1.7,2.7c-0.2,0.7-0.4,1.6-0.6,2.8L165.8,54.4z M175.1,55.7c-0.4-1.5-1.2-2.9-1.6-4.4c-0.6-1.4-1-2.8-1.6-4.1
		c-0.4,0.9-0.7,1.9-1.3,2.8c-0.7,0.9-0.7,2.2-1.2,3.2c-0.6,1-0.8,2.1-1.1,3.2c0.8,0.2,1.8,0.2,3.5,0.2c1,0,1.6,0.2,1.9,0.2
		C174.1,56.8,174.7,55.9,175.1,55.7z M175.7,50.3c0.2-0.2,0.2-0.5,0.2-0.8c-0.1-0.2-0.4-0.5-0.7-0.7L175.7,50.3z M176.6,52.6
		c0.2,0.7,0.6,1.4,1,1.9c0-0.6-0.2-1.4-0.5-2.2c-0.2-0.7-0.6-1.5-1-2C176.1,51.1,176.3,51.9,176.6,52.6z"/>
	<path class="st1" d="M197.1,48.5c0,0.7,0,3.1,0.1,3.6c0.6-0.8,0.9-1.8,1.9-2.3c0.6-0.3,1.5-1.1,2.2-1.2c0.5-0.1,1.2-0.5,3.1-0.5
		c3.7,0,5.8,4.6,5.8,7.3c0,2.5-0.2,4.6-0.2,5.8c0,1.9,0.1,2.7,0.1,4.7c0,1.2,0.3,2.9,0.3,4.1c0,1.1-1.4,1.9-2.4,1.9
		c-0.8,0-1.4-0.1-2-0.3c-0.6-0.2-0.8,0-1.4-0.3c-0.7-0.3-1.1-1.6-1.1-2.4c0-0.9,0.2-1.8,0.2-2.8c0.2-2,0.2-3.4,0.2-5.4
		c0-3.3,0-6.7-2.6-6.7c-1.2,0-3.5,2.8-4,4.3c0.1,0.6,0.1,1,0.1,1.6c0,0.7-0.1,2-0.1,2.7c0,1.1,0.3,2.9,0.3,3.8
		c0,1.9,0.1,3.1,0.3,3.7c-0.7,1.9-1.9,2-3.7,2c-1.4,0-3.8-0.5-3.8-1.7c0-0.8,0.3-2.1,0.3-3c0-0.5,0-1.1,0-1.7c0-1,0.2-1.7,0.2-2.7
		c0-0.9-0.2-1.7-0.2-2.6c0-0.7,0.1-1.2,0.1-1.9c0-0.8-0.1-1.6-0.1-2.3c0-0.8,0.2-1.6,0.2-2.5c0-0.5,0-1.1,0-1.6c0-0.9,0-1.5,0-3.5
		c0-0.3,1.7-1,2.8-1C195.2,47.8,197.1,48.1,197.1,48.5z M194.2,63c0-1.4-0.2-3-0.2-4.3c0-1.8,0-5.2-0.4-5.8
		c-0.2,2.2-0.3,5.1-0.3,7.3c0,1.2,0.1,2.3,0.1,4.3c0,0.7,0,1.6,0.3,2.4C194,65.4,194.2,64.3,194.2,63z M206.7,57.3
		c0-0.9-0.1-1.7-0.3-2.6c-0.2-0.9-0.3-1.7-0.7-2.6c-0.3-0.4-1-1.1-1.9-1.1c-0.2,0-0.5,0-0.7,0c0.6,0.4,1.7,1,2.2,2
		c0.5,1.1,0.9,2.8,1,4c0,0.5,0.1,1.1,0.3,1.6C206.7,58.3,206.7,57.8,206.7,57.3z"/>
	<path class="st1" d="M225.4,71.8c-2.3-0.6-5.2,0-5.9-4c-0.2-1.2-0.8-2.3-0.8-3.6c0-1-0.1-2.2-0.1-3.3c0-2.1,0.2-4.6,0.3-6.7
		c-1.8-0.3-3.5,0.1-4.7-1.1c-0.4-0.8-0.4-1.7-0.6-2.6c-0.1-0.3-0.2-0.6-0.2-0.9c0-1,0.8-1.3,1.5-1.3h0.9c1.2,0,2.3-0.2,3.5-0.2
		c0.1-0.8,0.2-2.9,0.2-4.1c0-0.5,0-0.9,0-1.4c0-0.5,0-1.1,0-1.5c0-0.6-0.1-1.2-0.1-1.7c0-0.6,0.2-1.2,0.4-1.9
		c0.1-0.6,0.2-1.3,0.4-1.9c0.5-0.8,2.6-1.2,4-1.2c1,0,2.4,0.8,2.4,2c0,1.3-0.9,2.3-0.9,3.7v1.8c-0.1,0.7-0.2,3.6-0.2,4.4
		c0,0.8,0.1,1.3,0.2,2.1c0.8,0,1.7,0,2.5,0c0.9,0,1.7-0.6,2.6-0.6c0.7,0.1,1.4,0.5,2,0.8c0.7,0.4,1.3,1.1,1.3,1.9
		c-0.2,2-0.3,3.8-2.2,3.8h-4.8c-0.8,0-1.6,0-2,0.7c-0.2,0.9-0.3,3.2-0.3,3.7c0,1,0.4,1.9,0.4,2.9c0,0.6-0.1,1.3-0.1,1.9
		c0,1.4,0.2,2.3,0.8,2.7c1.2,0.5,3.6,0.3,5.7,0.7c0.7,0.5,1,1.3,1,2c0,3.2-3.3,2-5.3,2.7c-0.4,0.1-0.9,0.4-1.4,0.4
		C225.7,71.9,225.5,71.9,225.4,71.8z M224.4,68.8c-0.6-0.6-1.4-1.1-1.7-1.9c-0.4-1.2-0.5-3.2-0.7-4.1c0-0.7,0.4-1.6,0.4-2.4
		c0-0.7-0.2-1.5-0.2-2.2c0-1.2,0.1-2.8,0.1-4.1l-0.7,0c-0.3,2-0.5,4.3-0.5,6.3c0,1.3,0,2.5,0.3,3.7c0.2,1.4,0.4,3.6,1.4,4
		C223.4,68.6,223.9,68.7,224.4,68.8z M221.9,44.4v2.8c0,0.8,0,1.1,0,1.5c1.1-0.7,0.8-1.2,0.9-2c0-2.9,0.5-5.8,0.5-7.9
		c0-0.3-0.1-0.6-0.2-1c-0.6,1.5-0.9,3.1-1.1,4.7C221.9,43,221.9,43.6,221.9,44.4z M229.4,52c0.4,0,0.8-0.1,1.1-0.3
		c-1-0.2-2-0.2-3.1-0.2c-0.7,0-1.5,0-2.2,0.1c0.6,0.4,1.5,0.4,2.5,0.4H229.4z"/>
	<path class="st1" d="M238,71c-0.5,0-0.7-2.4-0.7-2.9c0-1.5,0.3-3.1,0.3-4.6c0-0.5,0-1-0.1-1.5c0-0.8,0.2-1.5,0.2-2.2
		s-0.1-1.5-0.1-2.3c0-0.4,0-0.7,0-1.1c0-0.9-0.1-1.7-0.1-2.5c0-1.1,0.2-2.2,0.2-3.3c0-0.5,0-1,0.1-1.4c0.3-0.5,0.9-0.5,1.4-0.6
		c0.9,0,1.5-0.5,2.4-0.5c1.4,0,1.3,0.4,1.7,0.7c1.1,0.8,1.1,1.3,1.1,1.9c0,0.6-0.2,1.3-0.2,1.8c-0.3,2.1-0.8,4.2-0.8,6.4
		c0,1.4,0,2.7,0.1,4.1c0.2,1.6,0,3.2,0.3,4.9c0.1,0.7,0.4,1.1,0.4,2.3c0,1.1-2.5,1.7-3.5,1.7C240.3,71.9,238.5,71.7,238,71z
		 M237.7,43.2c0-0.5,0-3,0.6-4c0.2-0.3,0.6-0.8,1-0.8c0.8-0.1,1.8-0.2,2.6-0.2c0.7,0,1.5,0.1,2.2,0.6c0.5,0.4,0.6,1.3,0.6,2.1v1.5
		c0,1.6-0.8,2.9-2.2,2.9c-0.5,0-1-0.1-1.4-0.1C239.7,45,237.7,45,237.7,43.2z M240.2,53.2c0-0.7,0-1.4-0.1-2c0,0,0,0.1,0,0.1
		c-0.3,0.8-0.6,1.6-0.6,2.3c0,0.6,0.1,1.3,0.1,1.9c0,1,0,1.9-0.1,2.9l0.9,0.7c0-1.4-0.1-2.7-0.1-4.1c0-0.4,0-0.9,0-1.4V53.2z"/>
	<path class="st1" d="M256,59.7c-0.6,0-1.1,0.2-1.4,0.2c-0.7,0-1.8-0.2-2.2-0.2c-0.6,0-0.9-0.4-1.4-0.4c-0.6,0-0.9-1.4-0.9-2.8
		c0-0.8,0.4-1.6,0.9-2.1c0.6-0.1,0.8-0.2,1.4-0.2c0.6,0,1.2,0,1.8,0c0.3,0,1.3-0.2,1.7-0.2c0.3,0,0.6,0,1.4,0c0.5,0,0.7,0,1.9-0.1
		c1.1,0,2.8,0.1,3.5,0.1c1,0,1.3,0.2,1.7,0.8c0,0.6,0.2,0.9,0.2,1.2c0,0.4,0.1,1,0.1,1.4c0,0.8-1,1.7-1.8,2c-0.4,0-1.3,0-1.7,0
		c-0.6,0-0.8,0.2-1.3,0.2c-0.3-0.1-0.8-0.1-1.1-0.1C257.4,59.5,257.5,59.6,256,59.7z"/>
	<path class="st1" d="M288.8,49.8c0,1.1-0.9,2.6-1.5,4c-0.3,0.5-0.3,1.3-0.5,1.8c-0.5,1.4-1.1,2.8-1.7,4c-0.6,1.2-0.8,2.5-1.5,3.6
		c-0.3,0.9-1,1.7-1,2.7c0,1.5-0.6,3.1-1.1,4.3c-0.4,1-1.3,1.7-1.9,1.7c-0.6,0-1.7,0-2.5-0.2c-0.4-0.3-0.7-0.8-1.1-1.2
		c-0.6-0.5-1.3-1.2-1.4-1.9c-1.5-3.1-1.9-6.3-3.2-9.3c-0.4-0.9-0.5-1.9-0.9-2.9c-0.5-1-0.6-2.2-1.2-3.2c-0.7-1.3-1.1-3-1.1-3.8
		c0-1.1,0.9-1.3,1.7-1.3c0.7,0,1.4,0.2,2.1,0.2c0.4,0,0.8,0,1.3,0c1.1,0,1.4,0.9,1.6,2.8c0.3,1.1,0.3,2.2,0.5,2.9
		c0.3,1.5,0.7,2.8,1.3,4.3c0.3,1.1,1.1,1.9,1.5,3c0.1,0.3,0.2,0.7,0.5,1c1.2-1.4,1.5-2.8,1.8-3.8c0.4-1.2,0.8-2.5,1.3-3.7
		c0.5-1.3,1.6-3.5,1.6-4.6c0-0.3,0-0.6,0-0.9c0-0.8,0.6-1.3,1.3-1.3s2.8,0.2,3.4,0.3C288.7,48.6,288.8,49.4,288.8,49.8z M275.3,62.6
		c0-0.4-1-3.8-1.8-4.7c-0.3-0.6-0.7-1.8-0.7-2.4c-0.7-1.7-1.2-4.4-1.6-4.4h-0.4c0,0.5,0.1,1.4,0.3,2.2c0.9,2.4,1.8,5.5,2.7,7.9
		c0.3,0.8,0.7,1.9,1.2,2.4C275.1,63.3,275.3,63,275.3,62.6z"/>
	<path class="st1" d="M299,71.9c-1.3,0-1.8-0.3-2.5-0.4c-1.4-0.2-2.4-1.2-3.4-1.8c-1.7-1-2.2-2.7-2.3-5.7c-0.1-1.3-0.1-2.4-0.1-3.6
		c0-0.9,0.2-1.7,0.2-2.6c0-2.6,0.4-4.8,0.6-5.7c0.4-1.5,1.6-2.8,1.9-2.9c0.6-0.2,1-0.7,1.7-1c1.2-0.5,4-0.6,5.4-0.6
		c1,0,3.1,0.4,4.3,1c2,0.9,2.8,2.6,2.8,4.7c0,0.8-0.2,2-0.2,2.8c-0.1,1.5-0.2,3-1.5,4c-0.6,0-1.5,0.7-3.6,0.7
		c-1.7,0-3.6-0.1-5.3-0.1c0,0.9,0,2.1,0.3,3.1c0.5,1.6,2.6,2.3,4.7,2.3c1.4-0.3,1.8-1.1,3.1-1.1c0.4,0,0.7,0.5,1.2,0.5
		c0.6,0,0.7,0.9,0.7,1.2c0,0.3,0.2,0.8,0.2,1.2c0,1.9-3.8,3.9-5.5,3.9C301.1,71.8,300.1,71.9,299,71.9z M294,62.8
		c0-0.7-0.1-2.7-0.1-3.5c0-1.3,0.6-3.4,0.7-4.6c0-0.7,0.3-1.8,0.5-2.2c0.2-0.3,0.5-0.6,0.6-0.9c0-0.2,0-0.5,0-0.8
		c-0.6,0.5-1,1.5-1.3,2.2c-0.6,0.6-1.1,3.3-1.1,4.3c0,1.7-0.1,3.3-0.1,4c0,1.1,0,2.6,0.3,3.7L294,62.8z M303,55.9
		c0-0.3,0.2-1.2,0.2-1.9c0-0.3-0.3-1.3-0.8-1.5c-0.2-0.6-1.2-0.8-1.9-0.8c-1.5,0-2,0.7-2.6,1.1c-0.8,1.2-0.7,2.7-0.7,3.9
		c0.8,0.2,2.4,0.2,3.2,0.2C302.3,56.9,303,56.6,303,55.9z M298.1,68.5c0.5,0.1,1.3,0.6,1.8,0.6c1.1,0,2.6-0.6,3-1
		c-1.2,0.3-2.2,0.5-2.8,0.5c-1,0-2-0.4-2.3-0.5L298.1,68.5z"/>
	<path class="st1" d="M314.3,71.8c-1.1-0.5-2.6-0.5-2.6-2c0-0.4,0.1-0.7,0.2-1.1c0.2-2.5,0.3-4.8,0.3-7.3v-1.3
		c0-1.2,0.3-2.3,0.3-3.4c0-1.1-0.1-2.1-0.1-3.2c0-2.9,0-3.8,0.4-5.7c0.9,0,1.6,0.3,2.4,0.3c0.7,0,1.4-0.2,2-0.2
		c1.2,0,1.7,0.7,1.7,1.6c0,1.3-0.7,2.4-0.7,3.7c1-0.6,1.8-1.3,2.5-2.1c1.7-1.9,3.6-2.6,5.2-3.3c0.4-0.2,1.4-0.3,1.8-0.3
		c0.9,0,1.1,0.6,1.4,1.1c0.3,0.6,0.4,1.2,0.4,1.8c0,1.1-0.5,2.5-1.4,2.8c-1.2,0.3-2.4,0.3-3.5,0.7c-0.8,0.2-1.5,0.9-2,1.5
		c-0.9,0.7-1.7,2-2.3,3c-0.8,1.4-2.3,3.3-2.3,4.6c0,0.6,0.2,1.3,0.2,2.1c0.1,1.8,1.1,4.5,1.1,5.6c0,1.1-2.9,1.6-3.4,1.6
		C315.5,72.2,314.9,71.9,314.3,71.8z M315.6,67.5c0-0.9-0.6-1.7-0.6-2.7c0-0.6,0-1.3,0-3.4c0-0.8,0.1-1.5,0.1-2.3
		c0-0.5,0-1.2-0.4-1.4c-0.2,0.4-0.5,0.8-0.6,1.3c0,0.7,0.1,1.4,0.1,2.1c0,0.8-0.1,1.6-0.1,2.7c0,1,0,2,0,3c0,0.8,0.2,1.9,1.1,2.3
		C315.3,68.5,315.6,68.1,315.6,67.5z M314.4,56.1c0,0.5,0.1,1.1,0.3,1.5c0.2-0.7,0.3-1.5,0.3-2.3v-1.3c0-0.7,0-1.5,0-2.2
		c0-0.3,0-0.7,0-1.1c-0.3,0.6-0.4,1.3-0.4,1.9v1.1c0,0.3,0,0.7,0,1C314.4,55.3,314.4,55.7,314.4,56.1z"/>
	<path class="st1" d="M352.2,49.8c0,1.1-0.9,2.6-1.5,4c-0.3,0.5-0.3,1.3-0.5,1.8c-0.5,1.4-1.1,2.8-1.7,4c-0.6,1.2-0.8,2.5-1.5,3.6
		c-0.3,0.9-1,1.7-1,2.7c0,1.5-0.6,3.1-1.1,4.3c-0.4,1-1.3,1.7-1.9,1.7c-0.6,0-1.7,0-2.5-0.2c-0.4-0.3-0.7-0.8-1.1-1.2
		c-0.6-0.5-1.3-1.2-1.4-1.9c-1.5-3.1-1.9-6.3-3.2-9.3c-0.4-0.9-0.5-1.9-0.9-2.9c-0.5-1-0.6-2.2-1.2-3.2c-0.7-1.3-1.1-3-1.1-3.8
		c0-1.1,0.9-1.3,1.7-1.3c0.7,0,1.4,0.2,2.1,0.2c0.4,0,0.8,0,1.3,0c1.1,0,1.4,0.9,1.6,2.8c0.3,1.1,0.3,2.2,0.5,2.9
		c0.3,1.5,0.7,2.8,1.3,4.3c0.3,1.1,1.1,1.9,1.5,3c0.1,0.3,0.2,0.7,0.5,1c1.2-1.4,1.5-2.8,1.8-3.8c0.4-1.2,0.8-2.5,1.3-3.7
		c0.5-1.3,1.6-3.5,1.6-4.6c0-0.3,0-0.6,0-0.9c0-0.8,0.6-1.3,1.3-1.3s2.8,0.2,3.4,0.3C352,48.6,352.2,49.4,352.2,49.8z M338.6,62.6
		c0-0.4-1-3.8-1.8-4.7c-0.3-0.6-0.7-1.8-0.7-2.4c-0.7-1.7-1.2-4.4-1.6-4.4h-0.4c0,0.5,0.1,1.4,0.3,2.2c0.9,2.4,1.8,5.5,2.7,7.9
		c0.3,0.8,0.7,1.9,1.2,2.4C338.5,63.3,338.6,63,338.6,62.6z"/>
	<path class="st1" d="M362.3,71.9c-1.3,0-1.8-0.3-2.5-0.4c-1.4-0.2-2.4-1.2-3.4-1.8c-1.7-1-2.2-2.7-2.3-5.7
		c-0.1-1.3-0.1-2.4-0.1-3.6c0-0.9,0.2-1.7,0.2-2.6c0-2.6,0.4-4.8,0.6-5.7c0.4-1.5,1.6-2.8,1.9-2.9c0.6-0.2,1-0.7,1.7-1
		c1.2-0.5,4-0.6,5.4-0.6c1,0,3.1,0.4,4.3,1c2,0.9,2.8,2.6,2.8,4.7c0,0.8-0.2,2-0.2,2.8c-0.1,1.5-0.2,3-1.5,4c-0.6,0-1.5,0.7-3.6,0.7
		c-1.7,0-3.6-0.1-5.3-0.1c0,0.9,0,2.1,0.3,3.1c0.5,1.6,2.6,2.3,4.7,2.3c1.4-0.3,1.8-1.1,3.1-1.1c0.4,0,0.7,0.5,1.2,0.5
		c0.6,0,0.7,0.9,0.7,1.2c0,0.3,0.2,0.8,0.2,1.2c0,1.9-3.8,3.9-5.5,3.9C364.5,71.8,363.4,71.9,362.3,71.9z M357.3,62.8
		c0-0.7-0.1-2.7-0.1-3.5c0-1.3,0.6-3.4,0.7-4.6c0-0.7,0.3-1.8,0.5-2.2c0.2-0.3,0.5-0.6,0.6-0.9c0-0.2,0-0.5,0-0.8
		c-0.6,0.5-1,1.5-1.3,2.2c-0.6,0.6-1.1,3.3-1.1,4.3c0,1.7-0.1,3.3-0.1,4c0,1.1,0,2.6,0.3,3.7L357.3,62.8z M366.3,55.9
		c0-0.3,0.2-1.2,0.2-1.9c0-0.3-0.3-1.3-0.8-1.5c-0.2-0.6-1.2-0.8-1.9-0.8c-1.5,0-2,0.7-2.6,1.1c-0.8,1.2-0.7,2.7-0.7,3.9
		c0.8,0.2,2.4,0.2,3.2,0.2C365.6,56.9,366.3,56.6,366.3,55.9z M361.5,68.5c0.5,0.1,1.3,0.6,1.8,0.6c1.1,0,2.6-0.6,3-1
		c-1.2,0.3-2.2,0.5-2.8,0.5c-1,0-2-0.4-2.3-0.5L361.5,68.5z"/>
	<path class="st1" d="M382.6,71.9c-0.7,0-1.4-0.3-2.1-0.4c-1.4-0.2-2.8-1-3.6-1.8c-0.7-0.7-1.5-1.1-1.8-2c-0.5-1.2-1-2.4-1-3.6
		c0-1.3,0-2.4,0-3.6c0-0.9,0.2-1.7,0.2-2.6c0-1.1-0.3-1.9-0.5-3c0.1-0.3,0.3-0.6,0.4-0.9c0.3-0.7,0.4-1.5,0.7-2.1
		c0.5-1.2,2.2-3.1,3-3.1c0.7,0,1.4,0,2-0.2c1.2-0.5,2.5-0.9,3.9-0.9c1,0,3,0.6,4.2,1.3c1.9,1,2.9,3,2.9,4.9c0,0.8-0.1,1.5-0.1,2.3
		c-0.1,1.5-0.2,2.7-1.7,3.7c-1,0.6-2.2,0.7-3.4,0.8c-1.7,0-3.5-0.1-5.2-0.1c0.1,0.9,0.3,1.8,0.6,2.8c0.5,1.6,3.3,2.7,5.2,2.8
		c0.9,0,1.7-0.7,2.7-0.7c1,0,1.5,1.8,1.5,2.8c0,2.5-3.8,3.6-5.6,3.6C384.3,71.8,383.1,71.9,382.6,71.9z M378.4,66.8
		c-0.3-0.7-1.3-1.3-1.3-2.1c0-1,0.1-1.9,0.1-2.8v-1.6c0-0.6,0-1.3,0-1.9c0-1.3,0.4-2.5,0.5-3.7c0-0.9,0.5-1.8,0.6-2.7
		c-1.3,0.7-1.6,2.3-1.6,3.6v2c0,1.7-0.2,3-0.2,3.7c0,2.1,0.1,4.8,1.9,6.3C378.5,67.3,378.5,67,378.4,66.8z M381.2,68.8
		c0.5,0.1,1.1,0.2,1.6,0.2c0.7,0,1.4-0.1,2-0.3c-0.6-0.3-1.2-0.4-1.7-0.4c-0.3,0-0.6,0-0.8,0C381.8,68.4,381.5,68.6,381.2,68.8z
		 M387,54.2c-1-1-1.6-2.3-3.2-2.3c-0.6,0-1.3,0.2-1.8,0.6c-0.8,1.2-0.6,2.9-0.7,4.4c0.8,0.2,1.7,0.2,2.5,0.2
		C386.1,57.2,386.2,56.6,387,54.2z"/>
	<path class="st1" d="M398.8,71.3c-0.8,0-1.3,0.7-2.1,0.7c-1.5-0.1-1.5-1.7-1.5-2.8c0-1.5,0.3-3.1,0.3-4.6c0-0.7-0.2-1.5-0.2-2.2
		c0-0.8,0.1-1.5,0.1-3.8c0-1.5,0.2-3.1,0.2-4.7c0-0.9-0.2-2-0.2-3c0-0.7,0.1-1.4,0.1-2c0-2.5-0.4-4.9-0.4-7.3c0-1.4,0.2-2.8,0.2-4.3
		c0-0.6,0-1.1,0.1-1.7c0.2-0.6,2.3-1.4,3.2-1.4c0.4,0,0.8,0.3,1.1,0.6c0.6,0.6,1.2,1.1,1.2,2c0,0.8-0.2,1.6-0.2,2.4
		c0,1.6,0.1,3.2,0.1,4.8c0,0.3,0,0.7,0,1.1c0,1.1,0.1,2.1,0.1,3.1c0,1-0.3,2-0.3,3.1c0,1.1,0.1,2.2,0.1,3.2c0,2.8-0.3,4.7-0.4,6.5
		c0,0.9,0.2,1.5,0.3,2.1c0.1,1.1,0,2.3,0.2,3.4c0.1,1.2,0.8,2.2,0.8,3.3c0,0.8-0.6,1.3-1.3,1.3C399.9,71.4,399.4,71.3,398.8,71.3z
		 M398.2,58.9c-0.1,0.5-0.1,1.1-0.1,3.1c0,1.9-0.1,4.1-0.4,6.1c0,0.5,0.1,0.9,0.3,1.3c0.6-1.3,0.6-3.2,0.8-4.9
		C398.8,62.2,398.7,60,398.2,58.9z"/>
	<path class="st1" d="M437.6,50.8c1.3,2,1.5,2.7,1.5,4.3c0,0.5,0,1.2,0,1.7c0,0.7,0.1,1.4,0.1,2c0,1.5-0.4,2.6-0.4,4.1
		c0,1-0.5,1.9-0.9,2.8c-0.9,1.9-3.1,3.2-5.3,3.2c-2.3,0-3.4,0-4.3-0.3h-0.5c-0.5,0-1.5-0.2-2-0.2c0,0.8-0.1,2.1-0.1,3.5
		c0,1.3,0,2.5,0.1,3.2c0.1,0.3,0.1,0.7,0.1,1.1c0,1.5,0,2.3,0,3.8c0,0.6,0.1,1.2,0.1,1.8c0,1.7-1.2,2.1-2.2,2.1
		c-0.7,0-1.3-0.3-1.7-0.3c-0.1,0-0.3,0-0.5,0.1c-0.9,0-1.7-0.3-2.1-1.1c-0.2-0.5-0.2-1-0.2-1.5c0.1-1.4,0.2-2.2,0.2-3.6
		c0-0.9-0.1-1.7-0.1-2.7c0-1.8,0.1-3.1,0.1-4.5c0-1.4,0.2-2.7,0.2-4c0-0.7,0-1.4,0-2.1c0-0.9-0.1-1.6-0.1-2.5c0-1.2,0-2.5,0-3.7
		c0-0.3-0.1-0.7-0.1-1c0-1.5,0-5.2,0-7.5l0.3-1c0-1,0.6-1.2,1.2-1.2c1.1,0,2.8,0.1,3.7,0.4c0.3,0,1.1,1.2,1.4,1.8
		c0.5-0.7,2-1.8,3.1-1.8C432.1,47.9,436,48.1,437.6,50.8z M422,62.5c0,1.2,0,2.3,0,3.5c0,1.9,0.1,3.8,0.3,5.7c0.1,1.3,0,2.7,0.2,4.1
		c0.1,0.8,0.2,2.9,0.2,3.7c0,0.6,0,1.2,0.2,1.7c0-0.4,0.1-0.9,0.1-1.4c0-0.5,0.1-2.3,0.1-2.9c0-3-0.2-3.9-0.2-5c0-1.5,0-2.3,0-3.1
		c0-0.5,0-1,0-1.5V66c0-1.9,0.4-4.4,0.4-6.3c0-0.6-0.2-1.3-0.2-1.9c0-1.4,0-2.7-0.1-4c-0.2,0.1-0.4,0.1-0.6,0.1c0,0.8,0,1.5-0.1,2.4
		c0,3.3,0,4.7-0.2,5.9V62.5z M425.8,62.3c0,0.5,0,1.2,0.4,1.2c0.6,0,2.5,0.3,3,0.3c1.3,0,1.7-0.1,1.9-0.2c1.9-0.5,2-2.1,2.3-5.4
		c0-1.4-0.2-4.2-2.3-4.8c-1.8,0-3,0-3.8,0.4c-1.2,0.5-1.3,1.5-1.3,2.7l-0.1,0.4c0,1.5-0.1,2-0.1,3.4
		C425.7,60.9,425.8,61.6,425.8,62.3z M434.4,64.8c-1,0.9-2.2,1.5-3.7,1.8c0.4,0.2,1.6,0.2,1.8,0.2c1.6,0,4.1-1.6,4.1-4
		c0-1.2-0.1-2.4-0.1-3.6c0-0.2,0-0.5,0-0.8c-0.4,1.4-0.4,2.7-0.7,4C435.7,63.5,434.9,64.4,434.4,64.8z M435.6,55.1
		c0.2,0,0.2-0.7,0.2-1.1c-0.7-0.1-1.2-1.6-1.4-1.6c-0.2,0-0.3,0.3-0.3,0.7C434.8,53.4,435.4,54.3,435.6,55.1z"/>
	<path class="st1" d="M461.4,70c0,1.3-1.5,1.7-2.5,1.9c-0.7,0.1-1.6,0.7-1.9,0.7c-1.2,0-1.6-1.1-1.7-2.1c-0.7,0.1-1.4,0-2,0.3
		c-1.3,0.5-2.6,1-4.1,1c-2.9,0-7.1-1.9-7.1-6.3c0-1.5,0.1-2.7,0.1-3.3c0-0.9,0-2.6,0.4-3.5c0.9-2,3.8-2.2,6.5-2.2c1.2,0,2.3,0,3.3,0
		c-0.2-1.7-1.2-4.1-3.3-4.1c-0.8,0-1.8,0.2-2.6,0.2c-1,0.1-2,0.8-2.8,0.8c-0.5,0-1.5-1.2-1.5-1.7c0-2.4,3.5-3.8,5.6-3.8
		c0.4,0,1.7-0.1,2.4-0.2c1.3,0.1,4.3,0.6,5.7,2c0.6,0.6,1.5,1.2,1.8,2c0.6,1.2,1.2,2.5,1.2,4.1c0,2.4-0.2,4.4-0.2,5.5
		c0,0.8,0.1,1.6,0.4,2.5c0.4,1.2,0.9,2.5,2,5.1C461.3,69.2,461.4,69.6,461.4,70z M452.3,61.8v-1.2c-0.6-0.1-1.3-0.1-1.9-0.1
		c-1.8,0-2.7,0-3.1,0.9c-0.3,0.6-0.4,1.7-0.6,3.5c0.8,1.8,2.1,2.1,3.1,2.1c0.7,0,1.4-0.2,1.9-0.6C452.3,65.5,452.3,63.4,452.3,61.8z
		 M455.7,54.5c0,0.6,0,1.1,0,2.1c0,1.5,0.1,3.1,0.1,4.6c0,1.1-0.3,2.2-0.3,3.5c0,0.9-0.4,1.7-0.5,2.7c1.2-0.8,1.5-2,1.5-3.3
		c0-1.4,0-2.3,0-3.3c0-0.8,0.1-1.6,0.1-2.4c0-2.2-0.1-4.9-2.1-6.5C454.3,53.2,455.3,53.3,455.7,54.5z"/>
	<path class="st1" d="M482,60.4c0,0.5,0,1,0,1.5c0,1.5,0.1,3.1,0.1,4.6c0,0.9,0,1.8-0.2,2.8c-0.5,2.3-0.4,4.8-1,7
		c-0.2,0.9-0.6,1.7-0.7,2.5c-0.1,0.7-0.2,0.9-0.5,1.5c-0.7,1.1-1.8,2.9-2.3,3c-1.1,0.3-2.4,0.5-3.5,0.5c-0.7,0-1.5,0-2.2,0
		c-0.6,0-1.2,0.1-1.7,0.1c-0.7,0-1.4-0.8-2.9-1.2c-2-0.5-3.3-0.9-3.3-3.6c0-0.4,0.3-1.1,0.6-1.7c2,0.1,4,0.9,6.1,0.9
		c0.4,0,3.3-0.2,4.5-1c1-0.8,2.1-3.5,2.1-5.5c0-0.2,0-0.5,0-0.7c-1.6,0.3-2.5,0.8-4.9,0.8c-2.5,0-7.1-0.5-7.7-3.9
		c-0.2-1.1-0.7-2.1-0.8-3.2c-0.1-1.4-0.4-2.8-0.5-4.2c0-1.8,0.1-3.7,0.5-5.5c0.1-0.5,0.5-1,0.8-1.5c0.5-0.9,0.7-1.8,1.2-2.7
		c1.1-1.8,2.3-3,4.3-3c0.7,0,1.3,0.1,2,0.2c0.6,0,1.2,0,1.8,0.3c0.5,0.2,1.5,1.5,1.9,1.5c0.5,0,1.4-1.3,1.8-1.9
		c0.5,0,1.1-0.1,1.6-0.1c0.6,0,1.1,0,1.7,0.1c1.1,0,1.4,1.9,1.4,3.1c0,0.7-0.1,1.4-0.1,2c0,0.4,0,0.9,0.1,1.4c0.2,1,0.1,1.9,0.3,2.9
		c0,0.4,0.1,0.8,0.1,1.3C482.4,59.1,482.1,59.7,482,60.4z M467.7,53.4c-1.8,0.5-2,3.9-2,6.8c0,1.6,0.3,4.3,1.4,5.9
		c-0.1-0.6-0.2-1.3-0.2-1.9c0-0.4,0-0.8,0-1.3c0-0.3,0-0.6,0-0.9c0-1.6,0.3-3.3,0.3-5C467.2,55.7,467.6,54.5,467.7,53.4z M474,81
		c1.2,0,2.1-0.9,2.8-1.8c-1.8,0.3-2.8,1.2-4.9,1.2c-0.9,0-1.8,0-2.5,0c0.4,0.3,1,0.5,1.5,0.6c0.8,0,1.5,0,1.6,0H474z M475.5,57.8
		c-0.1-1.2-0.7-2.4-0.8-3.7c-0.1-0.7-1.4-1.3-2.2-1.8c-3,0.9-3.1,6.4-3.1,9.8v1c0,0.9,0,1.7,0.4,2.4c1,0.7,2.4,0.9,3.7,0.9
		c0.7,0,1.8,0,2.1-1c0.1-0.5,0.7-0.9,0.7-1.8C476.3,61.5,475.6,59.2,475.5,57.8z M478.5,58.5c0-0.8-0.1-1.6-0.2-2.4
		c-0.2-1.5,0.1-3-1.4-4.1c0,1.2,0.5,2.3,0.6,3.5c0.2,1.3,0.3,2.6,0.9,4.1C478.4,59.2,478.5,58.9,478.5,58.5z"/>
	<path class="st1" d="M493.4,48.7c0.7,0,0.7,2.8,0.7,3.2c0,1.5-0.3,3.1-0.3,4.6c0,0.5,0,1,0.1,1.5c-0.1,0.5-0.2,1.5-0.2,2.2
		c0,1.8,0.2,3.7,0.2,5.9c0,1.1-0.2,2.2-0.2,3.3c0,0.5,0,0.8-0.1,1.3c-0.3,0.5-0.9,0.5-1.4,0.6c0,0.4-1.5,0.7-2.4,0.7
		c-1.4,0-2.1-0.5-2.1-1c0-0.6-0.7-1-0.7-1.6c0-0.6,0.2-1.3,0.2-1.8c0-3.8,0.3-5.6,0.3-6.3s0-3.3-0.2-4.2c0-2.5,0.2-4.5,0.2-4.9
		c0-0.2-0.2-1.5-0.2-2.7c0-1.1,1.5-1.5,3.3-1.5C491.6,48,492.9,48.1,493.4,48.7z M489.6,45.1c-1.4,0-2.2-0.2-2.2-2.8l0.3-0.4
		c-0.1-0.3-0.1-0.9-0.1-1.4c0-0.8,0.1-1.5,0.4-1.8c0.7-0.4,1.5-0.6,2.2-0.6c0.8,0,2.2,0.2,3,0.3l0.5,0.3c0.4,0.7,0.6,1.7,0.6,2.7
		c0,0.5-0.2,1.1-0.2,1.5c0,1.9-1,2.1-3.1,2.1C490.6,45,490.1,45.1,489.6,45.1z M490.2,69.8c0.2,0,0.3-0.4,0.3-0.9l-0.1-1.9
		c-0.4,0-0.5,1.4-0.5,1.9L490.2,69.8z M490.7,50.7c-0.6,0-0.7,2.1-0.7,3c0,0.6,0.1,1.3,0.1,1.9c0,1,0,3.5,0.6,4.4c0-1.4,0-3.5,0-4.9
		c0-0.4,0-0.9,0-1.8C490.8,52.6,490.8,51.3,490.7,50.7z"/>
	<path class="st1" d="M499.5,70.1c0-0.4,0.1-0.7,0.2-1.1c0.1-1,0.2-1.8,0.2-2.8c0-0.5,0-1,0-1.5c0-0.6,0.1-1.1,0.1-1.7
		c0-0.9-0.1-1.7-0.1-2.6c0-4.3-0.3-6.9-0.3-9.5c0-1.1,0.3-3,1.6-3c0.9,0,1.7,0.3,2.7,0.3c0.6,0,1.2-0.1,1.8-0.1
		c0.8,0.5,0.8,2.4,0.8,3.8c1.3-1,1.9-2.4,2.9-2.7c0.8-0.2,1.6-0.2,2.4-0.5c0.5-0.1,0.9-0.2,1.4-0.2c1.3,0,3,0.8,4,1.7
		c1.4,1.3,1.2,2.9,1.4,4.4c0.2,1.3,0.3,3.6,0.3,5.1c0,1.9,0.2,2.7,0.2,3.5c0,0.9-0.1,1.8-0.1,2.7c0,1.6,1,3,1,4.4
		c0,1.5-1.9,1.4-3,1.5c-1.3-0.2-4.7-1.5-4.7-3.5c0-0.1,0-0.3,0.1-0.5c0.6-2.4,0.1-4.9,0.6-7.3c0-2.9-0.4-5.9-1.6-5.9
		c-0.1,0-0.2,0-0.4,0c-2.1,0.5-2.7,1.6-3.9,2.8c-0.8,0.8-1.3,1.9-1.3,3c0,1.6,0.6,4.1,0.6,6.1c0,1.7,0.8,2.2,1.1,3.3
		c-0.6,1.7-3,1.8-4.7,1.8C501.4,71.8,499.5,71.6,499.5,70.1z M503.1,51.2c-0.3,0.4-0.5,0.9-0.5,1.4c0,1.4-0.5,2.7-0.5,4.1
		c0,1.1,0.2,2.3,0.2,3.4c0,0.5,0.1,1.1,0.4,1.6c0.1-0.5,0.1-1.1,0.1-2.7c0-2.3,0.2-4.6,0.5-6.9L503.1,51.2z M502.7,62.7
		c0,0.4,0.1,0.8,0.2,1.2c0-0.3,0.1-0.6,0.1-0.9c0-0.4,0-0.8-0.2-1.2C502.7,62.1,502.7,62.4,502.7,62.7z M515.9,68.4
		c0.3-0.7,0.3-1.4,0.3-2.2c0-0.8,0-1.5-0.2-2.3c0-0.3,0-0.5,0-0.8c0-0.6,0-1.2,0-1.7c0-0.2,0-0.5,0-0.8c-0.5,1.3-0.5,2.8-0.5,4.1
		c0,0.4,0,0.9,0,1.4c0,0.5,0,1.1,0.2,1.6L515.9,68.4z"/>
	<path class="st1" d="M542.6,70c0,1.3-1.5,1.7-2.5,1.9c-0.7,0.1-1.6,0.7-1.9,0.7c-1.2,0-1.6-1.1-1.7-2.1c-0.7,0.1-1.4,0-2,0.3
		c-1.3,0.5-2.6,1-4.1,1c-2.9,0-7.1-1.9-7.1-6.3c0-1.5,0.1-2.7,0.1-3.3c0-0.9,0-2.6,0.4-3.5c0.9-2,3.8-2.2,6.5-2.2c1.2,0,2.3,0,3.3,0
		c-0.2-1.7-1.2-4.1-3.3-4.1c-0.8,0-1.8,0.2-2.6,0.2c-1,0.1-2,0.8-2.8,0.8c-0.5,0-1.5-1.2-1.5-1.7c0-2.4,3.5-3.8,5.6-3.8
		c0.4,0,1.7-0.1,2.4-0.2c1.3,0.1,4.3,0.6,5.7,2c0.6,0.6,1.5,1.2,1.8,2c0.6,1.2,1.2,2.5,1.2,4.1c0,2.4-0.2,4.4-0.2,5.5
		c0,0.8,0.1,1.6,0.4,2.5c0.4,1.2,0.9,2.5,2,5.1C542.4,69.2,542.6,69.6,542.6,70z M533.5,61.8v-1.2c-0.6-0.1-1.3-0.1-1.9-0.1
		c-1.8,0-2.7,0-3.1,0.9c-0.3,0.6-0.4,1.7-0.6,3.5c0.8,1.8,2.1,2.1,3.1,2.1c0.7,0,1.4-0.2,1.9-0.6C533.5,65.5,533.5,63.4,533.5,61.8z
		 M536.8,54.5c0,0.6,0,1.1,0,2.1c0,1.5,0.1,3.1,0.1,4.6c0,1.1-0.3,2.2-0.3,3.5c0,0.9-0.4,1.7-0.5,2.7c1.2-0.8,1.5-2,1.5-3.3
		c0-1.4,0-2.3,0-3.3c0-0.8,0.1-1.6,0.1-2.4c0-2.2-0.1-4.9-2.1-6.5C535.5,53.2,536.4,53.3,536.8,54.5z"/>
</g>
</svg>
