<?xml version="1.0" encoding="utf-8"?>
<!-- Generator: Adobe Illustrator 24.1.2, SVG Export Plug-In . SVG Version: 6.00 Build 0)  -->
<svg version="1.1" id="Laag_1" xmlns="http://www.w3.org/2000/svg" xmlns:xlink="http://www.w3.org/1999/xlink" x="0px" y="0px"
	 viewBox="0 0 762.3 100.2" style="enable-background:new 0 0 762.3 100.2;" xml:space="preserve">
<style type="text/css">
	.st0{clip-path:url(#SVGID_2_);fill:#CD1334;}
	.st1{fill:#FFFFFF;}
</style>
<g>
	<defs>
		<rect id="SVGID_1_" x="-28.5" y="-8.6" width="823.4" height="109.9"/>
	</defs>
	<clipPath id="SVGID_2_">
		<use xlink:href="#SVGID_1_"  style="overflow:visible;"/>
	</clipPath>
	<path class="st0" d="M156.7,14.1c68.7-6.4,152.6,1.9,222-3.9c83.2-7.8,173.4-7.8,256.6-7.8c0,3.9-6.9,9.7,0,11.6
		C663,19.9,663,27.7,663,35.5c0,3.9-20.8,0-13.9,3.9c-20.8,0-55.5,1.9-34.7,5.8c6.9,3.9,34.7,0,41.6,5.8c6.9,5.8-6.9,11.6,0,17.5
		h27.8c6.9,3.9-6.9,11.6,0,11.6c20.8,3.9,48.6,1.9,76.3,1.9c0,3.9,7,7.8-6.9,9.7C510.4,95.6,260.7,103.4,18,97.5
		C-9.8,95.6,11,87.8,31.8,82c-6.9,1.9-6.9-3.9-13.9-1.9c0-5.8,13.9-15.5,41.6-17.5H38.8c-6.9-1.9,0-5.8,0-9.7c6.9,0,13.9,0,13.9-1.9
		v-7.8H24.9c6.9,0,13.9,0,13.9-1.9v-7.8c13.9-1.9,34.7,1.9,48.6,0v-5.8c-13.9-1.9-34.7,0-48.6,0c6.9-1.9,6.9-3.9,6.9-7.8
		c20.8-1.9,41.6,3.9,62.4-1.9H87.3C101.2,8.3,135.9,16.1,156.7,14.1"/>
</g>
<g>
	<path class="st1" d="M216,38.7c-0.4,1.2-1,2.1-1.4,3.2c-0.3,1.2-0.5,2.4-1,3.5c-0.4,1.1-0.8,2.3-0.9,3.4c-0.4,1.4-1,2.7-1.1,4.2
		c0,0.4-0.2,0.8-0.4,1.2c-0.3,0.6-0.4,1.4-0.4,2c0,0.2,0.1,0.5,0.1,0.8c0,0.8-0.5,1.5-0.5,2.4c0,0.6-0.5,1.1-0.5,1.7
		c0,0.2,0,0.3,0,0.5c0,0.3,0,0.6-0.2,0.8c-0.9,1.4-1.2,3-1.4,4.6c-0.3,0.6-0.1,1.3-0.3,1.9c-0.2,1.3-0.5,2.3-1.3,2.9
		c-0.6,0-1.2-0.2-1.8-0.2c-1.2,0-1.2,1-2.7,1c-2.1,0-1.7-2.4-2.2-4.1c0-0.5,0.2-1,0.2-1.5v-0.2c-0.4-1.4-1.1-2.8-1.4-4.3
		c-0.9-1.5-1-3.2-1.8-4.7c-1-2.2-1.2-7.4-2.7-7.4c-0.1,0.6,0,1.2-0.3,1.8c-0.5,1.8-0.8,3.7-1.5,5.5c-0.2,0.5-0.1,1.1-0.4,1.5
		c-0.1,0.2-0.1,0.4-0.1,1.2c0,0.7-0.4,1.4-0.4,2c0,0.8-0.6,1.3-0.6,2.2c0,0.8-0.5,1.6-0.5,2.4c0,0.5,0.2,1,0.3,1.5
		c-0.4,0.4-0.5,1-0.5,1.7c-0.4,0.2-1,0.7-1.3,0.7c-0.4,0-0.7-0.2-1.1-0.3c-0.5,0.7-1.1,1.2-1.8,1.5c-1.1,0-1.7-0.6-2.2-1.5h-0.3
		c-2.1,0-2.3-1.3-2.4-2.6c-0.3-0.4-0.8-0.7-1-1.2c-0.4-1-0.5-2.1-0.9-3.1c-0.4-1.7-0.9-3.2-1-4.9c-0.4-1.4-1-2.7-1.2-4.1
		c-0.1-0.7-0.4-1.3-0.6-1.9c0-1-0.4-1.9-0.8-2.9c-0.8-2.1-1.5-4.1-2.1-6.2c-0.2-0.7-0.6-1.3-0.8-2c0-1.2-0.3-2.6-0.5-3.8
		c0-0.6,0-1.3,0.5-1.8l1.4-0.5c1,0,1.5,0.3,2.4,1.3c0.9,0,1.9,0,2.9,0.1c1.4,0.7,2.5,2.1,2.5,3.7c0,0.1,0,0.3,0,0.5
		c0,0.9,0.5,1.8,0.5,2.7c0,0.2,0,0.3,0,0.5c0,0.5,0,1,0.2,1.5c1,2.7,1.5,5.6,1.8,8.4c0,1.2,0.8,2.3,0.8,3.4v0.3
		c0.2,0.7,0.2,1.4,0.2,2.1c0.2-0.4,0.2-0.9,0.3-1.3c0.1-0.5,0.5-0.9,0.5-1.5c0.1-0.9,0.3-1.8,0.8-2.7c0.2-1,0.9-1.8,0.9-2.9
		c0-0.6,0.3-1.4,0.5-2c0.1-1.8,1.1-3.4,1.2-5.2c0-0.6,0.3-1.2,0.5-1.7c0.2-0.7,0.1-1.4,0.4-2c0.3-0.9,0.2-2,1.1-2.7
		c0.8-0.3,1.5-0.8,2.3-1.2c0.8,0.1,1.7,0.4,2.6,0.4h0.8c0.4,1.5,1.3,3,1.8,4.6c0.1,1.2,0.1,2.4,0.6,3.5c0.3,0.9,0.4,2,1,2.9
		c0.1,0.9,0.1,1.9,0.5,2.7c0.3,0.6,0.4,1.3,0.5,1.9c0.4,1.4,0.8,2.8,0.8,4.2c0,0.6,0.2,0.8,0.5,1.2c0.3-1.1,0.7-2.1,0.8-3.3
		c0-0.6,0.4-1,0.5-1.6c0.1-0.7,0-1.3,0.1-2c0.3-2.3,1.4-4.6,1.6-6.7c0.2-1.5,0.9-2.9,1.3-4.4c0.2-0.8,0.6-1.5,0.6-2.5
		c0-1.2,0.8-2.3,2.3-2.3c0.9,0,1.4,1.5,2.1,1.5c0.5,0,0.9-0.3,1.4-0.3h0.2c0.4,0,0.8,0,1.4-0.1c0.3,0,0.4,0.4,0.5,0.6
		C215.8,37.8,216,38.3,216,38.7z M178.4,41.5l0-0.1l0-0.1h-0.2l0,0.1l0,0.1H178.4z M179.9,46.7c-0.1-0.7-0.4-1.4-0.5-2.1
		c-0.2-1-0.5-1.9-0.9-2.9c0,1.1,0.4,2.1,0.7,3.1C179.4,45.5,179.5,46.2,179.9,46.7z M193.1,44.4c0-0.5-0.1-0.9-0.4-1.3
		c-0.2,0.5-0.4,1.1-0.5,1.6c0,1-0.5,1.8-0.7,2.8c0,0.3,0.1,0.6,0.2,0.8c-0.3,1.2-1.1,2.1-1.2,3.3c-0.8,1.8-1.2,3.7-1.5,5.6
		c-0.1,0.9-0.6,1.8-0.6,2.9c0,0.5-0.4,1-0.4,1.5c0,0.6-0.2,1.2-0.2,1.7c0,1-0.5,1.8-0.5,2.8c0,0.2,0,0.4,0.1,0.6h0.6
		c0.1-0.7,0.2-2.8,0.5-3.2c0.4-0.7,0.3-1.5,0.6-2.3c0.4-1,0.3-2.2,0.8-3.1c0.4-0.9,0.8-2.1,0.8-3.2c0.2-0.4,0.4-0.9,0.4-1.5
		c0.9-2.4,1.3-3.5,1.5-6.3c0.1-0.6,0.4-1.3,0.4-2C193.1,44.8,193.1,44.6,193.1,44.4z M198.5,51.5c0-0.2-0.1-0.4-0.2-0.4
		c-0.1,0-0.1,0.2-0.1,0.3c0,0.2,0.1,0.4,0.3,0.4C198.5,51.7,198.5,51.6,198.5,51.5z M199.5,56.4c0-0.7-0.3-1.4-0.3-2
		c0-0.6-0.2-1.1-0.5-1.5c0,0.5,0,1.1,0.2,1.6C199.1,55.1,199.2,55.8,199.5,56.4z M200.1,58.4c-0.1-0.5-0.2-1.1-0.5-1.6
		C199.6,57.4,199.6,58,200.1,58.4z M205.4,66.6c0-0.2-0.1-0.4-0.3-0.4c-0.2,0-0.3,0.2-0.3,0.3c0,0.2,0.1,0.4,0.3,0.4
		C205.3,66.9,205.4,66.7,205.4,66.6z M205.5,65.8c0.1-0.3,0.3-0.7,0.3-1.1c0-0.2,0-0.3,0-0.5c0-1.5,0.7-2.9,0.7-4.5
		c0.3-2.2,1.2-4.4,1.2-6.6c-0.1,0-0.3,0-0.3,0c-0.3,1-0.4,2.1-0.8,3.1c0,1.6-0.6,2.8-0.7,4.3c-0.2,1.5-0.6,2.9-0.6,4.4
		C205.2,65.1,205.3,65.4,205.5,65.8z M208.4,49.8c-0.3,0.8-0.7,1.5-1.1,2.2c0.2,0,0.4,0,0.6,0C208.2,51.3,208.3,50.6,208.4,49.8z
		 M209.8,44.1c0-0.1,0-0.2-0.1-0.3c-0.1,0.2-0.3,0.5-0.3,0.7c0,0.1,0,0.2,0.1,0.2C209.7,44.8,209.8,44.4,209.8,44.1z"/>
	<path class="st1" d="M226.4,71.9c-1.3,0-1.8-0.3-2.5-0.4c-1.4-0.2-2.4-1.2-3.4-1.8c-1.7-1-2.2-2.7-2.3-5.7
		c-0.1-1.3-0.1-2.4-0.1-3.6c0-0.9,0.2-1.7,0.2-2.6c0-2.6,0.4-4.8,0.6-5.7c0.4-1.5,1.6-2.8,1.9-2.9c0.6-0.2,1-0.7,1.7-1
		c1.2-0.5,4-0.6,5.4-0.6c1,0,3.1,0.4,4.3,1c2,0.9,2.8,2.6,2.8,4.7c0,0.8-0.2,2-0.2,2.8c-0.1,1.5-0.2,3-1.5,4c-0.6,0-1.5,0.7-3.6,0.7
		c-1.7,0-3.6-0.1-5.3-0.1c0,0.9,0,2.1,0.3,3.1c0.5,1.6,2.6,2.3,4.7,2.3c1.4-0.3,1.8-1.1,3.1-1.1c0.4,0,0.7,0.5,1.2,0.5
		c0.6,0,0.7,0.9,0.7,1.2c0,0.3,0.2,0.8,0.2,1.2c0,1.9-3.8,3.9-5.5,3.9C228.6,71.8,227.5,71.9,226.4,71.9z M221.4,62.8
		c0-0.7-0.1-2.7-0.1-3.5c0-1.3,0.6-3.4,0.7-4.6c0-0.7,0.3-1.8,0.5-2.2c0.2-0.3,0.5-0.6,0.6-0.9c0-0.2,0-0.5,0-0.8
		c-0.6,0.5-1,1.5-1.3,2.2c-0.6,0.6-1.1,3.3-1.1,4.3c0,1.7-0.1,3.3-0.1,4c0,1.1,0,2.6,0.3,3.7L221.4,62.8z M230.4,55.9
		c0-0.3,0.2-1.2,0.2-1.9c0-0.3-0.3-1.3-0.8-1.5c-0.2-0.6-1.2-0.8-1.9-0.8c-1.5,0-2,0.7-2.6,1.1c-0.8,1.2-0.7,2.7-0.7,3.9
		c0.8,0.2,2.4,0.2,3.2,0.2C229.7,56.9,230.4,56.6,230.4,55.9z M225.5,68.5c0.5,0.1,1.3,0.6,1.8,0.6c1.1,0,2.6-0.6,3-1
		c-1.2,0.3-2.2,0.5-2.8,0.5c-1,0-2-0.4-2.3-0.5L225.5,68.5z"/>
	<path class="st1" d="M246.7,71.9c-0.7,0-1.4-0.3-2.1-0.4c-1.4-0.2-2.8-1-3.6-1.8c-0.7-0.7-1.5-1.1-1.8-2c-0.5-1.2-1-2.4-1-3.6
		c0-1.3,0-2.4,0-3.6c0-0.9,0.2-1.7,0.2-2.6c0-1.1-0.3-1.9-0.5-3c0.1-0.3,0.3-0.6,0.4-0.9c0.3-0.7,0.4-1.5,0.7-2.1
		c0.5-1.2,2.2-3.1,3-3.1c0.7,0,1.4,0,2-0.2c1.2-0.5,2.5-0.9,3.9-0.9c1,0,3,0.6,4.2,1.3c1.9,1,2.9,3,2.9,4.9c0,0.8-0.1,1.5-0.1,2.3
		c-0.1,1.5-0.2,2.7-1.7,3.7c-1,0.6-2.2,0.7-3.4,0.8c-1.7,0-3.5-0.1-5.2-0.1c0.1,0.9,0.3,1.8,0.6,2.8c0.5,1.6,3.3,2.7,5.2,2.8
		c0.9,0,1.7-0.7,2.7-0.7c1,0,1.5,1.8,1.5,2.8c0,2.5-3.8,3.6-5.6,3.6C248.4,71.8,247.2,71.9,246.7,71.9z M242.5,66.8
		c-0.3-0.7-1.3-1.3-1.3-2.1c0-1,0.1-1.9,0.1-2.8v-1.6c0-0.6,0-1.3,0-1.9c0-1.3,0.4-2.5,0.5-3.7c0-0.9,0.5-1.8,0.6-2.7
		c-1.3,0.7-1.6,2.3-1.6,3.6v2c0,1.7-0.2,3-0.2,3.7c0,2.1,0.1,4.8,1.9,6.3C242.5,67.3,242.5,67,242.5,66.8z M245.3,68.8
		c0.5,0.1,1.1,0.2,1.6,0.2c0.7,0,1.4-0.1,2-0.3c-0.6-0.3-1.2-0.4-1.7-0.4c-0.3,0-0.6,0-0.8,0C245.9,68.4,245.6,68.6,245.3,68.8z
		 M251.1,54.2c-1-1-1.6-2.3-3.2-2.3c-0.6,0-1.3,0.2-1.8,0.6c-0.8,1.2-0.6,2.9-0.7,4.4c0.8,0.2,1.7,0.2,2.5,0.2
		C250.2,57.2,250.3,56.6,251.1,54.2z"/>
	<path class="st1" d="M269,71.8c-2.3-0.6-5.2,0-5.9-4c-0.2-1.2-0.8-2.3-0.8-3.6c0-1-0.1-2.2-0.1-3.3c0-2.1,0.2-4.6,0.3-6.7
		c-1.8-0.3-3.5,0.1-4.7-1.1c-0.4-0.8-0.4-1.7-0.6-2.6c-0.1-0.3-0.2-0.6-0.2-0.9c0-1,0.8-1.3,1.5-1.3h0.9c1.2,0,2.3-0.2,3.5-0.2
		c0.1-0.8,0.2-2.9,0.2-4.1c0-0.5,0-0.9,0-1.4c0-0.5,0-1.1,0-1.5c0-0.6-0.1-1.2-0.1-1.7c0-0.6,0.2-1.2,0.4-1.9
		c0.1-0.6,0.2-1.3,0.4-1.9c0.5-0.8,2.6-1.2,4-1.2c1,0,2.4,0.8,2.4,2c0,1.3-0.9,2.3-0.9,3.7v1.8c-0.1,0.7-0.2,3.6-0.2,4.4
		c0,0.8,0.1,1.3,0.2,2.1c0.8,0,1.7,0,2.5,0c0.9,0,1.7-0.6,2.6-0.6c0.7,0.1,1.4,0.5,2,0.8c0.7,0.4,1.3,1.1,1.3,1.9
		c-0.2,2-0.3,3.8-2.2,3.8h-4.8c-0.8,0-1.6,0-2,0.7c-0.2,0.9-0.3,3.2-0.3,3.7c0,1,0.4,1.9,0.4,2.9c0,0.6-0.1,1.3-0.1,1.9
		c0,1.4,0.2,2.3,0.8,2.7c1.2,0.5,3.6,0.3,5.7,0.7c0.7,0.5,1,1.3,1,2c0,3.2-3.3,2-5.3,2.7c-0.4,0.1-0.9,0.4-1.4,0.4
		C269.3,71.9,269.1,71.9,269,71.8z M268,68.8c-0.6-0.6-1.4-1.1-1.7-1.9c-0.4-1.2-0.5-3.2-0.7-4.1c0-0.7,0.4-1.6,0.4-2.4
		c0-0.7-0.2-1.5-0.2-2.2c0-1.2,0.1-2.8,0.1-4.1l-0.7,0c-0.3,2-0.5,4.3-0.5,6.3c0,1.3,0,2.5,0.3,3.7c0.2,1.4,0.4,3.6,1.4,4
		C267,68.6,267.5,68.7,268,68.8z M265.5,44.4v2.8c0,0.8,0,1.1,0,1.5c1.1-0.7,0.8-1.2,0.9-2c0-2.9,0.5-5.8,0.5-7.9
		c0-0.3-0.1-0.6-0.2-1c-0.6,1.5-0.9,3.1-1.1,4.7C265.5,43,265.5,43.6,265.5,44.4z M273,52c0.4,0,0.8-0.1,1.1-0.3
		c-1-0.2-2-0.2-3.1-0.2c-0.7,0-1.5,0-2.2,0.1c0.6,0.4,1.5,0.4,2.5,0.4H273z"/>
	<path class="st1" d="M272.2,82.6c-0.1-0.6-0.3-1.1-0.3-1.6c0-2.6,0.9-3.7,1.8-3.7c1.1,0,2.1,0.5,3.2,0.5c1.2,0,2.8-1,3.3-2.3
		c0.7-0.7,0.9-3.1,0.9-4.7c0-3.5,0-8.9-0.1-10.5c0-1.7,0.1-3.3,0.1-6c0-1.1-0.1-2.2-0.1-3.4c0-0.3,0-0.6,0-0.9c0-1.7,1.5-2,2.5-2
		c0.4,0,1.5,0.1,2.5,0.1c1.2,0,2.1,0.3,2.1,1.8c0,1.4-0.1,2.8-0.1,4.2c0,2.4,0.4,4.8,0.4,7.4c0,1.6,0,4.5-0.3,8c0.1,1,0.1,2,0.1,3.1
		c0,0.8-0.1,1.5-0.3,2.3c-0.7,2-0.7,3.8-1.9,5.3c-1.2,1.5-2.3,2.2-4.3,3c-0.7,0-2.5,0.4-4.1,0.4c-0.9,0-2,0-3.4-0.3
		C273.5,83.3,272.8,83.1,272.2,82.6z M281.6,42.7c-0.3-0.8-0.4-1.1-0.4-1.9c0-0.8,0.1-1.6,0.7-2c0.7-0.4,2.1-0.6,4.3-0.6
		c1.2,0,2.1,0.6,2.2,3.3l-0.2,1.6c0,2-1.7,2-3,2c-0.5,0-1.2,0-1.6,0c-0.6,0-1-0.2-1.3-0.4c-0.4,0-0.7-0.3-0.7-0.8
		C281.5,43.8,281.5,42.7,281.6,42.7z M284,53.3c0,1.3,0.1,2.6,0.1,3.8c0,2,0,4,0,5.1l0.7-2.1c0-0.3,0.2-2.1,0.2-3.6
		c0-0.9,0-3.1-0.3-4.8C284.5,52.1,284,52.9,284,53.3z M284.3,66c0.2,0,0.4-0.2,0.4-0.5l-0.4-2c-0.2,0-0.2,0.4-0.2,1
		C284,65.1,284.1,66,284.3,66z"/>
	<path class="st1" d="M301.2,71.9c-0.7,0-1.4-0.3-2.1-0.4c-1.4-0.2-2.8-1-3.6-1.8c-0.7-0.7-1.5-1.1-1.8-2c-0.5-1.2-1-2.4-1-3.6
		c0-1.3,0-2.4,0-3.6c0-0.9,0.2-1.7,0.2-2.6c0-1.1-0.3-1.9-0.5-3c0.1-0.3,0.3-0.6,0.4-0.9c0.3-0.7,0.4-1.5,0.7-2.1
		c0.5-1.2,2.2-3.1,3-3.1c0.7,0,1.4,0,2-0.2c1.2-0.5,2.5-0.9,3.9-0.9c1,0,3,0.6,4.2,1.3c1.9,1,2.9,3,2.9,4.9c0,0.8-0.1,1.5-0.1,2.3
		c-0.1,1.5-0.2,2.7-1.7,3.7c-1,0.6-2.2,0.7-3.4,0.8c-1.7,0-3.5-0.1-5.2-0.1c0.1,0.9,0.3,1.8,0.6,2.8c0.5,1.6,3.3,2.7,5.2,2.8
		c0.9,0,1.7-0.7,2.7-0.7c1,0,1.5,1.8,1.5,2.8c0,2.5-3.8,3.6-5.6,3.6C302.9,71.8,301.8,71.9,301.2,71.9z M297,66.8
		c-0.3-0.7-1.3-1.3-1.3-2.1c0-1,0.1-1.9,0.1-2.8v-1.6c0-0.6,0-1.3,0-1.9c0-1.3,0.4-2.5,0.5-3.7c0-0.9,0.5-1.8,0.6-2.7
		c-1.3,0.7-1.6,2.3-1.6,3.6v2c0,1.7-0.2,3-0.2,3.7c0,2.1,0.1,4.8,1.9,6.3C297.1,67.3,297.1,67,297,66.8z M299.8,68.8
		c0.5,0.1,1.1,0.2,1.6,0.2c0.7,0,1.4-0.1,2-0.3c-0.6-0.3-1.2-0.4-1.7-0.4c-0.3,0-0.6,0-0.8,0C300.5,68.4,300.1,68.6,299.8,68.8z
		 M305.6,54.2c-1-1-1.6-2.3-3.2-2.3c-0.6,0-1.3,0.2-1.8,0.6c-0.8,1.2-0.6,2.9-0.7,4.4c0.8,0.2,1.7,0.2,2.5,0.2
		C304.7,57.2,304.9,56.6,305.6,54.2z"/>
	<path class="st1" d="M317.4,71.8c-1.6-0.4-4.1-0.6-4.1-2.6c0-0.7,0.6-3.1,1.7-3.5c1,0,1.8,0.5,2.8,0.5c0.4,0,1.1-0.1,1.3-0.1
		c0.6,0,1.3,0,2,0c2.4,0,3-1.2,3-2.6c0-1.5-2.2-2-4.3-2.3c-1.5-0.2-4.2-0.6-4.8-1.4c-0.8-0.8-2.2-2.3-2.2-3.2
		c0.3-2.2,0.5-4.6,1.6-6.4c0.7-1.2,4.7-2.6,6.3-2.6c0.4,0,0.9,0.1,1.4,0.3c1.6,0.2,4,0.8,5.5,1.7c1.3,0.5,1.4,2.3,1.4,3.4
		c0,0.3,0,0.5-0.1,0.7c-0.4,0.2-1.2,0.5-1.5,0.5c-0.7,0-1.2-0.4-2.1-0.4c-1.1-0.5-2.5-0.7-3.8-0.7c-0.9,0-2.2,0.4-2.2,1.4
		c-0.2,0-0.3,0.2-0.3,0.8c0,1.4,1.9,1.2,2.9,1.5c1.1,0.4,3.1,0.5,4,1.2c2.2,1.6,3.7,3.2,3.7,6.3c0,1.1-0.4,1.8-0.9,2.5
		c-0.5,0.9-1,1.8-1.5,2.7c-0.5,0.7-1.6,0.8-2.3,1.1c-1.6,0.6-3.5,0.9-5.2,1.5c-0.1,0-0.2,0-0.4,0C318.6,72.2,317.9,71.9,317.4,71.8z
		 M316.5,52.6c0.6-0.2,1.2-0.6,1.8-0.8c0.7-0.2,1.4-0.3,2.1-0.6c-0.4-0.3-0.8-0.6-1.3-0.6C317.9,50.6,316.7,51.5,316.5,52.6z
		 M316.9,69c0.3,0.1,0.6,0.4,1,0.5c0.3,0,0.6,0,0.9-0.1c1.2-0.2,2.4-0.2,3.6-0.4c0.4-0.1,1-0.5,1.3-0.8c-0.7,0-1.4,0.1-2.1,0.1
		C320.8,68.5,318.5,68.6,316.9,69z"/>
	<path class="st1" d="M351.4,57.5c0,1.2-0.1,3.9-0.1,4.4c0,1.5,0.2,3.1,0.2,4.6c0,0.9-0.3,2.6-0.3,3.5c0,0.5,0,3.7-0.3,5.9
		c-0.1,0.9-0.6,1.7-0.7,2.5c-0.1,0.7-0.7,2.1-1.1,2.6c-0.7,1.1-1.7,1.8-2.2,1.9c-0.4,0.1-1.2,0.7-2.3,0.7c-0.7,0-3,0.1-3.7,0.1
		c-1.7,0-3.5,0-4.9-0.7c-1.8-0.5-3-0.8-3-3.5c0-0.4,0.3-1.1,0.6-1.7c0.8-0.2,1.2-0.5,1.8-0.5c0.9,0,3,1,4.2,1c1.4,0,3.5-0.1,4.5-1
		c1-0.8,1.4-3.5,1.4-5.5c0-0.2,0-0.7,0-0.9c-1.3,0.9-3.9,0.8-4.2,1c-3.1,0-7.1-1-7.7-3.9c-0.2-1.1-0.9-2.1-0.9-3.2
		c0-1.4-0.3-2.8-0.4-4.2c0-1.8,0.1-3.7,0.5-5.5c0.1-0.5,0.7-1.4,0.7-2c0-0.5,0.7-2.1,1.2-3c0.9-1.4,2.4-2.1,3.9-2.1
		c1.1,0,1.7-0.2,2.4-0.2c0.6,0,1.9,0.4,2.5,0.7c0.5,0.2,1.2,1,1.6,1.5c0.3-0.5,0.5-1.3,0.9-1.9c0.5,0,1.5-0.2,2.1-0.2
		c0.6,0,1.1,0.1,1.7,0.2c1.1,0,1.5,0.9,1.5,2c0,1.5-0.1,3.7-0.1,4.4C351.3,55,351.4,56.7,351.4,57.5z M336.6,53.9
		c-1,0.5-1.6,3.1-1.6,5.1c0,1.7,0.4,4.6,0.8,4.6c0.3,0,0.3-1.5,0.3-2.2c0-0.7-0.2-1.3-0.2-3C336,57.2,336.6,55,336.6,53.9z
		 M339.2,80.4c-0.5,0-1.1,0-1.5,0c0.4,0.3,1,0.5,1.9,0.6L339.2,80.4z M345.5,57.8c-0.1-1.2-0.1-2.4-0.3-3.7c0-0.3-0.6-0.7-1.2-1
		c-0.8-0.3-2.4-0.3-2.9-0.3c-2.3,1-2.4,4-2.4,5.5v4.7c0,0.9,0,2.2,0.4,2.9c1,0.7,2.4,0.8,3.7,0.8c0.7,0,2.1-0.9,2.3-1.8
		c0.1-0.5,0.4-0.9,0.4-1.7C345.5,62,345.5,58.2,345.5,57.8z M340.6,80.9c0.7,0,1.2,0,1.3,0c1.1,0,4.1-0.8,4.2-1.8
		c-0.7,0-2.9,1.2-4.9,1.2L340.6,80.9z M348.3,59.9c0-0.8,0-3.1,0-3.8c0-1.1,0.1-1.6,0.1-2.4c0-0.6-0.3-1.7-0.6-1.7
		c-0.2,0.4-0.2,2.3-0.2,3.5c0,1.3,0.2,5.7,0.4,7.8C348.2,62.9,348.3,60.3,348.3,59.9z"/>
	<path class="st1" d="M363.8,71.9c-0.7,0-1.4-0.3-2.1-0.4c-1.4-0.2-2.8-1-3.6-1.8c-0.7-0.7-1.5-1.1-1.8-2c-0.5-1.2-1-2.4-1-3.6
		c0-1.3,0-2.4,0-3.6c0-0.9,0.2-1.7,0.2-2.6c0-1.1-0.3-1.9-0.5-3c0.1-0.3,0.3-0.6,0.4-0.9c0.3-0.7,0.4-1.5,0.7-2.1
		c0.5-1.2,2.2-3.1,3-3.1c0.7,0,1.4,0,2-0.2c1.2-0.5,2.5-0.9,3.9-0.9c1,0,3,0.6,4.2,1.3c1.9,1,2.9,3,2.9,4.9c0,0.8-0.1,1.5-0.1,2.3
		c-0.1,1.5-0.2,2.7-1.7,3.7c-1,0.6-2.2,0.7-3.4,0.8c-1.7,0-3.5-0.1-5.2-0.1c0.1,0.9,0.3,1.8,0.6,2.8c0.5,1.6,3.3,2.7,5.2,2.8
		c0.9,0,1.7-0.7,2.7-0.7c1,0,1.5,1.8,1.5,2.8c0,2.5-3.8,3.6-5.6,3.6C365.4,71.8,364.3,71.9,363.8,71.9z M359.6,66.8
		c-0.3-0.7-1.3-1.3-1.3-2.1c0-1,0.1-1.9,0.1-2.8v-1.6c0-0.6,0-1.3,0-1.9c0-1.3,0.4-2.5,0.5-3.7c0-0.9,0.5-1.8,0.6-2.7
		c-1.3,0.7-1.6,2.3-1.6,3.6v2c0,1.7-0.2,3-0.2,3.7c0,2.1,0.1,4.8,1.9,6.3C359.6,67.3,359.6,67,359.6,66.8z M362.3,68.8
		c0.5,0.1,1.1,0.2,1.6,0.2c0.7,0,1.4-0.1,2-0.3c-0.6-0.3-1.2-0.4-1.7-0.4c-0.3,0-0.6,0-0.8,0C363,68.4,362.7,68.6,362.3,68.8z
		 M368.2,54.2c-1-1-1.6-2.3-3.2-2.3c-0.6,0-1.3,0.2-1.8,0.6c-0.8,1.2-0.6,2.9-0.7,4.4c0.8,0.2,1.7,0.2,2.5,0.2
		C367.3,57.2,367.4,56.6,368.2,54.2z"/>
	<path class="st1" d="M376.2,70.1c0-0.4,0.1-0.7,0.2-1.1c0.1-1,0.2-1.8,0.2-2.8c0-0.5,0-1,0-1.5c0-0.6,0.1-1.1,0.1-1.7
		c0-0.9-0.1-1.7-0.1-2.6c0-4.3-0.3-6.9-0.3-9.5c0-1.1,0.3-3,1.6-3c0.9,0,1.7,0.3,2.7,0.3c0.6,0,1.2-0.1,1.8-0.1
		c0.8,0.5,0.8,2.4,0.8,3.8c1.3-1,1.9-2.4,2.9-2.7c0.8-0.2,1.6-0.2,2.4-0.5c0.5-0.1,0.9-0.2,1.4-0.2c1.3,0,3,0.8,4,1.7
		c1.4,1.3,1.2,2.9,1.4,4.4c0.2,1.3,0.3,3.6,0.3,5.1c0,1.9,0.2,2.7,0.2,3.5c0,0.9-0.1,1.8-0.1,2.7c0,1.6,1,3,1,4.4
		c0,1.5-1.9,1.4-3,1.5c-1.3-0.2-4.7-1.5-4.7-3.5c0-0.1,0-0.3,0.1-0.5c0.6-2.4,0.1-4.9,0.6-7.3c0-2.9-0.4-5.9-1.6-5.9
		c-0.1,0-0.2,0-0.4,0c-2.1,0.5-2.7,1.6-3.9,2.8c-0.8,0.8-1.3,1.9-1.3,3c0,1.6,0.6,4.1,0.6,6.1c0,1.7,0.8,2.2,1.1,3.3
		c-0.6,1.7-3,1.8-4.7,1.8C378.1,71.8,376.2,71.6,376.2,70.1z M379.9,51.2c-0.3,0.4-0.5,0.9-0.5,1.4c0,1.4-0.5,2.7-0.5,4.1
		c0,1.1,0.2,2.3,0.2,3.4c0,0.5,0.1,1.1,0.4,1.6c0.1-0.5,0.1-1.1,0.1-2.7c0-2.3,0.2-4.6,0.5-6.9L379.9,51.2z M379.4,62.7
		c0,0.4,0.1,0.8,0.2,1.2c0-0.3,0.1-0.6,0.1-0.9c0-0.4,0-0.8-0.2-1.2C379.5,62.1,379.4,62.4,379.4,62.7z M392.7,68.4
		c0.3-0.7,0.3-1.4,0.3-2.2c0-0.8,0-1.5-0.2-2.3c0-0.3,0-0.5,0-0.8c0-0.6,0-1.2,0-1.7c0-0.2,0-0.5,0-0.8c-0.5,1.3-0.5,2.8-0.5,4.1
		c0,0.4,0,0.9,0,1.4c0,0.5,0,1.1,0.2,1.6L392.7,68.4z"/>
	<path class="st1" d="M408.6,71.9c-1.3,0-1.8-0.3-2.5-0.4c-1.4-0.2-2.4-1.2-3.4-1.8c-1.7-1-2.2-2.7-2.3-5.7
		c-0.1-1.3-0.1-2.4-0.1-3.6c0-0.9,0.2-1.7,0.2-2.6c0-2.6,0.4-4.8,0.6-5.7c0.4-1.5,1.6-2.8,1.9-2.9c0.6-0.2,1-0.7,1.7-1
		c1.2-0.5,4-0.6,5.4-0.6c1,0,3.1,0.4,4.3,1c2,0.9,2.8,2.6,2.8,4.7c0,0.8-0.2,2-0.2,2.8c-0.1,1.5-0.2,3-1.5,4c-0.6,0-1.5,0.7-3.6,0.7
		c-1.7,0-3.6-0.1-5.3-0.1c0,0.9,0,2.1,0.3,3.1c0.5,1.6,2.6,2.3,4.7,2.3c1.4-0.3,1.8-1.1,3.1-1.1c0.4,0,0.7,0.5,1.2,0.5
		c0.6,0,0.7,0.9,0.7,1.2c0,0.3,0.2,0.8,0.2,1.2c0,1.9-3.8,3.9-5.5,3.9C410.8,71.8,409.7,71.9,408.6,71.9z M403.7,62.8
		c0-0.7-0.1-2.7-0.1-3.5c0-1.3,0.6-3.4,0.7-4.6c0-0.7,0.3-1.8,0.5-2.2c0.2-0.3,0.5-0.6,0.6-0.9c0-0.2,0-0.5,0-0.8
		c-0.6,0.5-1,1.5-1.3,2.2c-0.6,0.6-1.1,3.3-1.1,4.3c0,1.7-0.1,3.3-0.1,4c0,1.1,0,2.6,0.3,3.7L403.7,62.8z M412.7,55.9
		c0-0.3,0.2-1.2,0.2-1.9c0-0.3-0.3-1.3-0.8-1.5c-0.2-0.6-1.2-0.8-1.9-0.8c-1.5,0-2,0.7-2.6,1.1c-0.8,1.2-0.7,2.7-0.7,3.9
		c0.8,0.2,2.4,0.2,3.2,0.2C411.9,56.9,412.7,56.6,412.7,55.9z M407.8,68.5c0.5,0.1,1.3,0.6,1.8,0.6c1.1,0,2.6-0.6,3-1
		c-1.2,0.3-2.2,0.5-2.8,0.5c-1,0-2-0.4-2.3-0.5L407.8,68.5z"/>
	<path class="st1" d="M424,71.8c-1.1-0.5-2.6-0.5-2.6-2c0-0.4,0.1-0.7,0.2-1.1c0.2-2.5,0.3-4.8,0.3-7.3v-1.3c0-1.2,0.3-2.3,0.3-3.4
		c0-1.1-0.1-2.1-0.1-3.2c0-2.9,0-3.8,0.4-5.7c0.9,0,1.6,0.3,2.4,0.3c0.7,0,1.4-0.2,2-0.2c1.2,0,1.7,0.7,1.7,1.6
		c0,1.3-0.7,2.4-0.7,3.7c1-0.6,1.8-1.3,2.5-2.1c1.7-1.9,3.6-2.6,5.2-3.3c0.4-0.2,1.4-0.3,1.8-0.3c0.9,0,1.1,0.6,1.4,1.1
		c0.3,0.6,0.4,1.2,0.4,1.8c0,1.1-0.5,2.5-1.4,2.8c-1.2,0.3-2.4,0.3-3.5,0.7c-0.8,0.2-1.5,0.9-2,1.5c-0.9,0.7-1.7,2-2.3,3
		c-0.8,1.4-2.3,3.3-2.3,4.6c0,0.6,0.2,1.3,0.2,2.1c0.1,1.8,1.1,4.5,1.1,5.6c0,1.1-2.9,1.6-3.4,1.6C425.1,72.2,424.6,71.9,424,71.8z
		 M425.2,67.5c0-0.9-0.6-1.7-0.6-2.7c0-0.6,0-1.3,0-3.4c0-0.8,0.1-1.5,0.1-2.3c0-0.5,0-1.2-0.4-1.4c-0.2,0.4-0.5,0.8-0.6,1.3
		c0,0.7,0.1,1.4,0.1,2.1c0,0.8-0.1,1.6-0.1,2.7c0,1,0,2,0,3c0,0.8,0.2,1.9,1.1,2.3C424.9,68.5,425.2,68.1,425.2,67.5z M424,56.1
		c0,0.5,0.1,1.1,0.3,1.5c0.2-0.7,0.3-1.5,0.3-2.3v-1.3c0-0.7,0-1.5,0-2.2c0-0.3,0-0.7,0-1.1c-0.3,0.6-0.4,1.3-0.4,1.9v1.1
		c0,0.3,0,0.7,0,1C424.1,55.3,424,55.7,424,56.1z"/>
	<path class="st1" d="M459.9,70c0,1.3-1.5,1.7-2.5,1.9c-0.7,0.1-1.6,0.7-1.9,0.7c-1.2,0-1.6-1.1-1.7-2.1c-0.7,0.1-1.4,0-2,0.3
		c-1.3,0.5-2.6,1-4.1,1c-2.9,0-7.1-1.9-7.1-6.3c0-1.5,0.1-2.7,0.1-3.3c0-0.9,0-2.6,0.4-3.5c0.9-2,3.8-2.2,6.5-2.2c1.2,0,2.3,0,3.3,0
		c-0.2-1.7-1.2-4.1-3.3-4.1c-0.8,0-1.8,0.2-2.6,0.2c-1,0.1-2,0.8-2.8,0.8c-0.5,0-1.5-1.2-1.5-1.7c0-2.4,3.5-3.8,5.6-3.8
		c0.4,0,1.7-0.1,2.4-0.2c1.3,0.1,4.3,0.6,5.7,2c0.6,0.6,1.5,1.2,1.8,2c0.6,1.2,1.2,2.5,1.2,4.1c0,2.4-0.2,4.4-0.2,5.5
		c0,0.8,0.1,1.6,0.4,2.5c0.4,1.2,0.9,2.5,2,5.1C459.8,69.2,459.9,69.6,459.9,70z M450.8,61.8v-1.2c-0.6-0.1-1.3-0.1-1.9-0.1
		c-1.8,0-2.7,0-3.1,0.9c-0.3,0.6-0.4,1.7-0.6,3.5c0.8,1.8,2.1,2.1,3.1,2.1c0.7,0,1.4-0.2,1.9-0.6C450.8,65.5,450.8,63.4,450.8,61.8z
		 M454.2,54.5c0,0.6,0,1.1,0,2.1c0,1.5,0.1,3.1,0.1,4.6c0,1.1-0.3,2.2-0.3,3.5c0,0.9-0.4,1.7-0.5,2.7c1.2-0.8,1.5-2,1.5-3.3
		c0-1.4,0-2.3,0-3.3c0-0.8,0.1-1.6,0.1-2.4c0-2.2-0.1-4.9-2.1-6.5C452.9,53.2,453.8,53.3,454.2,54.5z"/>
	<path class="st1" d="M471,71.6c-2.3-0.4-4.7-1.7-5.1-4.3c-0.1-1.2-0.6-1.8-0.6-3.1c0-1-0.1-2.2-0.1-3.3c0-2.1,0.1-5.1,0.1-7.2
		c-2.3,0-3.9-0.1-5-0.9c-0.2-0.1-0.7-0.5-0.7-1.8c0-0.5,0.3-1.1,0.3-1.5c0-1,0.8-1.3,1.5-1.3c2.1,0,2.7-0.1,3.9-0.1
		c0-0.8,0-2.7,0-3.9c0-0.5,0-0.9,0-1.4c0-1.7,0.1-3.7,0.5-5.2c0.1-0.6,0.2-0.3,0.4-0.9c0-0.8,1.7-1.5,3.1-1.5c1,0,2.7,0.8,2.7,1.9
		c0,1.3-0.2,3-0.2,4.6c-0.2,0.7-0.3,3.6-0.3,4.4c0,0.8,0.2,1.3,0.2,2.1c0.8,0,1.7,0,2.5,0c2.2,0,3.7,0,4.2,0.2
		c0.8,0.3,1.7,1.3,1.7,2.5c0,1.4-1,2.8-2.8,2.8h-4.2c-0.8,0-1,0-1.4,0.7c-0.2,0.9-0.3,3.7-0.3,4.2c0,1.6,0.3,2.7,0.3,4.3
		c0,1.4,0.7,2.8,1.4,3.1c0.9,0,2-0.1,3.3-0.1c0.5,0,1.1,0.1,1.7,0.2c0.7,0.5,1,1.3,1,2c0,2.7-2.5,3-4.6,3.3
		C473.8,71.6,471.5,71.6,471,71.6z M468.8,63.8c0-0.8-0.1-1.6-0.1-2.2c0-1-0.1-1.9-0.1-3.4c0-1.2,0.1-3.2,0.1-4.5l-0.7,0
		c-0.3,2-0.3,4.7-0.3,6.8c0,1.3,0.3,1.6,0.3,2.9c0,0.5,0.9,2.8,1.3,2.8C468.9,65.3,468.8,64.6,468.8,63.8z M468.1,48.2
		c0.6,0,0.5-0.2,0.6-1c0-2.9,0.1-6.4,0.1-8.5c0-0.3-0.1-0.6-0.2-1c-0.6,1.5-0.6,3.1-0.6,4.7C468.1,44.5,468.1,46.2,468.1,48.2z"/>
	<path class="st1" d="M484.5,69.6c-0.6-0.4-0.8-1.1-1.2-1.6c-0.4-0.7-0.9-1.3-1-2.1c0-1-0.3-2.1-0.3-3.1c0-0.7,0.2-1.4,0.2-2
		c0-0.5-0.1-1.1-0.1-1.7c0.1-2.7,0.9-5.9,2.4-8.4c0.3-0.4,0.8-0.6,1.3-0.9c0.8-0.5,1.6-1.2,2.6-1.5c1-0.2,2.2-0.3,3.1-0.3
		c3.6,0,8,1.1,9.6,4.8c0.8,2.3,1.5,4.6,1.5,6.8c0,1.5-0.1,3-0.3,4.4c-0.3,1.8-0.1,3.5-1,5.1c-1.1,2.2-2.1,3-5.9,3
		C491.9,72,487.7,72,484.5,69.6z M487.8,68c-0.3-1.2-1.5-2.1-1.5-3.4c0-2.7,0.2-5.3,0.5-7.9c0.1-0.9,0.1-1.8,0.4-2.7l0.7-1.5
		c-0.5,0.1-1.4,0.5-1.6,1c-1,2.1-1.5,4.1-1.5,6.5v1.3c0,1.3,0,2.5,0.2,3.7c0.2,1.2,1.3,3.2,2.3,3.2C487.6,68.1,487.7,68,487.8,68z
		 M494.5,67.7c1.4-1.1,2.2-2.5,2.5-4.2c0-1-0.2-1.6-0.2-2.2s0.3-1.7,0.3-2.8c0-0.7-0.1-1.4-0.4-1.9c-0.7-1.3-1-2.9-3.3-2.9
		c-0.6,0-1.2,0.1-1.7,0.1c-0.3,0-0.6,0-0.8-0.1c-0.3,0.3-0.6,0.7-0.8,1.3c-1,3-1.2,6-1.2,9.2c0,0.2,0,0.5,0.2,0.7
		c0.6,0.8,2.9,2.4,3.6,2.4C493.4,67.2,494,67.5,494.5,67.7z"/>
	<path class="st1" d="M509.5,71.8c-1.1-0.5-2.6-0.5-2.6-2c0-0.4,0.1-0.7,0.2-1.1c0.2-2.5,0.3-4.8,0.3-7.3v-1.3
		c0-1.2,0.3-2.3,0.3-3.4c0-1.1-0.1-2.1-0.1-3.2c0-2.9,0-3.8,0.4-5.7c0.9,0,1.6,0.3,2.4,0.3c0.7,0,1.4-0.2,2-0.2
		c1.2,0,1.7,0.7,1.7,1.6c0,1.3-0.7,2.4-0.7,3.7c1-0.6,1.8-1.3,2.5-2.1c1.7-1.9,3.6-2.6,5.2-3.3c0.4-0.2,1.4-0.3,1.8-0.3
		c0.9,0,1.1,0.6,1.4,1.1c0.3,0.6,0.4,1.2,0.4,1.8c0,1.1-0.5,2.5-1.4,2.8c-1.2,0.3-2.4,0.3-3.5,0.7c-0.8,0.2-1.5,0.9-2,1.5
		c-0.9,0.7-1.7,2-2.3,3c-0.8,1.4-2.3,3.3-2.3,4.6c0,0.6,0.2,1.3,0.2,2.1c0.1,1.8,1.1,4.5,1.1,5.6c0,1.1-2.9,1.6-3.4,1.6
		C510.6,72.2,510,71.9,509.5,71.8z M510.7,67.5c0-0.9-0.6-1.7-0.6-2.7c0-0.6,0-1.3,0-3.4c0-0.8,0.1-1.5,0.1-2.3c0-0.5,0-1.2-0.4-1.4
		c-0.2,0.4-0.5,0.8-0.6,1.3c0,0.7,0.1,1.4,0.1,2.1c0,0.8-0.1,1.6-0.1,2.7c0,1,0,2,0,3c0,0.8,0.2,1.9,1.1,2.3
		C510.4,68.5,510.7,68.1,510.7,67.5z M509.5,56.1c0,0.5,0.1,1.1,0.3,1.5c0.2-0.7,0.3-1.5,0.3-2.3v-1.3c0-0.7,0-1.5,0-2.2
		c0-0.3,0-0.7,0-1.1c-0.3,0.6-0.4,1.3-0.4,1.9v1.1c0,0.3,0,0.7,0,1C509.6,55.3,509.5,55.7,509.5,56.1z"/>
</g>
</svg>
