<?xml version="1.0" encoding="utf-8"?>
<!-- Generator: Adobe Illustrator 24.1.2, SVG Export Plug-In . SVG Version: 6.00 Build 0)  -->
<svg version="1.1" id="Laag_1" xmlns="http://www.w3.org/2000/svg" xmlns:xlink="http://www.w3.org/1999/xlink" x="0px" y="0px"
	 viewBox="0 0 762.3 100.2" style="enable-background:new 0 0 762.3 100.2;" xml:space="preserve">
<style type="text/css">
	.st0{clip-path:url(#SVGID_2_);fill:#CD1334;}
	.st1{fill:#FFFFFF;}
</style>
<g>
	<defs>
		<rect id="SVGID_1_" x="-28.5" y="-8.6" width="823.4" height="109.9"/>
	</defs>
	<clipPath id="SVGID_2_">
		<use xlink:href="#SVGID_1_"  style="overflow:visible;"/>
	</clipPath>
	<path class="st0" d="M156.7,14.1c68.7-6.4,152.6,1.9,222-3.9c83.2-7.8,173.4-7.8,256.6-7.8c0,3.9-6.9,9.7,0,11.6
		C663,19.9,663,27.7,663,35.5c0,3.9-20.8,0-13.9,3.9c-20.8,0-55.5,1.9-34.7,5.8c6.9,3.9,34.7,0,41.6,5.8c6.9,5.8-6.9,11.6,0,17.5
		h27.8c6.9,3.9-6.9,11.6,0,11.6c20.8,3.9,48.6,1.9,76.3,1.9c0,3.9,7,7.8-6.9,9.7C510.4,95.6,260.7,103.4,18,97.5
		C-9.8,95.6,11,87.8,31.8,82c-6.9,1.9-6.9-3.9-13.9-1.9c0-5.8,13.9-15.5,41.6-17.5H38.8c-6.9-1.9,0-5.8,0-9.7c6.9,0,13.9,0,13.9-1.9
		v-7.8H24.9c6.9,0,13.9,0,13.9-1.9v-7.8c13.9-1.9,34.7,1.9,48.6,0v-5.8c-13.9-1.9-34.7,0-48.6,0c6.9-1.9,6.9-3.9,6.9-7.8
		c20.8-1.9,41.6,3.9,62.4-1.9H87.3C101.2,8.3,135.9,16.1,156.7,14.1"/>
</g>
<g>
	<path class="st1" d="M201.4,71c-2.4,0-2.4-1.2-3.1-2.5c-0.2-0.4-0.5-0.7-0.5-1.3c0-1.7,0-3.1-0.4-4.4c0.2-0.6,0.3-1.2,0.3-1.8
		c0-1.4-0.3-2.8-0.3-5.4c0-1.5-0.2-3.1-0.2-4.7c0-2.6-0.2-4.4-0.3-6.2c-0.7,1-1.5,2-1.7,3.2c-0.5,1.6-0.8,3.3-1.5,4.8
		c-0.3,0.6-0.4,1.2-0.5,1.8c-0.1,0.9-0.8,1.6-1,2.5c-0.8,2.7-1.5,5.4-2.1,8.1c-0.2,0.8-0.9,1.2-1.5,1.5c-1,0.5-0.9,2-1.9,2.4
		c-2.9-1.8-1.7-3.4-2.8-4.9c-1.2-1.6-1.8-3.5-3.1-5c-0.6-0.7-0.8-1.7-1.1-2.6c-0.9-1.9-1.5-3.8-2.1-5.7c-0.3-1-0.9-1.7-1.4-2.6
		c-0.1,1-0.3,1.9-0.3,2.9c0,0.7,0,1.4,0,2.1c0,0.8-0.1,1.6-0.1,2.5c0,0.7,0.2,1.5,0.2,2.3c0,0.5,0,1.1,0,1.6c0,1,0.1,1.9,0.1,2.9
		c0,0.7-0.1,1.3-0.1,2c0,1.2,0.3,2.5,0.3,3.7c0,0.7-0.1,1.4-0.2,2c-0.7,0.3-1.2,0.5-1.9,0.5c-0.9,0-1.6,0.7-2.4,0.7
		c-2.3,0-2.6-2.7-2.6-3.6c0-1.3,0.2-2.5,0.2-5.5c0-1.1,0.2-2.1,0.2-3.2c0-2.2-0.3-4.5-0.5-6.7c0.1-1.7,0-3.4,0.1-5.1
		c0-0.6,0-1.2,0-1.7c0-1.2,0-2.4,0-3.5c0-0.4,0-0.9,0-1.3c0-0.5,0-0.9,0-1.4c0-1-0.4-1.9-0.4-2.9c0.4-0.3,0.9-0.7,1.5-0.7
		c0.1,0,0.2,0,0.4,0c1.1,1.3,1.4,1.5,1.4,4c0,1.3-0.1,2.5-0.2,3.8c0,3-0.2,4.9-0.2,6.9c0,2.8,0.6,5.9,0.6,8.9c0,1-0.1,1.9-0.1,2.9
		c0,3.4,0,3.9,0,4.4h0.9c0.1-1.4,0.4-2.8,0.4-4.2c0-0.5-0.1-1.1-0.1-1.6c0-0.7,0.2-1.3,0.2-3.1c0-0.3,0-0.7,0.1-1.1
		c0.3-1.6,0.1-3.4,0.3-5c0-0.4,0-0.7,0-1.1c0-1-0.1-2-0.1-3c0-0.8-0.3-1.5-0.3-2.2c0-0.5,0-1.1,0-1.6c0-3.1-0.8-3.3-1-5.1
		c-0.1-1-0.9-1.7-1-2.7l0.9-1c0.9,0,2.8,0,3.1,0c0.4,0.5,0.8,1.2,0.8,1.8c0,0.4-0.1,0.8-0.2,1.2c1,1.2,1.6,2.7,2.3,4
		c1.1,2.2,2.4,4.2,3.6,6.4c0.7,1.4,1.1,2.9,1.8,4.3c0.5,1,1.5,3.7,2.2,4.4h0.4c0.4-1.5,1.2-3,1.6-4.6c0.3-1.3,0.6-2.4,1.1-3.7
		c0.5-1.4,0.8-2.8,1.5-4c0.7-1.3,1-2.8,1.5-4.1c0,0,0-0.1,0-0.2c0.4-1.2,1.5-3.3,2.5-3.3c0.5,0,1,0.1,1.4,0.3
		c0.2-0.6,0.2-1.2,0.2-2.4c0.7-0.1,1.4-0.3,2.1-0.4l0.5,0.7c1.4-0.3,3-0.1,4.4-0.2c0.7,1,1.1,1.9,1.1,3.2c0,2.3-0.3,4.6-0.3,7.4
		c-0.1,1.3-0.2,2.6-0.2,3.7c0,3.7,0.4,5.6,0.4,8.1c0,0.4-0.1,0.9-0.1,2.3c0,0.6-0.2,1.3-0.2,1.9c0,0.9,0.2,1.9,0.2,2.8
		c0.1,1.4,0,2.9,0.7,4.2c0.4,1,0.7,2,0.8,3c-0.6,0.3-1.3,0.7-2,0.7C202.7,72.3,202,71.6,201.4,71z M189.7,55.4h-0.2l0,0.1l0.1,0.2
		l0.2-0.1L189.7,55.4z M190,54.1c0.4-0.8,0.9-1.5,1.2-2.3c0.3-1.1,0.7-2.1,0.8-3.2c-0.4,0.4-0.8,0.8-0.9,1.4
		c-0.3,1.3-1.2,2.4-1.2,3.8C190,53.8,190,54,190,54.1z M192.6,46.7c-0.3,0.4-0.5,0.9-0.5,1.4c0,0.1,0,0.3,0,0.4
		C192.3,48,192.5,47.3,192.6,46.7z M193,46.2c0-0.1-0.1-0.2-0.2-0.3c-0.1,0.1-0.2,0.2-0.2,0.2c0,0.1,0.1,0.2,0.2,0.2
		C192.9,46.4,193,46.3,193,46.2z M193.3,45.4c0-0.1-0.1-0.3-0.2-0.3c-0.1,0-0.2,0.1-0.2,0.3c0,0.1,0.1,0.2,0.2,0.2
		c0.1,0,0.1,0,0.2-0.1S193.3,45.4,193.3,45.4z M193.8,43.8c0.2,0,0.5-0.4,0.5-0.6c0-0.1,0-0.1-0.2-0.1c-0.2,0-0.5,0.3-0.5,0.6
		C193.7,43.8,193.7,43.8,193.8,43.8z M194.9,41.5v-0.3c-0.2,0.6-0.4,1.2-0.4,1.8C194.7,42.6,194.9,42.1,194.9,41.5z M201,63.2
		c0-1.1,0-1.5,0-2.1c0-0.7-0.4-1.4-0.4-2.1c-0.1-1,0-1.9-0.2-3c-0.1-0.8-0.2-1.6-0.2-2.5c0-0.5,0.1-0.9,0.1-1.4
		c0-0.6-0.2-1.2-0.5-1.7c0,0.2,0,0.4,0,0.6c0,1.2,0.2,2.4,0.3,3.5c0,0.4-0.2,0.9-0.4,1.3c0.1,0.4,0.3,0.9,0.4,1.4
		C200.1,59.2,200,62.1,201,63.2z M199.7,38.9c0,0.1,0,0.2,0.2,0.2c0.2,0,0.3-0.3,0.3-0.5c0-0.1,0-0.2-0.3-0.2
		C199.7,38.5,199.7,38.7,199.7,38.9z M201.3,65.5c0-0.7-0.2-1.3-0.2-1.9c-0.3,0.6-0.5,1.2-0.5,1.8c0,0.1,0,0.3,0,0.4
		C200.9,65.8,201.1,65.6,201.3,65.5z"/>
	<path class="st1" d="M224.1,47.5c1,0.2,2.1,0.8,2.9,1.3c0.5,0.3,1,0.5,1.3,0.9c1.5,2.6,2,5.9,2.1,8.6c0,0.6-0.1,1.2-0.1,1.7
		c0,0.7,0.2,1.4,0.2,2c0,1-0.2,2.1-0.3,3.1c0,0.8-0.9,1.6-0.9,2.4c0,1-1.1,2-1.8,2.5c-1.6,1-4.7,1.5-7,1.5c-3.4,0-7.4-0.5-8.9-3.3
		c-0.8-2.3-1.4-5.8-1.4-8c0-1.5,0.1-3,0.3-4.4c0.3-1.8,1.2-4.3,1.2-5.1c0-1.1,2.8-3.5,5.5-3.5c1,0,2-0.1,3.7-0.1
		C221.9,47.1,223,47.2,224.1,47.5z M214.1,55.3l0.5-1.2c0-1,0.5-2,1.3-3c-0.5,0.1-1.6,0.6-1.6,1c0,1.6-1,2.3-1,5.6
		C213.7,57.9,214,56.1,214.1,55.3z M220.7,67.1c1.6,0,2.4-0.6,3-1.2c0.4-0.4,0.4-1.2,0.4-2.1c0.2-0.5,0.2-1.8,0.3-2.4
		c0.1-0.9,0.1-1.7,0.1-2.6c0-1.2-0.3-2.5-0.3-4.2c0-1.4-0.6-2.2-2.4-2.2c-1.1,0-2.1-0.2-3.2-0.2c-1.3,0.4-2.2,3.1-2.2,4.4
		c0,1,0,1.6,0,2.2c0,0.6-0.2,1.2-0.2,2.3c0,0.7,0.1,1.6,0.2,2.2c0.3,1.2,0,2.5,1.1,2.9c0.2,0.4,0.9,0.9,2.2,0.9
		C220,66.9,220.5,67,220.7,67.1z M227.2,57.6c-0.3,0.3-0.5,1.4-0.5,2.5c0.1,0.1,0.2,0.4,0.2,0.7c0,2.2-0.5,3-0.5,4.1
		c0,1.3-0.7,2.4-1.6,3.4c0.1,0,0.2,0.1,0.3,0.1c0.6,0,2-2.3,2-3.2c0.2-0.6,0.6-2,0.6-3.1C227.6,60.9,227.4,58.2,227.2,57.6z"/>
	<path class="st1" d="M238.6,83.1c-1,0-2,0-2.8-0.7c-0.7-0.6-0.9-1.8-0.9-2.7c0-0.8,0.4-1.5,0.4-2.3c0-0.8-0.2-1.6-0.2-2.5
		c0-1.1,0.1-2,0.1-3c0-1.6-0.1-3.1-0.1-5c0-1.5,0.5-3,0.5-4.6c0-1.1-0.1-2.3-0.1-3.8c0-1.5-0.3-3-0.3-4.4c0-0.5,0.1-1.1,0.1-1.6
		c0-1.7-0.6-3.2-0.6-4.8c0.1-0.6,0.8-0.9,1.5-0.9c0.7,0,1.5,0.3,2.4,0.3c0.6,0,1.4,0,2,0.3c0.6,0.4,1.1,1,1.5,1.5
		c1.2-1.1,2.2-1.7,4.3-1.7c1.3,0,3.6,0.4,5.2,1.5c1.1,0.8,2,1.6,2.6,2.9c0.5,1.4,0.4,3.8,0.7,5.2c0,0.3,0.1,0.7,0.1,1
		c0,1.5-0.5,2.9-1.3,6.2c-0.8,3.5-4.6,4.1-7.2,4.1c-1.6,0-2.8-0.3-4.9-0.3c-0.1,0.8-0.2,1.6-0.2,2.2c0,1.3,0.1,2,0.1,2.8
		c0,0.4,0,0.9,0,1.5c0,2.1,0.5,4.2,1,6.2c0,0.4,0.2,1.1,0.2,1.5c0,0.6-0.5,1.4-1.2,1.4C240.5,83.1,239.5,83.1,238.6,83.1z
		 M239.7,79.7c-0.5-1.4-0.8-3.5-0.8-4.7c0-0.7,0.1-1.4,0.1-2.1c0-0.8-0.1-1.8-0.1-2.3c0-0.5,0.1-1.7,0.1-2.8c0-0.7-0.1-1.3-0.5-1.9
		c-0.4,0.8-0.4,1.7-0.4,2.7v1.1c0,0.7,0,1.4,0,1.9c0,0.6,0.1,1.2,0.1,3.3c0,1,0.1,2,0.2,3c0.1,0.8,0.5,1.4,0.8,2.1L239.7,79.7z
		 M238.3,63.4c0.6-0.9,0.8-2.3,0.8-3.3c0-0.8-0.2-1.5-0.4-2.3c-0.2,0.7-0.3,1.4-0.3,2C238.4,61.2,238.3,62.1,238.3,63.4z
		 M247.6,62.2c0.5-0.5,0.8-1.5,1-2.3c0.2-0.9,0.3-1.7,0.3-2.6c0-0.4,0-1.3-0.1-1.7c-0.5-1.8-2.3-2.8-3.9-2.8c-0.8,0-2.9,0.6-2.9,1.7
		c-0.3,2.1-0.3,4.3-0.3,6.4c0,1.3,1.4,2,2.6,2C245.2,62.9,246.6,62.8,247.6,62.2z M251.8,54.9c-0.3-0.8-0.6-1.5-1.1-2.3
		c-0.3-0.5-1.6-1.6-2.2-1.6c0.6,0.9,1.3,1.8,2,2.7C250.8,54.1,251.3,54.5,251.8,54.9z M252.3,58c0-1-0.1-1.9-0.3-2.8
		c-0.3,2.4-0.7,5-0.8,7.4c0.3-1,0.7-2.1,1-3.1C252.2,59,252.3,58.5,252.3,58z"/>
	<path class="st1" d="M262.9,83.1c-1,0-2,0-2.8-0.7c-0.7-0.6-0.9-1.8-0.9-2.7c0-0.8,0.4-1.5,0.4-2.3c0-0.8-0.2-1.6-0.2-2.5
		c0-1.1,0.1-2,0.1-3c0-1.6-0.1-3.1-0.1-5c0-1.5,0.5-3,0.5-4.6c0-1.1-0.1-2.3-0.1-3.8c0-1.5-0.3-3-0.3-4.4c0-0.5,0.1-1.1,0.1-1.6
		c0-1.7-0.6-3.2-0.6-4.8c0.1-0.6,0.8-0.9,1.5-0.9c0.7,0,1.5,0.3,2.4,0.3c0.6,0,1.4,0,2,0.3c0.6,0.4,1.1,1,1.5,1.5
		c1.2-1.1,2.2-1.7,4.3-1.7c1.3,0,3.6,0.4,5.2,1.5c1.1,0.8,2,1.6,2.6,2.9c0.5,1.4,0.4,3.8,0.7,5.2c0,0.3,0.1,0.7,0.1,1
		c0,1.5-0.5,2.9-1.3,6.2c-0.8,3.5-4.6,4.1-7.2,4.1c-1.6,0-2.8-0.3-4.9-0.3c-0.1,0.8-0.2,1.6-0.2,2.2c0,1.3,0.1,2,0.1,2.8
		c0,0.4,0,0.9,0,1.5c0,2.1,0.5,4.2,1,6.2c0,0.4,0.2,1.1,0.2,1.5c0,0.6-0.5,1.4-1.2,1.4C264.8,83.1,263.9,83.1,262.9,83.1z
		 M264.1,79.7c-0.5-1.4-0.8-3.5-0.8-4.7c0-0.7,0.1-1.4,0.1-2.1c0-0.8-0.1-1.8-0.1-2.3c0-0.5,0.1-1.7,0.1-2.8c0-0.7-0.1-1.3-0.5-1.9
		c-0.4,0.8-0.4,1.7-0.4,2.7v1.1c0,0.7,0,1.4,0,1.9c0,0.6,0.1,1.2,0.1,3.3c0,1,0.1,2,0.2,3c0.1,0.8,0.5,1.4,0.8,2.1L264.1,79.7z
		 M262.7,63.4c0.6-0.9,0.8-2.3,0.8-3.3c0-0.8-0.2-1.5-0.4-2.3c-0.2,0.7-0.3,1.4-0.3,2C262.8,61.2,262.7,62.1,262.7,63.4z
		 M271.9,62.2c0.5-0.5,0.8-1.5,1-2.3c0.2-0.9,0.3-1.7,0.3-2.6c0-0.4,0-1.3-0.1-1.7c-0.5-1.8-2.3-2.8-3.9-2.8c-0.8,0-2.9,0.6-2.9,1.7
		c-0.3,2.1-0.3,4.3-0.3,6.4c0,1.3,1.4,2,2.6,2C269.5,62.9,271,62.8,271.9,62.2z M276.2,54.9c-0.3-0.8-0.6-1.5-1.1-2.3
		c-0.3-0.5-1.6-1.6-2.2-1.6c0.6,0.9,1.3,1.8,2,2.7C275.2,54.1,275.6,54.5,276.2,54.9z M276.6,58c0-1-0.1-1.9-0.3-2.8
		c-0.3,2.4-0.7,5-0.8,7.4c0.3-1,0.7-2.1,1-3.1C276.6,59,276.6,58.5,276.6,58z"/>
	<path class="st1" d="M290.7,71.2c-1.3,0-1.8-0.3-2.5-0.4c-1.4-0.2-2.4-1.2-3.4-1.8c-1.7-1-2.2-2.7-2.3-5.7
		c-0.1-1.3-0.1-2.4-0.1-3.6c0-0.9,0.2-1.7,0.2-2.6c0-2.6,0.4-4.8,0.6-5.7c0.4-1.5,1.6-2.8,1.9-2.9c0.6-0.2,1-0.7,1.7-1
		c1.2-0.5,4-0.6,5.4-0.6c1,0,3.1,0.4,4.3,1c2,0.9,2.8,2.6,2.8,4.7c0,0.8-0.2,2-0.2,2.8c-0.1,1.5-0.2,3-1.5,4c-0.6,0-1.5,0.7-3.6,0.7
		c-1.7,0-3.6-0.1-5.3-0.1c0,0.9,0,2.1,0.3,3.1c0.5,1.6,2.6,2.3,4.7,2.3c1.4-0.3,1.8-1.1,3.1-1.1c0.4,0,0.7,0.5,1.2,0.5
		c0.6,0,0.7,0.9,0.7,1.2c0,0.3,0.2,0.8,0.2,1.2c0,1.9-3.8,3.9-5.5,3.9C292.9,71.1,291.8,71.2,290.7,71.2z M285.7,62.1
		c0-0.7-0.1-2.7-0.1-3.5c0-1.3,0.6-3.4,0.7-4.6c0-0.7,0.3-1.8,0.5-2.2c0.2-0.3,0.5-0.6,0.6-0.9c0-0.2,0-0.5,0-0.8
		c-0.6,0.5-1,1.5-1.3,2.2c-0.6,0.6-1.1,3.3-1.1,4.3c0,1.7-0.1,3.3-0.1,4c0,1.1,0,2.6,0.3,3.7L285.7,62.1z M294.8,55.2
		c0-0.3,0.2-1.2,0.2-1.9c0-0.3-0.3-1.3-0.8-1.5c-0.2-0.6-1.2-0.8-1.9-0.8c-1.5,0-2,0.7-2.6,1.1c-0.8,1.2-0.7,2.7-0.7,3.9
		c0.8,0.2,2.4,0.2,3.2,0.2C294,56.2,294.8,55.9,294.8,55.2z M289.9,67.8c0.5,0.1,1.3,0.6,1.8,0.6c1.1,0,2.6-0.6,3-1
		c-1.2,0.3-2.2,0.5-2.8,0.5c-1,0-2-0.4-2.3-0.5L289.9,67.8z"/>
	<path class="st1" d="M303.5,69.4c0-0.4,0.1-0.7,0.2-1.1c0.1-1,0.2-1.8,0.2-2.8c0-0.5,0-1,0-1.5c0-0.6,0.1-1.1,0.1-1.7
		c0-0.9-0.1-1.7-0.1-2.6c0-4.3-0.3-6.9-0.3-9.5c0-1.1,0.3-3,1.6-3c0.9,0,1.7,0.3,2.7,0.3c0.6,0,1.2-0.1,1.8-0.1
		c0.8,0.5,0.8,2.4,0.8,3.8c1.3-1,1.9-2.4,2.9-2.7c0.8-0.2,1.6-0.2,2.4-0.5c0.5-0.1,0.9-0.2,1.4-0.2c1.3,0,3,0.8,4,1.7
		c1.4,1.3,1.2,2.9,1.4,4.4c0.2,1.3,0.3,3.6,0.3,5.1c0,1.9,0.2,2.7,0.2,3.5c0,0.9-0.1,1.8-0.1,2.7c0,1.6,1,3,1,4.4
		c0,1.5-1.9,1.4-3,1.5c-1.3-0.2-4.7-1.5-4.7-3.5c0-0.1,0-0.3,0.1-0.5c0.6-2.4,0.1-4.9,0.6-7.3c0-2.9-0.4-5.9-1.6-5.9
		c-0.1,0-0.2,0-0.4,0c-2.1,0.5-2.7,1.6-3.9,2.8c-0.8,0.8-1.3,1.9-1.3,3c0,1.6,0.6,4.1,0.6,6.1c0,1.7,0.8,2.2,1.1,3.3
		c-0.6,1.7-3,1.8-4.7,1.8C305.4,71.1,303.5,70.9,303.5,69.4z M307.1,50.4c-0.3,0.4-0.5,0.9-0.5,1.4c0,1.4-0.5,2.7-0.5,4.1
		c0,1.1,0.2,2.3,0.2,3.4c0,0.5,0.1,1.1,0.4,1.6c0.1-0.5,0.1-1.1,0.1-2.7c0-2.3,0.2-4.6,0.5-6.9L307.1,50.4z M306.7,62
		c0,0.4,0.1,0.8,0.2,1.2c0-0.3,0.1-0.6,0.1-0.9c0-0.4,0-0.8-0.2-1.2C306.7,61.4,306.7,61.7,306.7,62z M319.9,67.7
		c0.3-0.7,0.3-1.4,0.3-2.2c0-0.8,0-1.5-0.2-2.3c0-0.3,0-0.5,0-0.8c0-0.6,0-1.2,0-1.7c0-0.2,0-0.5,0-0.8c-0.5,1.3-0.5,2.8-0.5,4.1
		c0,0.4,0,0.9,0,1.4c0,0.5,0,1.1,0.2,1.6L319.9,67.7z"/>
	<path class="st1" d="M346.3,59.6c0,0.5,0,1,0,1.5c0,1.5,0.1,3.1,0.1,4.6c0,0.9,0,1.8-0.2,2.8c-0.5,2.3-0.4,4.8-1,7
		c-0.2,0.9-0.6,1.7-0.7,2.5c-0.1,0.7-0.2,0.9-0.5,1.5c-0.7,1.1-1.8,2.9-2.3,3c-1.1,0.3-2.4,0.5-3.5,0.5c-0.7,0-1.5,0-2.2,0
		c-0.6,0-1.2,0.1-1.7,0.1c-0.7,0-1.4-0.8-2.9-1.2c-2-0.5-3.3-0.9-3.3-3.6c0-0.4,0.3-1.1,0.6-1.7c2,0.1,4,0.9,6.1,0.9
		c0.4,0,3.3-0.2,4.5-1c1-0.8,2.1-3.5,2.1-5.5c0-0.2,0-0.5,0-0.7c-1.6,0.3-2.5,0.8-4.9,0.8c-2.5,0-7.1-0.5-7.7-3.9
		c-0.2-1.1-0.7-2.1-0.8-3.2c-0.1-1.4-0.4-2.8-0.5-4.2c0-1.8,0.1-3.7,0.5-5.5c0.1-0.5,0.5-1,0.8-1.5c0.5-0.9,0.7-1.8,1.2-2.7
		c1.1-1.8,2.3-3,4.3-3c0.7,0,1.3,0.1,2,0.2c0.6,0,1.2,0,1.8,0.3c0.5,0.2,1.5,1.5,1.9,1.5c0.5,0,1.4-1.3,1.8-1.9
		c0.5,0,1.1-0.1,1.6-0.1c0.6,0,1.1,0,1.7,0.1c1.1,0,1.4,1.9,1.4,3.1c0,0.7-0.1,1.4-0.1,2c0,0.4,0,0.9,0.1,1.4c0.2,1,0.1,1.9,0.3,2.9
		c0,0.4,0.1,0.8,0.1,1.3C346.7,58.4,346.4,59,346.3,59.6z M332,52.7c-1.8,0.5-2,3.9-2,6.8c0,1.6,0.3,4.3,1.4,5.9
		c-0.1-0.6-0.2-1.3-0.2-1.9c0-0.4,0-0.8,0-1.3c0-0.3,0-0.6,0-0.9c0-1.6,0.3-3.3,0.3-5C331.5,55,331.9,53.8,332,52.7z M338.3,80.3
		c1.2,0,2.1-0.9,2.8-1.8c-1.8,0.3-2.8,1.2-4.9,1.2c-0.9,0-1.8,0-2.5,0c0.4,0.3,1,0.5,1.5,0.6c0.8,0,1.5,0,1.6,0H338.3z M339.8,57.1
		c-0.1-1.2-0.7-2.4-0.8-3.7c-0.1-0.7-1.4-1.3-2.2-1.8c-3,0.9-3.1,6.4-3.1,9.8v1c0,0.9,0,1.7,0.4,2.4c1,0.7,2.4,0.9,3.7,0.9
		c0.7,0,1.8,0,2.1-1c0.1-0.5,0.7-0.9,0.7-1.8C340.6,60.8,339.9,58.5,339.8,57.1z M342.8,57.8c0-0.8-0.1-1.6-0.2-2.4
		c-0.2-1.5,0.1-3-1.4-4.1c0,1.2,0.5,2.3,0.6,3.5c0.2,1.3,0.3,2.6,0.9,4.1C342.7,58.5,342.8,58.1,342.8,57.8z"/>
	<path class="st1" d="M358.5,71.2c-1.3,0-1.8-0.3-2.5-0.4c-1.4-0.2-2.4-1.2-3.4-1.8c-1.7-1-2.2-2.7-2.3-5.7
		c-0.1-1.3-0.1-2.4-0.1-3.6c0-0.9,0.2-1.7,0.2-2.6c0-2.6,0.4-4.8,0.6-5.7c0.4-1.5,1.6-2.8,1.9-2.9c0.6-0.2,1-0.7,1.7-1
		c1.2-0.5,4-0.6,5.4-0.6c1,0,3.1,0.4,4.3,1c2,0.9,2.8,2.6,2.8,4.7c0,0.8-0.2,2-0.2,2.8c-0.1,1.5-0.2,3-1.5,4c-0.6,0-1.5,0.7-3.6,0.7
		c-1.7,0-3.6-0.1-5.3-0.1c0,0.9,0,2.1,0.3,3.1c0.5,1.6,2.6,2.3,4.7,2.3c1.4-0.3,1.8-1.1,3.1-1.1c0.4,0,0.7,0.5,1.2,0.5
		c0.6,0,0.7,0.9,0.7,1.2c0,0.3,0.2,0.8,0.2,1.2c0,1.9-3.8,3.9-5.5,3.9C360.7,71.1,359.6,71.2,358.5,71.2z M353.5,62.1
		c0-0.7-0.1-2.7-0.1-3.5c0-1.3,0.6-3.4,0.7-4.6c0-0.7,0.3-1.8,0.5-2.2c0.2-0.3,0.5-0.6,0.6-0.9c0-0.2,0-0.5,0-0.8
		c-0.6,0.5-1,1.5-1.3,2.2c-0.6,0.6-1.1,3.3-1.1,4.3c0,1.7-0.1,3.3-0.1,4c0,1.1,0,2.6,0.3,3.7L353.5,62.1z M362.5,55.2
		c0-0.3,0.2-1.2,0.2-1.9c0-0.3-0.3-1.3-0.8-1.5c-0.2-0.6-1.2-0.8-1.9-0.8c-1.5,0-2,0.7-2.6,1.1c-0.8,1.2-0.7,2.7-0.7,3.9
		c0.8,0.2,2.4,0.2,3.2,0.2C361.8,56.2,362.5,55.9,362.5,55.2z M357.7,67.8c0.5,0.1,1.3,0.6,1.8,0.6c1.1,0,2.6-0.6,3-1
		c-1.2,0.3-2.2,0.5-2.8,0.5c-1,0-2-0.4-2.3-0.5L357.7,67.8z"/>
	<path class="st1" d="M371.3,69.4c0-0.4,0.1-0.7,0.2-1.1c0.1-1,0.2-1.8,0.2-2.8c0-0.5,0-1,0-1.5c0-0.6,0.1-1.1,0.1-1.7
		c0-0.9-0.1-1.7-0.1-2.6c0-4.3-0.3-6.9-0.3-9.5c0-1.1,0.3-3,1.6-3c0.9,0,1.7,0.3,2.7,0.3c0.6,0,1.2-0.1,1.8-0.1
		c0.8,0.5,0.8,2.4,0.8,3.8c1.3-1,1.9-2.4,2.9-2.7c0.8-0.2,1.6-0.2,2.4-0.5c0.5-0.1,0.9-0.2,1.4-0.2c1.3,0,3,0.8,4,1.7
		c1.4,1.3,1.2,2.9,1.4,4.4c0.2,1.3,0.3,3.6,0.3,5.1c0,1.9,0.2,2.7,0.2,3.5c0,0.9-0.1,1.8-0.1,2.7c0,1.6,1,3,1,4.4
		c0,1.5-1.9,1.4-3,1.5c-1.3-0.2-4.7-1.5-4.7-3.5c0-0.1,0-0.3,0.1-0.5c0.6-2.4,0.1-4.9,0.6-7.3c0-2.9-0.4-5.9-1.6-5.9
		c-0.1,0-0.2,0-0.4,0c-2.1,0.5-2.7,1.6-3.9,2.8c-0.8,0.8-1.3,1.9-1.3,3c0,1.6,0.6,4.1,0.6,6.1c0,1.7,0.8,2.2,1.1,3.3
		c-0.6,1.7-3,1.8-4.7,1.8C373.1,71.1,371.3,70.9,371.3,69.4z M374.9,50.4c-0.3,0.4-0.5,0.9-0.5,1.4c0,1.4-0.5,2.7-0.5,4.1
		c0,1.1,0.2,2.3,0.2,3.4c0,0.5,0.1,1.1,0.4,1.6c0.1-0.5,0.1-1.1,0.1-2.7c0-2.3,0.2-4.6,0.5-6.9L374.9,50.4z M374.5,62
		c0,0.4,0.1,0.8,0.2,1.2c0-0.3,0.1-0.6,0.1-0.9c0-0.4,0-0.8-0.2-1.2C374.5,61.4,374.5,61.7,374.5,62z M387.7,67.7
		c0.3-0.7,0.3-1.4,0.3-2.2c0-0.8,0-1.5-0.2-2.3c0-0.3,0-0.5,0-0.8c0-0.6,0-1.2,0-1.7c0-0.2,0-0.5,0-0.8c-0.5,1.3-0.5,2.8-0.5,4.1
		c0,0.4,0,0.9,0,1.4c0,0.5,0,1.1,0.2,1.6L387.7,67.7z"/>
	<path class="st1" d="M403.9,71.2c-0.7,0-1.4-0.3-2.1-0.4c-1.4-0.2-2.8-1-3.6-1.8c-0.7-0.7-1.5-1.1-1.8-2c-0.5-1.2-1-2.4-1-3.6
		c0-1.3,0-2.4,0-3.6c0-0.9,0.2-1.7,0.2-2.6c0-1.1-0.3-1.9-0.5-3c0.1-0.3,0.3-0.6,0.4-0.9c0.3-0.7,0.4-1.5,0.7-2.1
		c0.5-1.2,2.2-3.1,3-3.1c0.7,0,1.4,0,2-0.2c1.2-0.5,2.5-0.9,3.9-0.9c1,0,3,0.6,4.2,1.3c1.9,1,2.9,3,2.9,4.9c0,0.8-0.1,1.5-0.1,2.3
		c-0.1,1.5-0.2,2.7-1.7,3.7c-1,0.6-2.2,0.7-3.4,0.8c-1.7,0-3.5-0.1-5.2-0.1c0.1,0.9,0.3,1.8,0.6,2.8c0.5,1.6,3.3,2.7,5.2,2.8
		c0.9,0,1.7-0.7,2.7-0.7c1,0,1.5,1.8,1.5,2.8c0,2.5-3.8,3.6-5.6,3.6C405.6,71.1,404.5,71.2,403.9,71.2z M399.7,66.1
		c-0.3-0.7-1.3-1.3-1.3-2.1c0-1,0.1-1.9,0.1-2.8v-1.6c0-0.6,0-1.3,0-1.9c0-1.3,0.4-2.5,0.5-3.7c0-0.9,0.5-1.8,0.6-2.7
		c-1.3,0.7-1.6,2.3-1.6,3.6v2c0,1.7-0.2,3-0.2,3.7c0,2.1,0.1,4.8,1.9,6.3C399.8,66.6,399.8,66.3,399.7,66.1z M402.5,68.1
		c0.5,0.1,1.1,0.2,1.6,0.2c0.7,0,1.4-0.1,2-0.3c-0.6-0.3-1.2-0.4-1.7-0.4c-0.3,0-0.6,0-0.8,0C403.2,67.7,402.8,67.9,402.5,68.1z
		 M408.4,53.5c-1-1-1.6-2.3-3.2-2.3c-0.6,0-1.3,0.2-1.8,0.6c-0.8,1.2-0.6,2.9-0.7,4.4c0.8,0.2,1.7,0.2,2.5,0.2
		C407.4,56.5,407.6,55.9,408.4,53.5z"/>
	<path class="st1" d="M419,71.1c-1.1-0.5-2.3,0-2.3-2c0-0.4-0.1-0.6-0.1-1.1c0.2-2.5,0.3-4.8,0.3-7.3v-1.3c0-1.2,0.3-4.2,0.3-6.7
		c0-0.5-0.1-1.8-0.1-2.4c0-1.6,0.2-2.7,0.6-3c0.6-0.2,1.9-0.3,2.6-0.3c0.7,0,1.2,0.2,1.6,0.4c0.9,0,1.3,0.7,1.5,1.4
		c0,1.3-0.5,2.9-0.5,4.2c0.5-0.6,1.5-1.9,1.9-2.6c1.5-1.9,3.7-3.1,4.3-3.1c0.4-0.2,0.9-0.5,1.4-0.5c0.9,0,2,0.2,2.3,0.7
		c0.3,0.6,0.6,1.6,0.6,2.2c0,2.2-0.9,3.4-2.4,3.4c-0.5,0-1.3-0.1-2.2-0.1c-1,0.4-1.4,1-1.8,1.6c-0.9,0.7-1.9,1.8-2.5,2.8
		c-0.8,1.4-1.8,3-1.8,4.8c0,0.6,0.2,3.1,0.2,3.8c0,0.7-0.2,2.8-0.2,3.9c0,0.7-0.5,1-2.1,1C420.1,70.9,419.3,71.1,419,71.1z
		 M419.5,61.3c0,0.5-0.2,1.6-0.2,2.7c0,1,0,1.4,0,2.3c0,0.2,0,1.5,0.7,2.1c0-1.2,0.1-1.9,0.1-3.3c0-0.5,0.1-1.8,0.1-3.4
		c0-0.7-0.1-1.4-0.4-2.6C419.6,60.1,419.5,60.5,419.5,61.3z M420.1,52.1c0-0.5-0.1-1.1-0.3-1.4c0,0.7-0.2,2.7-0.3,3
		c0,0.8,0.1,1.1,0.3,1.5c0.2-0.2,0.4-0.4,0.4-0.9C420.2,53.5,420.1,53,420.1,52.1z"/>
	<path class="st1" d="M454.9,69.3c0,1.3-1.5,1.7-2.5,1.9c-0.7,0.1-1.6,0.7-1.9,0.7c-1.2,0-1.6-1.1-1.7-2.1c-0.7,0.1-1.4,0-2,0.3
		c-1.3,0.5-2.6,1-4.1,1c-2.9,0-7.1-1.9-7.1-6.3c0-1.5,0.1-2.7,0.1-3.3c0-0.9,0-2.6,0.4-3.5c0.9-2,3.8-2.2,6.5-2.2c1.2,0,2.3,0,3.3,0
		c-0.2-1.7-1.2-4.1-3.3-4.1c-0.8,0-1.8,0.2-2.6,0.2c-1,0.1-2,0.8-2.8,0.8c-0.5,0-1.5-1.2-1.5-1.7c0-2.4,3.5-3.8,5.6-3.8
		c0.4,0,1.7-0.1,2.4-0.2c1.3,0.1,4.3,0.6,5.7,2c0.6,0.6,1.5,1.2,1.8,2c0.6,1.2,1.2,2.5,1.2,4.1c0,2.4-0.2,4.4-0.2,5.5
		c0,0.8,0.1,1.6,0.4,2.5c0.4,1.2,0.9,2.5,2,5.1C454.8,68.5,454.9,68.9,454.9,69.3z M445.8,61.1v-1.2c-0.6-0.1-1.3-0.1-1.9-0.1
		c-1.8,0-2.7,0-3.1,0.9c-0.3,0.6-0.4,1.7-0.6,3.5c0.8,1.8,2.1,2.1,3.1,2.1c0.7,0,1.4-0.2,1.9-0.6C445.8,64.8,445.8,62.7,445.8,61.1z
		 M449.2,53.8c0,0.6,0,1.1,0,2.1c0,1.5,0.1,3.1,0.1,4.6c0,1.1-0.3,2.2-0.3,3.5c0,0.9-0.4,1.7-0.5,2.7c1.2-0.8,1.5-2,1.5-3.3
		c0-1.4,0-2.3,0-3.3c0-0.8,0.1-1.6,0.1-2.4c0-2.2-0.1-4.9-2.1-6.5C447.9,52.5,448.8,52.6,449.2,53.8z"/>
	<path class="st1" d="M466.5,71.1c-2.3-0.6-5.2,0-5.9-4c-0.2-1.2-0.8-2.3-0.8-3.6c0-1-0.1-2.2-0.1-3.3c0-2.1,0.2-4.6,0.3-6.7
		c-1.8-0.3-3.5,0.1-4.7-1.1c-0.4-0.8-0.4-1.7-0.6-2.6c-0.1-0.3-0.2-0.6-0.2-0.9c0-1,0.8-1.3,1.5-1.3h0.9c1.2,0,2.3-0.2,3.5-0.2
		c0.1-0.8,0.2-2.9,0.2-4.1c0-0.5,0-0.9,0-1.4c0-0.5,0-1.1,0-1.5c0-0.6-0.1-1.2-0.1-1.7c0-0.6,0.2-1.2,0.4-1.9
		c0.1-0.6,0.2-1.3,0.4-1.9c0.5-0.8,2.6-1.2,4-1.2c1,0,2.4,0.8,2.4,2c0,1.3-0.9,2.3-0.9,3.7v1.8c-0.1,0.7-0.2,3.6-0.2,4.4
		c0,0.8,0.1,1.3,0.2,2.1c0.8,0,1.7,0,2.5,0c0.9,0,1.7-0.6,2.6-0.6c0.7,0.1,1.4,0.5,2,0.8c0.7,0.4,1.3,1.1,1.3,1.9
		c-0.2,2-0.3,3.8-2.2,3.8h-4.8c-0.8,0-1.6,0-2,0.7c-0.2,0.9-0.3,3.2-0.3,3.7c0,1,0.4,1.9,0.4,2.9c0,0.6-0.1,1.3-0.1,1.9
		c0,1.4,0.2,2.3,0.8,2.7c1.2,0.5,3.6,0.3,5.7,0.7c0.7,0.5,1,1.3,1,2c0,3.2-3.3,2-5.3,2.7c-0.4,0.1-0.9,0.4-1.4,0.4
		C466.8,71.2,466.6,71.2,466.5,71.1z M465.5,68.1c-0.6-0.6-1.4-1.1-1.7-1.9c-0.4-1.2-0.5-3.2-0.7-4.1c0-0.7,0.4-1.6,0.4-2.4
		c0-0.7-0.2-1.5-0.2-2.2c0-1.2,0.1-2.8,0.1-4.1l-0.7,0c-0.3,2-0.5,4.3-0.5,6.3c0,1.3,0,2.5,0.3,3.7c0.2,1.4,0.4,3.6,1.4,4
		C464.5,67.9,465,68,465.5,68.1z M463,43.7v2.8c0,0.8,0,1.1,0,1.5c1.1-0.7,0.8-1.2,0.9-2c0-2.9,0.5-5.8,0.5-7.9c0-0.3-0.1-0.6-0.2-1
		c-0.6,1.5-0.9,3.1-1.1,4.7C463,42.3,463,42.9,463,43.7z M470.4,51.3c0.4,0,0.8-0.1,1.1-0.3c-1-0.2-2-0.2-3.1-0.2
		c-0.7,0-1.5,0-2.2,0.1c0.6,0.4,1.5,0.4,2.5,0.4H470.4z"/>
	<path class="st1" d="M491.2,47.5c1,0.2,2.1,0.8,2.9,1.3c0.5,0.3,1,0.5,1.3,0.9c1.5,2.6,2,5.9,2.1,8.6c0,0.6-0.1,1.2-0.1,1.7
		c0,0.7,0.2,1.4,0.2,2c0,1-0.2,2.1-0.3,3.1c0,0.8-0.9,1.6-0.9,2.4c0,1-1.1,2-1.8,2.5c-1.6,1-4.7,1.5-7,1.5c-3.4,0-7.4-0.5-8.9-3.3
		c-0.8-2.3-1.4-5.8-1.4-8c0-1.5,0.1-3,0.3-4.4c0.3-1.8,1.2-4.3,1.2-5.1c0-1.1,2.8-3.5,5.5-3.5c1,0,2-0.1,3.7-0.1
		C489,47.1,490.1,47.2,491.2,47.5z M481.2,55.3l0.5-1.2c0-1,0.5-2,1.3-3c-0.5,0.1-1.6,0.6-1.6,1c0,1.6-1,2.3-1,5.6
		C480.8,57.9,481.1,56.1,481.2,55.3z M487.8,67.1c1.6,0,2.4-0.6,3-1.2c0.4-0.4,0.4-1.2,0.4-2.1c0.2-0.5,0.2-1.8,0.3-2.4
		c0.1-0.9,0.1-1.7,0.1-2.6c0-1.2-0.3-2.5-0.3-4.2c0-1.4-0.6-2.2-2.4-2.2c-1.1,0-2.1-0.2-3.2-0.2c-1.3,0.4-2.2,3.1-2.2,4.4
		c0,1,0,1.6,0,2.2c0,0.6-0.2,1.2-0.2,2.3c0,0.7,0.1,1.6,0.2,2.2c0.3,1.2,0,2.5,1.1,2.9c0.2,0.4,0.9,0.9,2.2,0.9
		C487.1,66.9,487.6,67,487.8,67.1z M494.3,57.6c-0.3,0.3-0.5,1.4-0.5,2.5c0.1,0.1,0.2,0.4,0.2,0.7c0,2.2-0.5,3-0.5,4.1
		c0,1.3-0.7,2.4-1.6,3.4c0.1,0,0.2,0.1,0.3,0.1c0.6,0,2-2.3,2-3.2c0.2-0.6,0.6-2,0.6-3.1C494.7,60.9,494.6,58.2,494.3,57.6z"/>
	<path class="st1" d="M504.5,71.1c-1.1-0.5-2.6-0.5-2.6-2c0-0.4,0.1-0.7,0.2-1.1c0.2-2.5,0.3-4.8,0.3-7.3v-1.3
		c0-1.2,0.3-2.3,0.3-3.4c0-1.1-0.1-2.1-0.1-3.2c0-2.9,0-3.8,0.4-5.7c0.9,0,1.6,0.3,2.4,0.3c0.7,0,1.4-0.2,2-0.2
		c1.2,0,1.7,0.7,1.7,1.6c0,1.3-0.7,2.4-0.7,3.7c1-0.6,1.8-1.3,2.5-2.1c1.7-1.9,3.6-2.6,5.2-3.3c0.4-0.2,1.4-0.3,1.8-0.3
		c0.9,0,1.1,0.6,1.4,1.1c0.3,0.6,0.4,1.2,0.4,1.8c0,1.1-0.5,2.5-1.4,2.8c-1.2,0.3-2.4,0.3-3.5,0.7c-0.8,0.2-1.5,0.9-2,1.5
		c-0.9,0.7-1.7,2-2.3,3c-0.8,1.4-2.3,3.3-2.3,4.6c0,0.6,0.2,1.3,0.2,2.1c0.1,1.8,1.1,4.5,1.1,5.6c0,1.1-2.9,1.6-3.4,1.6
		C505.6,71.5,505.1,71.2,504.5,71.1z M505.7,66.8c0-0.9-0.6-1.7-0.6-2.7c0-0.6,0-1.3,0-3.4c0-0.8,0.1-1.5,0.1-2.3
		c0-0.5,0-1.2-0.4-1.4c-0.2,0.4-0.5,0.8-0.6,1.3c0,0.7,0.1,1.4,0.1,2.1c0,0.8-0.1,1.6-0.1,2.7c0,1,0,2,0,3c0,0.8,0.2,1.9,1.1,2.3
		C505.4,67.8,505.7,67.3,505.7,66.8z M504.5,55.4c0,0.5,0.1,1.1,0.3,1.5c0.2-0.7,0.3-1.5,0.3-2.3v-1.3c0-0.7,0-1.5,0-2.2
		c0-0.3,0-0.7,0-1.1c-0.3,0.6-0.4,1.3-0.4,1.9v1.1c0,0.3,0,0.7,0,1C504.6,54.6,504.5,55,504.5,55.4z"/>
</g>
</svg>
