<?xml version="1.0" encoding="utf-8"?>
<!-- Generator: Adobe Illustrator 24.1.2, SVG Export Plug-In . SVG Version: 6.00 Build 0)  -->
<svg version="1.1" id="Laag_1" xmlns="http://www.w3.org/2000/svg" xmlns:xlink="http://www.w3.org/1999/xlink" x="0px" y="0px"
	 viewBox="0 0 762.3 100.2" style="enable-background:new 0 0 762.3 100.2;" xml:space="preserve">
<style type="text/css">
	.st0{clip-path:url(#SVGID_2_);fill:#CD1334;}
	.st1{fill:#FFFFFF;}
</style>
<g>
	<defs>
		<rect id="SVGID_1_" x="-28.5" y="-8.6" width="823.4" height="109.9"/>
	</defs>
	<clipPath id="SVGID_2_">
		<use xlink:href="#SVGID_1_"  style="overflow:visible;"/>
	</clipPath>
	<path class="st0" d="M156.7,14.1c68.7-6.4,152.6,1.9,222-3.9c83.2-7.8,173.4-7.8,256.6-7.8c0,3.9-6.9,9.7,0,11.6
		C663,19.9,663,27.7,663,35.5c0,3.9-20.8,0-13.9,3.9c-20.8,0-55.5,1.9-34.7,5.8c6.9,3.9,34.7,0,41.6,5.8c6.9,5.8-6.9,11.6,0,17.5
		h27.8c6.9,3.9-6.9,11.6,0,11.6c20.8,3.9,48.6,1.9,76.3,1.9c0,3.9,7,7.8-6.9,9.7C510.4,95.6,260.7,103.4,18,97.5
		C-9.8,95.6,11,87.8,31.8,82c-6.9,1.9-6.9-3.9-13.9-1.9c0-5.8,13.9-15.5,41.6-17.5H38.8c-6.9-1.9,0-5.8,0-9.7c6.9,0,13.9,0,13.9-1.9
		v-7.8H24.9c6.9,0,13.9,0,13.9-1.9v-7.8c13.9-1.9,34.7,1.9,48.6,0v-5.8c-13.9-1.9-34.7,0-48.6,0c6.9-1.9,6.9-3.9,6.9-7.8
		c20.8-1.9,41.6,3.9,62.4-1.9H87.3C101.2,8.3,135.9,16.1,156.7,14.1"/>
</g>
<g>
	<path class="st1" d="M186.1,71.3c-0.5,0-1.2,0.2-1.8,0.2c-0.7,0-1.3-0.3-1.7-1c0-0.8,0.1-1.6,0.5-2.4c1-1.8,0.5-4,1-6v-3.6
		c0-0.3,0.2-0.7,0.2-1.1c0,0,0-0.1,0-0.2c-0.2-1-0.2-2-0.2-3c-0.2-0.8-0.2-1.6-0.2-2.5c0-1.9,0-2.8-0.2-3.6
		c-0.1-0.7-0.1-1.4-0.2-2.1c-0.1-0.4-0.1-0.7-0.1-1.1c0-0.3,0-0.6,0-0.9c0-0.4,0-0.9,0-1.4c0-1.2,0.2-2.5,0.4-3.6
		c0.1-0.5,0-1,0.3-1.5c0.3-0.6,1-0.9,1.3-1.5c0.1-0.5,0.7-1.1,1.3-1.1c0.9,0,1.7,0.2,2.6,0.2c0.1,0,0.2,0,0.4,0c0,0,0.1,0,0.1,0
		c0.2,0,0.5-0.1,0.8-0.1c0,0,0.1,0,0.2,0c0.6,0.2,1.2,0.1,1.7,0.2c0.4,0,1,0.1,1.4,0.1c0.6,0,1.5-0.4,2.1-0.4c0.4,0,1,0.1,1,0.1
		c0.2-0.1,0.4-0.1,0.7-0.1c0.6,0,1.3,0.3,1.9,0.3c0.1,0,0.2,0,0.3,0c0.4,0,0.8,0,1.3,0h0.8c0.9,0,1.7,0.1,2.5,0.4
		c0.6,0.4,1.2,0.8,1.6,1.2c0.5,0.4,0.8,0.8,1.1,1.3c0.3,0.4,0.8,1.2,0.8,1.7c0,3.1,0.4,4.8,0.4,6.5c0,2.6-1.1,4.9-2.4,7.1
		c-0.5,0.5-1.5,1.1-1.5,1.8c0,0.9,0.7,1.5,0.7,2.5l1.5,3.1c0.7,1.2,1.4,2.5,2.3,3.5c0.4,0.4,1,0.7,1.4,1.3c0.2,0.4,0.6,0.8,0.6,1.3
		c0,0.7-0.7,1.1-1.1,1.5c-0.5,0.5-0.9,1.4-1.6,1.6c-0.7,0.2-1.4,0.5-2,0.7c-0.6,0.2-1,0.8-1.4,1.3c-0.7-0.5-1.6-0.9-2.1-1.7
		l-0.7-1.6c-0.3-0.8-0.3-1.7-0.7-2.4c-0.9-1.5-1.1-3.5-1.9-5c-0.7-1.2-1.5-2.4-2.4-3.5c-1.1,0-2.4-0.2-3.4-0.2
		c-3.9,0-2.3,2.7-3.2,4.4c0.2,0.5,0.2,1,0.2,1.5c0,0.7,0.2,1.3,0.2,1.9c0,0.6-0.2,1.2-0.3,1.7c0,0.6,0,1.1,0,1.6
		c0,0.9-0.2,2.8-1.7,2.8C187.7,72,187,71.3,186.1,71.3z M187,67.6c0.6-0.5,0.4-1.3,0.5-1.9c-0.3,0.6-0.7,1.1-1.2,1.6
		c0,0.2,0.2,0.3,0.4,0.3H187z M188.3,45.9c0-0.8,0.1-1.5,0.1-2.3c0-1.1-0.4-1.3-0.9-1.7c-0.3,1.4-0.5,3.1-0.5,4.5c0,0.9,0,1.8,0.3,3
		c-0.2,0.4-0.3,0.9-0.3,1.4s0.1,1,0.1,1.5c0,0.9,0.2,1.5,0.2,2.2c0,0.3,0,0.6,0,0.9c0,0.6,0.1,1.1,0.9,1.1c0-0.6,0-1.2,0-1.8
		c-0.1-0.5-0.5-0.8-0.6-1.4c0-0.7,0.7-0.9,0.7-1.9c0-0.7-0.1-1.3-0.1-2c0-0.9,0.3-1.8,0.3-2.7C188.4,46.4,188.3,46.1,188.3,45.9z
		 M188.2,59.7c0-0.5-0.2-1.2-0.6-1.2c0,0.1-0.2,0.2-0.3,0.3c0,1.3,0,2.5,0,3.8c0,0.5,0.2,1,0.4,1.4c0.1-0.7,0.3-1.4,0.4-2.1
		C188.1,61.1,188.1,60.4,188.2,59.7z M187.2,65.5c0.5,0,0.4-0.7,0.5-1.1c-0.1,0-0.4-0.1-0.5-0.1V65.5z M198.9,50.6
		c0.1-0.5,0.2-1,0.4-1.5c0.3-0.5,0.7-0.8,1.1-1.4c0.2-0.7,0.3-1.4,0.3-2.1c0-0.8-0.1-1.6-0.2-2.4c-0.8-0.8-1.7-1.5-2.8-2
		c-0.7-0.2-1.3-0.3-1.9-0.5c-0.9,0.2-1.7,0.1-2.6,0.2c-0.3,0.1-0.6,0.2-0.9,0.2c-1.3,0-1.2,0.1-1.6,0.5c0,0.4,0.1,0.8,0.1,1.4
		c-0.1,0.4-0.2,1.7-0.2,2.3c0,0.8-0.2,2.2-0.2,3.1c0,1.1,0,2.3,0.2,3.3c0.3,0,0.6,0,0.9,0c1,0.5,2.1,0.7,3.8,0.7
		C196.8,52.4,197.9,51.4,198.9,50.6z M201.9,40.2c0-0.9-0.4-1.7-1.1-2.1l-2.3-0.3c-0.3-0.3-0.6-0.5-0.8-0.8
		c-0.5,0.3-0.9,0.4-1.5,0.5c0.3,0.3,0.7,0.5,1.1,0.5c0.3,0,0.6,0,0.9-0.2l1.5,0.9c0.7,0.4,1.4,1.5,1.9,1.5
		C201.7,40.3,201.8,40.3,201.9,40.2z M200,54.5c0-0.1-0.1-0.3-0.3-0.3c-0.2,0-0.2,0.1-0.2,0.3c0,0.1,0,0.3,0.3,0.3
		C199.9,54.8,200,54.6,200,54.5z M206.4,66.8c0.1,0,0.2,0,0.4,0c0-1.4-1.9-2.3-2.2-3.5c-0.1-0.6-0.7-1.1-1-1.5
		c-0.5-0.6-0.5-1.4-0.9-2c-0.4-0.7-0.7-1.6-1.2-2.4c-0.3,0-0.6,0-0.9,0.1c0,1.6,1.1,3.1,1.6,4.6c0.3,1.5,1.3,2.7,1.6,4.2
		c0.1,0.3,0.2,0.7,0.4,0.9c0.3-0.2,0.7-0.2,1.2-0.2C205.6,66.8,206,66.8,206.4,66.8z M202.1,51.9c0,0.2,0.2,0.6,0.4,0.8
		c0.9-1,1.8-2.5,2.4-3.7c0-0.4-0.1-0.8-0.1-1.3c0-0.3,0.2-0.6,0.2-0.9c0-0.3,0-0.6,0-1.7c0-0.6,0-1.2-0.1-1.7
		c-0.3,0.7-0.3,1.6-0.3,2.5c-0.3,1.2-0.6,2.3-0.8,3.5c-0.5,0.7-1.3,1.3-1.5,2.2C202.1,51.6,202.1,51.7,202.1,51.9z"/>
	<path class="st1" d="M215.6,48.3c1.2-0.8,2.8-1.1,3.9-1.1c0.4,0,1.7-0.1,2.4-0.2c2.1,0.2,4.3,0.3,5.7,1.7c0.6,0.6,1.4,1.5,1.8,2.3
		c0.6,1.2,0.8,3.4,0.8,5.1c-0.1,0.8-0.2,3.4-0.2,4.5c0,0.8,0,2.5,0.3,3.3c0.4,1.2,0.4,2.1,1.5,4.7c0.1,0.3,0.3,0.7,0.3,1.1
		c0,0.9-2,1.1-2,1.5c-0.3,0.4-1.5,0.4-2.2,0.4c-1.2,0-2.2-1.2-2.6-2.4c-0.4,0-0.6,0.2-0.8,0.5c-0.6,0.3-1.3,0.7-1.5,0.7
		c-0.3,0-1.2,0.8-2.6,0.8c-1.7,0-3.1-0.7-3.3-0.7c-2.3-0.6-3.7-2.8-3.7-4.7c0-1.1,0.1-3.1,0.1-3.8c0-0.9,0.1-2.8,0.5-3.6
		c0.9-2,3.6-2.2,6.3-2.2c1.2,0,2.3,0,3.3,0c0-1.3-0.8-3.6-1.4-4c-0.6-0.3-1.6-0.3-1.9-0.4c-0.8,0-2,0.2-2.4,0.7
		c-1,0.1-1.7,0.8-2.4,0.8c-0.5,0-1.5-1.6-1.5-2.1c0-0.2,0-0.5,0.1-0.7c0-0.1,0-0.3,0-0.4C214,49.3,215.1,48.5,215.6,48.3z
		 M215.6,64.6c0,1.3,0.2,2.5,1.5,3.1c-0.7-0.8-1-1.8-1-2.7c0-0.6-0.1-1.4-0.4-1.4L215.6,64.6z M216,62.5c0.1,0,0.2-0.7,0.2-0.9
		s-0.1-0.3-0.2-0.3c-0.1,0-0.1,0.1-0.1,0.3S215.9,62.5,216,62.5z M223.9,64.8c0-0.2-0.1-0.6-0.1-1.9v-3.1c-0.2,0-0.4,0.2-1.1,0.2
		c-0.2,0-0.5,0-0.8-0.1c-1.8,0-2.6,0-3,0.9c-0.4,0.2-0.6,2.8-0.6,3.6c0,1.4,1,2.3,1.9,2.3c1.1,0,2.5-0.6,3.1-1
		C223.8,65.4,223.9,65.2,223.9,64.8z M227,60.1c0-0.8,0.1-2.5,0.1-4.9c0-0.6-0.6-4-2.1-4c1,1.1,1.3,2.9,1.3,4.7
		c0,1.5,0.1,3.1,0.1,4.6c0,0.6,0.1,2.6,0.5,3.6C227,63.1,227,61,227,60.1z"/>
	<path class="st1" d="M253.5,69.3c0,1.3-1.5,1.7-2.5,1.9c-0.7,0.1-1.6,0.7-1.9,0.7c-1.2,0-1.6-1.1-1.7-2.1c-0.7,0.1-1.4,0-2,0.3
		c-1.3,0.5-2.6,1-4.1,1c-2.9,0-7.1-1.9-7.1-6.3c0-1.5,0.1-2.7,0.1-3.3c0-0.9,0-2.6,0.4-3.5c0.9-2,3.8-2.2,6.5-2.2c1.2,0,2.3,0,3.3,0
		c-0.2-1.7-1.2-4.1-3.3-4.1c-0.8,0-1.8,0.2-2.6,0.2c-1,0.1-2,0.8-2.8,0.8c-0.5,0-1.5-1.2-1.5-1.7c0-2.4,3.5-3.8,5.6-3.8
		c0.4,0,1.7-0.1,2.4-0.2c1.3,0.1,4.3,0.6,5.7,2c0.6,0.6,1.5,1.2,1.8,2c0.6,1.2,1.2,2.5,1.2,4.1c0,2.4-0.2,4.4-0.2,5.5
		c0,0.8,0.1,1.6,0.4,2.5c0.4,1.2,0.9,2.5,2,5.1C253.3,68.5,253.5,68.9,253.5,69.3z M244.4,61.1v-1.2c-0.6-0.1-1.3-0.1-1.9-0.1
		c-1.8,0-2.7,0-3.1,0.9c-0.3,0.6-0.4,1.7-0.6,3.5c0.8,1.8,2.1,2.1,3.1,2.1c0.7,0,1.4-0.2,1.9-0.6C244.4,64.8,244.4,62.7,244.4,61.1z
		 M247.8,53.8c0,0.6,0,1.1,0,2.1c0,1.5,0.1,3.1,0.1,4.6c0,1.1-0.3,2.2-0.3,3.5c0,0.9-0.4,1.7-0.5,2.7c1.2-0.8,1.5-2,1.5-3.3
		c0-1.4,0-2.3,0-3.3c0-0.8,0.1-1.6,0.1-2.4c0-2.2-0.1-4.9-2.1-6.5C246.4,52.5,247.3,52.6,247.8,53.8z"/>
	<path class="st1" d="M256.8,67.3c-1.3-2-1.5-3.9-1.5-6.2c0-0.5,0-1.2,0-1.7c0-0.7-0.1-1.4-0.1-2c0-1.5,0.4-2.6,0.4-4.1
		c0-1,0.5-1.9,0.9-2.8c0.9-1.9,3.1-3.2,5.3-3.2c0.9,0,2,0,2.8,0.4c0.5,0.2,1,0.5,1.5,0.7c0.5,0,1-0.1,1.4-0.2
		c-0.1-1.5-0.1-3.6-0.3-5.1c-0.1-0.3-0.1-0.7-0.1-1.1c0-1.5,0.2-3,0.2-4.5c0-0.6-0.1-1.2-0.1-1.8c0-1.2,2.5-1.9,4.2-1.9
		c0.9,0,1.5,0.3,1.9,1.1c0.2,0.5,0.2,1,0.2,1.5c-0.1,1.4-0.2,2.9-0.2,4.4c0,0.9-0.4,1.7-0.4,2.7c0,1.8,0.4,3.1,0.4,4.5
		c0,1.4-0.2,2.7-0.2,4c0,0.7,0,1.4,0,2.1c0,0.9-0.3,1.6-0.3,2.5c0,1.2,0.4,2.5,0.4,3.7c0,0.3,0,0.7-0.1,1c-0.4,1.9-0.4,3.6-0.8,5.5
		c-0.5,2.5-2.1,3-4,3.6c-1.3,0.7-3.1,0.8-4.5,0.8C261,71.1,258.4,69.9,256.8,67.3z M259.4,51.9c1-0.9,2-1.5,3-2.5
		c-0.2,0-0.3,0-0.5,0c-2.4,0-4.1,1.6-4.1,4c0,1.2-0.3,2.4-0.3,3.6c0,0.2,0,0.5,0,0.8c0.4-1.4,0.9-2.7,1.1-4
		C258.9,53.1,258.9,52.3,259.4,51.9z M267.6,53.9c0-1.5-0.7-1.8-1.6-1.8c-0.8,0-1.8,0-2.7,0.1c-2.4,0.4-3,4.4-3.2,7.7
		c0,1.4,1.2,6.7,3.3,7.4c0.9-0.1,1.7-0.4,2.5-0.8c1.5-0.8,1.5-3.6,1.5-5.7v-0.4c0-1.5,0.1-3,0.1-4.4
		C267.5,55.4,267.6,54.7,267.6,53.9z M271.3,46.7c-0.1-1.2-0.1-2.6-0.1-4v-1.9c-0.1-0.8-0.4-1.6-0.4-2.4c-0.1,0-0.3,0-0.6-0.1
		c-0.1,1.3-0.5,2.6-0.5,4c0,0.6,0,1.3,0.1,1.9c0.2,1.9,0,4.4,0.4,6.3v1.4c0,0.5,0,1,0,1.5c0,0.8,0,1.6,0,2.4v0.6
		c0,1.1-0.2,2-0.2,3.1v1.8c0,0.6,0,1.1,0,1.6c0,0.5,0,1,0.1,1.4c0.2-0.5,0.2-1.2,0.2-1.7c0-0.8,0.3-1.6,0.4-2.5
		c0.1-1.4,0.1-2.8,0.2-4.1c0.1-1.9,0.3-3.8,0.3-5.7c0-1.2,0.2-2.3,0.2-3.5V46.7z"/>
	<path class="st1" d="M284.5,53.6c-0.1,0.1-0.2,1.1-0.2,1.3c0,0.3,0.4,0.7,0.6,0.9c0.8,0.4,1.7,0.4,2.6,0.6c1.1,0.4,3.8,1,4.7,1.8
		c1.4,1.1,2.1,2,2.1,3c0,0.4,0.4,1.8,0.4,2.6c0,1-0.2,1.7-0.6,2.4c-0.5,0.9-1,1.8-1.5,2.7c-0.4,0.7-1.8,1.4-2.6,1.5
		c-1,0.2-2.5,1-4.7,1c-0.8,0-1.6-0.2-2.5-0.3c-1-0.2-2.1-0.3-3-0.8c-0.5-0.4-1.6-1.3-1.6-1.9c0-1,0.3-1.6,0.5-2.3
		c0.2-0.6,0.5-1.1,1.2-1.3c0.6,0,1.6,0.5,2.2,0.6c0.3,0.1,1.2,0.1,1.5,0.1c0.4,0,1.2,0.2,1.7,0.2c0.8,0,1.5,0,2.1-0.2
		c0.7-0.2,0.8-0.7,1.1-0.9c0.5-0.4,0.5-0.4,0.6-1c0-0.3,0-0.8-0.2-1c-0.5-0.7-1.6-1.5-3.3-1.5c-1.2,0-2.3-0.4-3.4-0.7
		c-0.5-0.1-1.1-0.5-1.5-0.9c-0.5-0.5-1-0.7-1.5-1.3c-0.3-0.4-0.7-2.4-0.7-3c0.2-1.5,0.2-2.9,0.6-3.7c0.3-0.8,0.6-1.2,1-2
		c0.4-0.7,1.2-1,1.9-1.4c1.2-0.5,2.8-1.2,4.4-1.2c0.5,0,2.6,0.2,3.1,0.4c1.7,0.6,2.8,0.7,3.5,1.5c0.3,0.3,0.9,0.4,1.1,0.8
		c0,0.3-0.1,1.3-0.1,1.8c0,0.3-0.3,0.5-0.3,0.7c0,0.5-0.4,1.2-1.4,1.2c-0.6,0-1.4-0.1-1.8-0.4c-0.7,0-1.8-0.9-2.5-0.9
		c-0.8,0-2.2,0.5-2.5,0.5S284.7,53.4,284.5,53.6z M282.5,68.3c0.4,0,0.7,0,0.7-0.2s-0.8-0.5-1.2-0.5c-0.2,0-0.2,0.2-0.2,0.4
		L282.5,68.3z M286.1,50.5c-0.4-0.3-0.8-0.6-1.3-0.6c-0.1,0-0.2,0-0.3,0c-1.1,0.1-2.3,0.9-2.6,1.9c0.4-0.6,1.2-0.9,1.8-1.1
		C284.5,50.6,285.4,50.5,286.1,50.5z M291.1,66c-0.5,0.4-2.1,1.7-3.3,1.7c-0.8,0-2.2,0.1-3.2,0.1c0.3,0.1,0.6,0.4,1,0.5
		c0.3,0,1,0.1,1.4,0.1c0.4,0,1.5-0.3,2.7-0.7C290,67.7,291.1,66.4,291.1,66z"/>
	<path class="st1" d="M306.4,71.2c-0.7,0-1.4-0.3-2.1-0.4c-1.4-0.2-2.8-1-3.6-1.8c-0.7-0.7-1.5-1.1-1.8-2c-0.5-1.2-1-2.4-1-3.6
		c0-1.3,0-2.4,0-3.6c0-0.9,0.2-1.7,0.2-2.6c0-1.1-0.3-1.9-0.5-3c0.1-0.3,0.3-0.6,0.4-0.9c0.3-0.7,0.4-1.5,0.7-2.1
		c0.5-1.2,2.2-3.1,3-3.1c0.7,0,1.4,0,2-0.2c1.2-0.5,2.5-0.9,3.9-0.9c1,0,3,0.6,4.2,1.3c1.9,1,2.9,3,2.9,4.9c0,0.8-0.1,1.5-0.1,2.3
		c-0.1,1.5-0.2,2.7-1.7,3.7c-1,0.6-2.2,0.7-3.4,0.8c-1.7,0-3.5-0.1-5.2-0.1c0.1,0.9,0.3,1.8,0.6,2.8c0.5,1.6,3.3,2.7,5.2,2.8
		c0.9,0,1.7-0.7,2.7-0.7c1,0,1.5,1.8,1.5,2.8c0,2.5-3.8,3.6-5.6,3.6C308.1,71.1,306.9,71.2,306.4,71.2z M302.2,66.1
		c-0.3-0.7-1.3-1.3-1.3-2.1c0-1,0.1-1.9,0.1-2.8v-1.6c0-0.6,0-1.3,0-1.9c0-1.3,0.4-2.5,0.5-3.7c0-0.9,0.5-1.8,0.6-2.7
		c-1.3,0.7-1.6,2.3-1.6,3.6v2c0,1.7-0.2,3-0.2,3.7c0,2.1,0.1,4.8,1.9,6.3C302.3,66.6,302.3,66.3,302.2,66.1z M305,68.1
		c0.5,0.1,1.1,0.2,1.6,0.2c0.7,0,1.4-0.1,2-0.3c-0.6-0.3-1.2-0.4-1.7-0.4c-0.3,0-0.6,0-0.8,0C305.6,67.7,305.3,67.9,305,68.1z
		 M310.8,53.5c-1-1-1.6-2.3-3.2-2.3c-0.6,0-1.3,0.2-1.8,0.6c-0.8,1.2-0.6,2.9-0.7,4.4c0.8,0.2,1.7,0.2,2.5,0.2
		C309.9,56.5,310,55.9,310.8,53.5z"/>
	<path class="st1" d="M322.6,70.6c-0.8,0-1.3,0.7-2.1,0.7c-1.5-0.1-1.5-1.7-1.5-2.8c0-1.5,0.3-3.1,0.3-4.6c0-0.7-0.2-1.5-0.2-2.2
		c0-0.8,0.1-1.5,0.1-3.8c0-1.5,0.2-3.1,0.2-4.7c0-0.9-0.2-2-0.2-3c0-0.7,0.1-1.4,0.1-2c0-2.5-0.4-4.9-0.4-7.3c0-1.4,0.2-2.8,0.2-4.3
		c0-0.6,0-1.1,0.1-1.7c0.2-0.6,2.3-1.4,3.2-1.4c0.4,0,0.8,0.3,1.1,0.6c0.6,0.6,1.2,1.1,1.2,2c0,0.8-0.2,1.6-0.2,2.4
		c0,1.6,0.1,3.2,0.1,4.8c0,0.3,0,0.7,0,1.1c0,1.1,0.1,2.1,0.1,3.1c0,1-0.3,2-0.3,3.1c0,1.1,0.1,2.2,0.1,3.2c0,2.8-0.3,4.7-0.4,6.5
		c0,0.9,0.2,1.5,0.3,2.1c0.1,1.1,0,2.3,0.2,3.4c0.1,1.2,0.8,2.2,0.8,3.3c0,0.8-0.6,1.3-1.3,1.3C323.7,70.7,323.2,70.6,322.6,70.6z
		 M322,58.1c-0.1,0.5-0.1,1.1-0.1,3.1c0,1.9-0.1,4.1-0.4,6.1c0,0.5,0.1,0.9,0.3,1.3c0.6-1.3,0.6-3.2,0.8-4.9
		C322.6,61.5,322.5,59.3,322,58.1z"/>
	<path class="st1" d="M348.6,56.8c0,1.2-0.1,3.9-0.1,4.4c0,1.5,0.2,3.1,0.2,4.6c0,0.9-0.3,2.6-0.3,3.5c0,0.5,0,3.7-0.3,5.9
		c-0.1,0.9-0.6,1.7-0.7,2.5c-0.1,0.7-0.7,2.1-1.1,2.6c-0.7,1.1-1.7,1.8-2.2,1.9c-0.4,0.1-1.2,0.7-2.3,0.7c-0.7,0-3,0.1-3.7,0.1
		c-1.7,0-3.5,0-4.9-0.7c-1.8-0.5-3-0.8-3-3.5c0-0.4,0.3-1.1,0.6-1.7c0.8-0.2,1.2-0.5,1.8-0.5c0.9,0,3,1,4.2,1c1.4,0,3.5-0.1,4.5-1
		c1-0.8,1.4-3.5,1.4-5.5c0-0.2,0-0.7,0-0.9c-1.3,0.9-3.9,0.8-4.2,1c-3.1,0-7.1-1-7.7-3.9c-0.2-1.1-0.9-2.1-0.9-3.2
		c0-1.4-0.3-2.8-0.4-4.2c0-1.8,0.1-3.7,0.5-5.5c0.1-0.5,0.7-1.4,0.7-2c0-0.5,0.7-2.1,1.2-3c0.9-1.4,2.4-2.1,3.9-2.1
		c1.1,0,1.7-0.2,2.4-0.2c0.6,0,1.9,0.4,2.5,0.7c0.5,0.2,1.2,1,1.6,1.5c0.3-0.5,0.5-1.3,0.9-1.9c0.5,0,1.5-0.2,2.1-0.2
		c0.6,0,1.1,0.1,1.7,0.2c1.1,0,1.5,0.9,1.5,2c0,1.5-0.1,3.7-0.1,4.4C348.4,54.3,348.6,56,348.6,56.8z M333.8,53.2
		c-1,0.5-1.6,3.1-1.6,5.1c0,1.7,0.4,4.6,0.8,4.6c0.3,0,0.3-1.5,0.3-2.2c0-0.7-0.2-1.3-0.2-3C333.1,56.5,333.8,54.3,333.8,53.2z
		 M336.3,79.7c-0.5,0-1.1,0-1.5,0c0.4,0.3,1,0.5,1.9,0.6L336.3,79.7z M342.7,57.1c-0.1-1.2-0.1-2.4-0.3-3.7c0-0.3-0.6-0.7-1.2-1
		c-0.8-0.3-2.4-0.3-2.9-0.3c-2.3,1-2.4,4-2.4,5.5v4.7c0,0.9,0,2.2,0.4,2.9c1,0.7,2.4,0.8,3.7,0.8c0.7,0,2.1-0.9,2.3-1.8
		c0.1-0.5,0.4-0.9,0.4-1.7C342.7,61.3,342.7,57.5,342.7,57.1z M337.7,80.2c0.7,0,1.2,0,1.3,0c1.1,0,4.1-0.8,4.2-1.8
		c-0.7,0-2.9,1.2-4.9,1.2L337.7,80.2z M345.5,59.2c0-0.8,0-3.1,0-3.8c0-1.1,0.1-1.6,0.1-2.4c0-0.6-0.3-1.7-0.6-1.7
		c-0.2,0.4-0.2,2.3-0.2,3.5c0,1.3,0.2,5.7,0.4,7.8C345.4,62.2,345.5,59.6,345.5,59.2z"/>
	<path class="st1" d="M360.9,71.2c-0.7,0-1.4-0.3-2.1-0.4c-1.4-0.2-2.8-1-3.6-1.8c-0.7-0.7-1.5-1.1-1.8-2c-0.5-1.2-1-2.4-1-3.6
		c0-1.3,0-2.4,0-3.6c0-0.9,0.2-1.7,0.2-2.6c0-1.1-0.3-1.9-0.5-3c0.1-0.3,0.3-0.6,0.4-0.9c0.3-0.7,0.4-1.5,0.7-2.1
		c0.5-1.2,2.2-3.1,3-3.1c0.7,0,1.4,0,2-0.2c1.2-0.5,2.5-0.9,3.9-0.9c1,0,3,0.6,4.2,1.3c1.9,1,2.9,3,2.9,4.9c0,0.8-0.1,1.5-0.1,2.3
		c-0.1,1.5-0.2,2.7-1.7,3.7c-1,0.6-2.2,0.7-3.4,0.8c-1.7,0-3.5-0.1-5.2-0.1c0.1,0.9,0.3,1.8,0.6,2.8c0.5,1.6,3.3,2.7,5.2,2.8
		c0.9,0,1.7-0.7,2.7-0.7c1,0,1.5,1.8,1.5,2.8c0,2.5-3.8,3.6-5.6,3.6C362.6,71.1,361.5,71.2,360.9,71.2z M356.8,66.1
		c-0.3-0.7-1.3-1.3-1.3-2.1c0-1,0.1-1.9,0.1-2.8v-1.6c0-0.6,0-1.3,0-1.9c0-1.3,0.4-2.5,0.5-3.7c0-0.9,0.5-1.8,0.6-2.7
		c-1.3,0.7-1.6,2.3-1.6,3.6v2c0,1.7-0.2,3-0.2,3.7c0,2.1,0.1,4.8,1.9,6.3C356.8,66.6,356.8,66.3,356.8,66.1z M359.5,68.1
		c0.5,0.1,1.1,0.2,1.6,0.2c0.7,0,1.4-0.1,2-0.3c-0.6-0.3-1.2-0.4-1.7-0.4c-0.3,0-0.6,0-0.8,0C360.2,67.7,359.9,67.9,359.5,68.1z
		 M365.4,53.5c-1-1-1.6-2.3-3.2-2.3c-0.6,0-1.3,0.2-1.8,0.6c-0.8,1.2-0.6,2.9-0.7,4.4c0.8,0.2,1.7,0.2,2.5,0.2
		C364.5,56.5,364.6,55.9,365.4,53.5z"/>
	<path class="st1" d="M373.4,69.4c0-0.4,0.1-0.7,0.2-1.1c0.1-1,0.2-1.8,0.2-2.8c0-0.5,0-1,0-1.5c0-0.6,0.1-1.1,0.1-1.7
		c0-0.9-0.1-1.7-0.1-2.6c0-4.3-0.3-6.9-0.3-9.5c0-1.1,0.3-3,1.6-3c0.9,0,1.7,0.3,2.7,0.3c0.6,0,1.2-0.1,1.8-0.1
		c0.8,0.5,0.8,2.4,0.8,3.8c1.3-1,1.9-2.4,2.9-2.7c0.8-0.2,1.6-0.2,2.4-0.5c0.5-0.1,0.9-0.2,1.4-0.2c1.3,0,3,0.8,4,1.7
		c1.4,1.3,1.2,2.9,1.4,4.4c0.2,1.3,0.3,3.6,0.3,5.1c0,1.9,0.2,2.7,0.2,3.5c0,0.9-0.1,1.8-0.1,2.7c0,1.6,1,3,1,4.4
		c0,1.5-1.9,1.4-3,1.5c-1.3-0.2-4.7-1.5-4.7-3.5c0-0.1,0-0.3,0.1-0.5c0.6-2.4,0.1-4.9,0.6-7.3c0-2.9-0.4-5.9-1.6-5.9
		c-0.1,0-0.2,0-0.4,0c-2.1,0.5-2.7,1.6-3.9,2.8c-0.8,0.8-1.3,1.9-1.3,3c0,1.6,0.6,4.1,0.6,6.1c0,1.7,0.8,2.2,1.1,3.3
		c-0.6,1.7-3,1.8-4.7,1.8C375.3,71.1,373.4,70.9,373.4,69.4z M377.1,50.4c-0.3,0.4-0.5,0.9-0.5,1.4c0,1.4-0.5,2.7-0.5,4.1
		c0,1.1,0.2,2.3,0.2,3.4c0,0.5,0.1,1.1,0.4,1.6c0.1-0.5,0.1-1.1,0.1-2.7c0-2.3,0.2-4.6,0.5-6.9L377.1,50.4z M376.6,62
		c0,0.4,0.1,0.8,0.2,1.2c0-0.3,0.1-0.6,0.1-0.9c0-0.4,0-0.8-0.2-1.2C376.7,61.4,376.6,61.7,376.6,62z M389.9,67.7
		c0.3-0.7,0.3-1.4,0.3-2.2c0-0.8,0-1.5-0.2-2.3c0-0.3,0-0.5,0-0.8c0-0.6,0-1.2,0-1.7c0-0.2,0-0.5,0-0.8c-0.5,1.3-0.5,2.8-0.5,4.1
		c0,0.4,0,0.9,0,1.4c0,0.5,0,1.1,0.2,1.6L389.9,67.7z"/>
	<path class="st1" d="M405.8,71.2c-1.3,0-1.8-0.3-2.5-0.4c-1.4-0.2-2.4-1.2-3.4-1.8c-1.7-1-2.2-2.7-2.3-5.7
		c-0.1-1.3-0.1-2.4-0.1-3.6c0-0.9,0.2-1.7,0.2-2.6c0-2.6,0.4-4.8,0.6-5.7c0.4-1.5,1.6-2.8,1.9-2.9c0.6-0.2,1-0.7,1.7-1
		c1.2-0.5,4-0.6,5.4-0.6c1,0,3.1,0.4,4.3,1c2,0.9,2.8,2.6,2.8,4.7c0,0.8-0.2,2-0.2,2.8c-0.1,1.5-0.2,3-1.5,4c-0.6,0-1.5,0.7-3.6,0.7
		c-1.7,0-3.6-0.1-5.3-0.1c0,0.9,0,2.1,0.3,3.1c0.5,1.6,2.6,2.3,4.7,2.3c1.4-0.3,1.8-1.1,3.1-1.1c0.4,0,0.7,0.5,1.2,0.5
		c0.6,0,0.7,0.9,0.7,1.2c0,0.3,0.2,0.8,0.2,1.2c0,1.9-3.8,3.9-5.5,3.9C408,71.1,406.9,71.2,405.8,71.2z M400.8,62.1
		c0-0.7-0.1-2.7-0.1-3.5c0-1.3,0.6-3.4,0.7-4.6c0-0.7,0.3-1.8,0.5-2.2c0.2-0.3,0.5-0.6,0.6-0.9c0-0.2,0-0.5,0-0.8
		c-0.6,0.5-1,1.5-1.3,2.2c-0.6,0.6-1.1,3.3-1.1,4.3c0,1.7-0.1,3.3-0.1,4c0,1.1,0,2.6,0.3,3.7L400.8,62.1z M409.8,55.2
		c0-0.3,0.2-1.2,0.2-1.9c0-0.3-0.3-1.3-0.8-1.5c-0.2-0.6-1.2-0.8-1.9-0.8c-1.5,0-2,0.7-2.6,1.1c-0.8,1.2-0.7,2.7-0.7,3.9
		c0.8,0.2,2.4,0.2,3.2,0.2C409.1,56.2,409.8,55.9,409.8,55.2z M405,67.8c0.5,0.1,1.3,0.6,1.8,0.6c1.1,0,2.6-0.6,3-1
		c-1.2,0.3-2.2,0.5-2.8,0.5c-1,0-2-0.4-2.3-0.5L405,67.8z"/>
	<path class="st1" d="M421.2,71.1c-1.1-0.5-2.6-0.5-2.6-2c0-0.4,0.1-0.7,0.2-1.1c0.2-2.5,0.3-4.8,0.3-7.3v-1.3
		c0-1.2,0.3-2.3,0.3-3.4c0-1.1-0.1-2.1-0.1-3.2c0-2.9,0-3.8,0.4-5.7c0.9,0,1.6,0.3,2.4,0.3c0.7,0,1.4-0.2,2-0.2
		c1.2,0,1.7,0.7,1.7,1.6c0,1.3-0.7,2.4-0.7,3.7c1-0.6,1.8-1.3,2.5-2.1c1.7-1.9,3.6-2.6,5.2-3.3c0.4-0.2,1.4-0.3,1.8-0.3
		c0.9,0,1.1,0.6,1.4,1.1c0.3,0.6,0.4,1.2,0.4,1.8c0,1.1-0.5,2.5-1.4,2.8c-1.2,0.3-2.4,0.3-3.5,0.7c-0.8,0.2-1.5,0.9-2,1.5
		c-0.9,0.7-1.7,2-2.3,3c-0.8,1.4-2.3,3.3-2.3,4.6c0,0.6,0.2,1.3,0.2,2.1c0.1,1.8,1.1,4.5,1.1,5.6c0,1.1-2.9,1.6-3.4,1.6
		C422.3,71.5,421.8,71.2,421.2,71.1z M422.4,66.8c0-0.9-0.6-1.7-0.6-2.7c0-0.6,0-1.3,0-3.4c0-0.8,0.1-1.5,0.1-2.3
		c0-0.5,0-1.2-0.4-1.4c-0.2,0.4-0.5,0.8-0.6,1.3c0,0.7,0.1,1.4,0.1,2.1c0,0.8-0.1,1.6-0.1,2.7c0,1,0,2,0,3c0,0.8,0.2,1.9,1.1,2.3
		C422.1,67.8,422.4,67.3,422.4,66.8z M421.2,55.4c0,0.5,0.1,1.1,0.3,1.5c0.2-0.7,0.3-1.5,0.3-2.3v-1.3c0-0.7,0-1.5,0-2.2
		c0-0.3,0-0.7,0-1.1c-0.3,0.6-0.4,1.3-0.4,1.9v1.1c0,0.3,0,0.7,0,1C421.3,54.6,421.2,55,421.2,55.4z"/>
	<path class="st1" d="M457.1,69.3c0,1.3-1.5,1.7-2.5,1.9c-0.7,0.1-1.6,0.7-1.9,0.7c-1.2,0-1.6-1.1-1.7-2.1c-0.7,0.1-1.4,0-2,0.3
		c-1.3,0.5-2.6,1-4.1,1c-2.9,0-7.1-1.9-7.1-6.3c0-1.5,0.1-2.7,0.1-3.3c0-0.9,0-2.6,0.4-3.5c0.9-2,3.8-2.2,6.5-2.2c1.2,0,2.3,0,3.3,0
		c-0.2-1.7-1.2-4.1-3.3-4.1c-0.8,0-1.8,0.2-2.6,0.2c-1,0.1-2,0.8-2.8,0.8c-0.5,0-1.5-1.2-1.5-1.7c0-2.4,3.5-3.8,5.6-3.8
		c0.4,0,1.7-0.1,2.4-0.2c1.3,0.1,4.3,0.6,5.7,2c0.6,0.6,1.5,1.2,1.8,2c0.6,1.2,1.2,2.5,1.2,4.1c0,2.4-0.2,4.4-0.2,5.5
		c0,0.8,0.1,1.6,0.4,2.5c0.4,1.2,0.9,2.5,2,5.1C457,68.5,457.1,68.9,457.1,69.3z M448,61.1v-1.2c-0.6-0.1-1.3-0.1-1.9-0.1
		c-1.8,0-2.7,0-3.1,0.9c-0.3,0.6-0.4,1.7-0.6,3.5c0.8,1.8,2.1,2.1,3.1,2.1c0.7,0,1.4-0.2,1.9-0.6C448,64.8,448,62.7,448,61.1z
		 M451.4,53.8c0,0.6,0,1.1,0,2.1c0,1.5,0.1,3.1,0.1,4.6c0,1.1-0.3,2.2-0.3,3.5c0,0.9-0.4,1.7-0.5,2.7c1.2-0.8,1.5-2,1.5-3.3
		c0-1.4,0-2.3,0-3.3c0-0.8,0.1-1.6,0.1-2.4c0-2.2-0.1-4.9-2.1-6.5C450,52.5,451,52.6,451.4,53.8z"/>
	<path class="st1" d="M468.2,70.9c-2.3-0.4-4.7-1.7-5.1-4.3c-0.1-1.2-0.6-1.8-0.6-3.1c0-1-0.1-2.2-0.1-3.3c0-2.1,0.1-5.1,0.1-7.2
		c-2.3,0-3.9-0.1-5-0.9c-0.2-0.1-0.7-0.5-0.7-1.8c0-0.5,0.3-1.1,0.3-1.5c0-1,0.8-1.3,1.5-1.3c2.1,0,2.7-0.1,3.9-0.1
		c0-0.8,0-2.7,0-3.9c0-0.5,0-0.9,0-1.4c0-1.7,0.1-3.7,0.5-5.2c0.1-0.6,0.2-0.3,0.4-0.9c0-0.8,1.7-1.5,3.1-1.5c1,0,2.7,0.8,2.7,1.9
		c0,1.3-0.2,3-0.2,4.6c-0.2,0.7-0.3,3.6-0.3,4.4c0,0.8,0.2,1.3,0.2,2.1c0.8,0,1.7,0,2.5,0c2.2,0,3.7,0,4.2,0.2
		c0.8,0.3,1.7,1.3,1.7,2.5c0,1.4-1,2.8-2.8,2.8h-4.2c-0.8,0-1,0-1.4,0.7c-0.2,0.9-0.3,3.7-0.3,4.2c0,1.6,0.3,2.7,0.3,4.3
		c0,1.4,0.7,2.8,1.4,3.1c0.9,0,2-0.1,3.3-0.1c0.5,0,1.1,0.1,1.7,0.2c0.7,0.5,1,1.3,1,2c0,2.7-2.5,3-4.6,3.3
		C471,70.9,468.7,70.9,468.2,70.9z M466,63.1c0-0.8-0.1-1.6-0.1-2.2c0-1-0.1-1.9-0.1-3.4c0-1.2,0.1-3.2,0.1-4.5l-0.7,0
		c-0.3,2-0.3,4.7-0.3,6.8c0,1.3,0.3,1.6,0.3,2.9c0,0.5,0.9,2.8,1.3,2.8C466.1,64.6,466,63.9,466,63.1z M465.3,47.5
		c0.6,0,0.5-0.2,0.6-1c0-2.9,0.1-6.4,0.1-8.5c0-0.3-0.1-0.6-0.2-1c-0.6,1.5-0.6,3.1-0.6,4.7C465.2,43.8,465.3,45.5,465.3,47.5z"/>
	<path class="st1" d="M481.7,68.8c-0.6-0.4-0.8-1.1-1.2-1.6c-0.4-0.7-0.9-1.3-1-2.1c0-1-0.3-2.1-0.3-3.1c0-0.7,0.2-1.4,0.2-2
		c0-0.5-0.1-1.1-0.1-1.7c0.1-2.7,0.9-5.9,2.4-8.4c0.3-0.4,0.8-0.6,1.3-0.9c0.8-0.5,1.6-1.2,2.6-1.5c1-0.2,2.2-0.3,3.1-0.3
		c3.6,0,8,1.1,9.6,4.8c0.8,2.3,1.5,4.6,1.5,6.8c0,1.5-0.1,3-0.3,4.4c-0.3,1.8-0.1,3.5-1,5.1c-1.1,2.2-2.1,3-5.9,3
		C489.1,71.3,484.9,71.3,481.7,68.8z M485,67.3c-0.3-1.2-1.5-2.1-1.5-3.4c0-2.7,0.2-5.3,0.5-7.9c0.1-0.9,0.1-1.8,0.4-2.7l0.7-1.5
		c-0.5,0.1-1.4,0.5-1.6,1c-1,2.1-1.5,4.1-1.5,6.5v1.3c0,1.3,0,2.5,0.2,3.7c0.2,1.2,1.3,3.2,2.3,3.2C484.8,67.3,484.9,67.3,485,67.3z
		 M491.7,67c1.4-1.1,2.2-2.5,2.5-4.2c0-1-0.2-1.6-0.2-2.2s0.3-1.7,0.3-2.8c0-0.7-0.1-1.4-0.4-1.9c-0.7-1.3-1-2.9-3.3-2.9
		c-0.6,0-1.2,0.1-1.7,0.1c-0.3,0-0.6,0-0.8-0.1c-0.3,0.3-0.6,0.7-0.8,1.3c-1,3-1.2,6-1.2,9.2c0,0.2,0,0.5,0.2,0.7
		c0.6,0.8,2.9,2.4,3.6,2.4C490.6,66.5,491.2,66.8,491.7,67z"/>
	<path class="st1" d="M506.6,71.1c-1.1-0.5-2.6-0.5-2.6-2c0-0.4,0.1-0.7,0.2-1.1c0.2-2.5,0.3-4.8,0.3-7.3v-1.3
		c0-1.2,0.3-2.3,0.3-3.4c0-1.1-0.1-2.1-0.1-3.2c0-2.9,0-3.8,0.4-5.7c0.9,0,1.6,0.3,2.4,0.3c0.7,0,1.4-0.2,2-0.2
		c1.2,0,1.7,0.7,1.7,1.6c0,1.3-0.7,2.4-0.7,3.7c1-0.6,1.8-1.3,2.5-2.1c1.7-1.9,3.6-2.6,5.2-3.3c0.4-0.2,1.4-0.3,1.8-0.3
		c0.9,0,1.1,0.6,1.4,1.1c0.3,0.6,0.4,1.2,0.4,1.8c0,1.1-0.5,2.5-1.4,2.8c-1.2,0.3-2.4,0.3-3.5,0.7c-0.8,0.2-1.5,0.9-2,1.5
		c-0.9,0.7-1.7,2-2.3,3c-0.8,1.4-2.3,3.3-2.3,4.6c0,0.6,0.2,1.3,0.2,2.1c0.1,1.8,1.1,4.5,1.1,5.6c0,1.1-2.9,1.6-3.4,1.6
		C507.8,71.5,507.2,71.2,506.6,71.1z M507.9,66.8c0-0.9-0.6-1.7-0.6-2.7c0-0.6,0-1.3,0-3.4c0-0.8,0.1-1.5,0.1-2.3
		c0-0.5,0-1.2-0.4-1.4c-0.2,0.4-0.5,0.8-0.6,1.3c0,0.7,0.1,1.4,0.1,2.1c0,0.8-0.1,1.6-0.1,2.7c0,1,0,2,0,3c0,0.8,0.2,1.9,1.1,2.3
		C507.6,67.8,507.9,67.3,507.9,66.8z M506.7,55.4c0,0.5,0.1,1.1,0.3,1.5c0.2-0.7,0.3-1.5,0.3-2.3v-1.3c0-0.7,0-1.5,0-2.2
		c0-0.3,0-0.7,0-1.1c-0.3,0.6-0.4,1.3-0.4,1.9v1.1c0,0.3,0,0.7,0,1C506.7,54.6,506.7,55,506.7,55.4z"/>
</g>
</svg>
