<?xml version="1.0" encoding="utf-8"?>
<!-- Generator: Adobe Illustrator 24.1.2, SVG Export Plug-In . SVG Version: 6.00 Build 0)  -->
<svg version="1.1" xmlns="http://www.w3.org/2000/svg" xmlns:xlink="http://www.w3.org/1999/xlink" x="0px" y="0px"
	 viewBox="0 0 595.3 569.5" style="enable-background:new 0 0 595.3 569.5;" xml:space="preserve">
<style type="text/css">
	.st0{fill:#DD7273;}
	.st1{fill:#3B3561;}
	.st2{fill:#FFFFFF;}
	.st3{fill:none;stroke:#3B3561;stroke-width:10;stroke-miterlimit:10;}
</style>
<g id="TV">
	<path class="st0" d="M574.6,557.9h-555c-6.6,0-12-5.4-12-12V153.2c0-6.6,5.4-12,12-12h555c6.6,0,12,5.4,12,12v392.8
		C586.6,552.5,581.2,557.9,574.6,557.9z"/>
	<path class="st1" d="M487.9,515.7H106.2c-22,0-40-18-40-40V223.4c0-22,18-40,40-40h381.7c22,0,40,18,40,40v252.3
		C527.9,497.7,509.9,515.7,487.9,515.7z"/>
	<path class="st1" d="M185.1,142h182.8C367.9,142,275.2,19.3,185.1,142z"/>
	<g>
		<path class="st2" d="M210.5,370.6c-4.7,0-4.7-2.3-6.2-5c-0.4-0.8-1.1-1.4-1.1-2.5c0-3.4,0-6.2-0.8-8.8c0.4-1.2,0.6-2.3,0.6-3.6
			c0-2.7-0.7-5.5-0.7-10.8c0-3.1-0.5-6.2-0.5-9.4c0-5.1-0.5-8.7-0.6-12.2c-1.3,2-3,3.9-3.5,6.5c-1.1,3.2-1.5,6.6-2.9,9.6
			c-0.6,1.3-0.9,2.4-1.1,3.7c-0.3,1.8-1.5,3.2-2,4.9c-1.5,5.3-3,10.7-4.2,16.1c-0.4,1.5-1.8,2.4-3.1,3c-1.9,1-1.7,4-3.9,4.8
			c-5.8-3.7-3.4-6.8-5.5-9.7c-2.3-3.2-3.7-6.9-6.1-10c-1.2-1.4-1.6-3.5-2.2-5.2c-1.7-3.8-3.1-7.5-4.2-11.4c-0.6-1.9-1.8-3.5-2.8-5.2
			c-0.2,2-0.6,3.9-0.6,5.8c0,1.4,0.1,2.8,0.1,4.1c0,1.6-0.3,3.3-0.3,4.9c0,1.4,0.5,3,0.5,4.5c0,1.1-0.1,2.1-0.1,3.2
			c0,1.9,0.2,3.9,0.2,5.8c0,1.3-0.3,2.6-0.3,3.9c0,2.4,0.7,5,0.7,7.4c0,1.3-0.2,2.7-0.4,3.9c-1.4,0.7-2.3,1.1-3.9,1.1
			c-1.8,0-3.3,1.4-4.7,1.4c-4.5,0-5.2-5.3-5.2-7.2c0-2.5,0.5-4.9,0.5-11c0-2.2,0.5-4.1,0.5-6.4c0-4.4-0.7-8.9-1-13.4
			c0.2-3.4,0-6.7,0.3-10.2c0-1.2-0.1-2.3-0.1-3.5c0-2.3,0.1-4.7,0.1-6.9c-0.1-0.9-0.1-1.7-0.1-2.6c0-1,0.1-1.8,0.1-2.7
			c0-1.9-0.8-3.9-0.9-5.7c0.8-0.7,1.7-1.4,2.9-1.4c0.3,0,0.5,0,0.8,0.1c2.1,2.5,2.7,3.1,2.7,7.9c0,2.5-0.3,5-0.5,7.5
			c0,5.9-0.4,9.7-0.4,13.7c0,5.6,1.2,11.7,1.2,17.6c0,1.9-0.3,3.9-0.3,5.7c0,6.7,0,7.8-0.1,8.8h1.8c0.2-2.8,0.8-5.5,0.8-8.3
			c0-1.1-0.2-2.2-0.2-3.2c0-1.4,0.4-2.6,0.4-6.1c0-0.7,0-1.4,0.2-2.1c0.7-3.3,0.3-6.7,0.6-10c0.1-0.8,0.1-1.4,0.1-2.2
			c0-1.9-0.2-3.9-0.2-6c0-1.5-0.6-2.9-0.6-4.4c0-1.1,0.1-2.1,0.1-3.3c0-6.3-1.5-6.6-1.9-10.2c-0.2-1.9-1.8-3.5-2-5.3l1.7-1.9
			c1.8,0,5.6-0.1,6.1-0.1c0.8,1.1,1.5,2.3,1.5,3.7c0,0.9-0.3,1.6-0.4,2.4c1.9,2.4,3.3,5.3,4.6,8c2.1,4.4,4.8,8.4,7.1,12.7
			c1.4,2.8,2.2,5.8,3.6,8.6c1,2,3,7.4,4.4,8.8h0.9c0.8-3.1,2.4-6,3.2-9.1c0.6-2.5,1.3-4.8,2.1-7.3c1-2.7,1.6-5.6,3-8
			c1.3-2.5,1.9-5.5,3-8.1c0-0.1,0-0.3,0.1-0.4c0.9-2.3,2.9-6.6,5-6.6c1,0,1.9,0.3,2.8,0.6c0.4-1.2,0.5-2.4,0.5-4.7
			c1.3-0.3,2.8-0.6,4.1-0.8l1,1.3c2.8-0.6,5.9-0.3,8.8-0.5c1.4,1.9,2.1,3.9,2.1,6.4c0,4.6-0.6,9.1-0.6,14.6
			c-0.3,2.5-0.5,5.1-0.5,7.3c0,7.3,0.9,11.2,0.9,16.2c0,0.9-0.2,1.7-0.2,4.5c0,1.3-0.4,2.5-0.4,3.9c0,1.8,0.4,3.8,0.4,5.6
			c0.2,2.8,0.1,5.7,1.3,8.3c0.9,1.9,1.3,3.9,1.5,5.9c-1.3,0.6-2.5,1.4-3.9,1.4C212.9,373.2,211.7,371.7,210.5,370.6z M187.1,339.6
			h-0.4l-0.1,0.3l0.2,0.4l0.4-0.2L187.1,339.6z M187.8,337c0.9-1.5,1.8-3,2.4-4.6c0.6-2.1,1.3-4.2,1.6-6.5c-0.9,0.8-1.6,1.5-1.8,2.7
			c-0.6,2.5-2.3,4.8-2.3,7.5C187.7,336.4,187.7,336.7,187.8,337z M192.9,322.3c-0.7,0.9-1,1.7-1,2.8c0,0.3,0,0.6,0.1,0.9
			C192.3,324.8,192.8,323.4,192.9,322.3z M193.7,321.3c0-0.2-0.2-0.4-0.5-0.6c-0.3,0.2-0.4,0.4-0.4,0.5c0,0.2,0.2,0.4,0.5,0.5
			C193.5,321.6,193.7,321.4,193.7,321.3z M194.3,319.6c0-0.3-0.3-0.6-0.5-0.6c-0.2,0-0.5,0.3-0.5,0.6c0,0.2,0.2,0.5,0.4,0.5
			s0.3-0.1,0.4-0.2C194.2,319.8,194.3,319.7,194.3,319.6z M195.4,316.5c0.5,0,1-0.8,1-1.2c0-0.2-0.1-0.3-0.4-0.3c-0.4,0-1,0.7-1,1.2
			C195.1,316.4,195.2,316.5,195.4,316.5z M197.4,312v-0.7c-0.5,1.2-0.8,2.4-0.9,3.6C197.1,314.1,197.4,313.1,197.4,312z
			 M209.6,355.1c0-2.1,0-3.1-0.1-4.1c-0.1-1.3-0.8-2.7-0.9-4.1c-0.2-1.9-0.1-3.9-0.4-5.9c-0.2-1.6-0.5-3.3-0.5-5
			c0-1,0.2-1.8,0.2-2.7c0-1.3-0.5-2.4-1-3.5c0,0.4-0.1,0.8-0.1,1.2c0,2.3,0.5,4.7,0.6,7c-0.1,0.9-0.5,1.7-0.8,2.6
			c0.3,0.9,0.7,1.7,0.8,2.7C207.8,347.1,207.6,352.9,209.6,355.1z M206.9,306.8c0,0.3,0.1,0.5,0.4,0.5c0.4,0,0.7-0.6,0.7-1
			c0-0.3-0.1-0.5-0.6-0.5C207.1,306,206.9,306.4,206.9,306.8z M210.2,359.6c-0.1-1.3-0.4-2.5-0.5-3.8c-0.6,1.2-1,2.4-1,3.7
			c0,0.3,0.1,0.6,0.1,0.9C209.3,360.1,209.7,359.8,210.2,359.6z"/>
		<path class="st2" d="M255.5,323.8c1.9,0.5,4.1,1.6,5.8,2.6c1,0.6,1.9,1,2.6,1.8c3,5.1,3.9,11.7,4.1,17c0,1.2-0.2,2.3-0.2,3.4
			c0,1.3,0.4,2.7,0.4,4c0,1.9-0.5,4.1-0.6,6.2c-0.1,1.5-1.7,3.3-1.7,4.8c0,2-2.1,4-3.7,5c-3.2,1.9-9.3,2.9-14,2.9
			c-6.8,0-14.6-1.1-17.7-6.5c-1.5-4.5-2.7-11.6-2.7-15.9c0-3.1,0.2-5.9,0.7-8.8c0.6-3.6,2.4-8.5,2.4-10.2c0-2.2,5.5-6.9,10.9-6.9
			c2,0,4-0.2,7.4-0.2C251.1,323,253.4,323.3,255.5,323.8z M235.6,339.4l1.1-2.3c0-2,1.1-4,2.5-5.9c-1.1,0.2-3.2,1.3-3.2,2
			c0,3.3-1.9,4.5-1.9,11.2C235,344.4,235.4,340.9,235.6,339.4z M248.7,362.7c3.3,0,4.7-1.2,5.9-2.4c0.8-0.9,0.9-2.3,0.9-4.1
			c0.4-1.1,0.5-3.7,0.7-4.8c0.3-1.7,0.3-3.4,0.3-5.2c0-2.4-0.7-5-0.7-8.4c0-2.7-1.3-4.3-4.7-4.3c-2.2,0-4.2-0.5-6.5-0.5
			c-2.6,0.8-4.3,6.2-4.3,8.7c0,1.9,0.1,3.2,0.1,4.4s-0.4,2.4-0.4,4.5c0,1.4,0.2,3.2,0.5,4.3c0.6,2.4-0.1,5,2.2,5.7
			c0.5,0.9,1.8,1.8,4.4,1.8C247.5,362.4,248.4,362.6,248.7,362.7z M261.6,343.8c-0.6,0.7-1,2.8-1,4.9c0.3,0.2,0.4,0.8,0.4,1.4
			c0,4.4-1,6-1,8.2c0,2.5-1.3,4.8-3.2,6.7c0.2,0.1,0.4,0.2,0.6,0.2c1.3,0,3.9-4.6,3.9-6.4c0.5-1.2,1.2-3.9,1.2-6.2
			C262.6,350.5,262.2,345.2,261.6,343.8z"/>
		<path class="st2" d="M284.4,394.6c-1.9,0-3.9,0-5.6-1.3c-1.4-1.3-1.7-3.7-1.7-5.4c0-1.6,0.9-3,0.9-4.5c0-1.6-0.4-3.3-0.4-4.9
			c0-2.1,0.3-4,0.3-5.9c0-3.3-0.3-6.3-0.3-10c0-3,1-6,1-9.2c0-2.2-0.2-4.5-0.2-7.6c0-3-0.6-5.9-0.6-8.8c0-1.1,0.2-2.2,0.2-3.3
			c0-3.4-1.2-6.4-1.2-9.6c0.3-1.2,1.6-1.8,3-1.8c1.4,0,3.1,0.7,4.7,0.7c1.3,0,2.8,0,3.9,0.7c1.3,0.8,2.1,2,3.1,3.1
			c2.3-2.1,4.4-3.4,8.5-3.4c2.6,0,7.2,0.8,10.3,2.9c2.2,1.5,3.9,3.3,5.1,5.7c1,2.8,0.9,7.6,1.4,10.4c0.1,0.7,0.2,1.3,0.2,2
			c-0.1,2.9-1.1,5.8-2.5,12.2c-1.5,7-9.1,8.2-14.3,8.2c-3.3,0-5.5-0.7-9.7-0.7c-0.2,1.6-0.4,3.3-0.4,4.4c0,2.5,0.2,4,0.2,5.5
			c0,0.9,0,1.7-0.1,2.9c0.1,4.2,1.1,8.3,2,12.3c0.1,0.9,0.4,2.1,0.4,2.9c0,1.3-1,2.7-2.4,2.7C288.1,394.7,286.2,394.6,284.4,394.6z
			 M286.6,387.9c-1-2.8-1.6-6.9-1.6-9.4c0-1.3,0.2-2.8,0.2-4.1c0-1.6-0.3-3.7-0.3-4.6c0-1.1,0.2-3.5,0.2-5.5c0-1.3-0.2-2.6-1-3.8
			c-0.8,1.6-0.9,3.5-0.9,5.3v2.2c0,1.4-0.1,2.8-0.1,3.8c0,1.2,0.2,2.4,0.2,6.5c0,1.9,0.2,3.9,0.5,5.9c0.2,1.5,1,2.8,1.5,4.2
			L286.6,387.9z M283.9,355.4c1.2-1.7,1.6-4.6,1.6-6.6c0-1.5-0.4-3.1-0.8-4.6c-0.4,1.3-0.7,2.7-0.7,3.9
			C284.1,351.2,283.9,352.8,283.9,355.4z M302.3,353c1.1-1.1,1.6-3,1.9-4.5c0.4-1.7,0.7-3.4,0.7-5.1c0-0.8-0.1-2.6-0.3-3.4
			c-1-3.6-4.5-5.6-7.7-5.6c-1.6,0-5.8,1.2-5.8,3.4c-0.6,4.2-0.7,8.6-0.7,12.7c0,2.5,2.8,3.9,5.1,3.9
			C297.5,354.4,300.3,354.3,302.3,353z M310.6,338.6c-0.6-1.6-1.2-3.1-2.1-4.5c-0.7-1-3.3-3.2-4.4-3.2c1.3,1.8,2.6,3.6,3.9,5.4
			C308.7,337,309.6,337.7,310.6,338.6z M311.6,344.7c0-1.9-0.3-3.8-0.7-5.6c-0.6,4.8-1.3,9.9-1.5,14.7c0.7-2,1.3-4.1,1.9-6.3
			C311.5,346.6,311.6,345.7,311.6,344.7z"/>
		<path class="st2" d="M332.8,394.6c-1.9,0-3.9,0-5.6-1.3c-1.4-1.3-1.7-3.7-1.7-5.4c0-1.6,0.9-3,0.9-4.5c0-1.6-0.4-3.3-0.4-4.9
			c0-2.1,0.3-4,0.3-5.9c0-3.3-0.3-6.3-0.3-10c0-3,1-6,1-9.2c0-2.2-0.2-4.5-0.2-7.6c0-3-0.6-5.9-0.6-8.8c0-1.1,0.2-2.2,0.2-3.3
			c0-3.4-1.2-6.4-1.2-9.6c0.3-1.2,1.6-1.8,3-1.8c1.4,0,3.1,0.7,4.7,0.7c1.3,0,2.8,0,3.9,0.7c1.3,0.8,2.1,2,3.1,3.1
			c2.3-2.1,4.4-3.4,8.5-3.4c2.6,0,7.2,0.8,10.3,2.9c2.2,1.5,3.9,3.3,5.1,5.7c1,2.8,0.9,7.6,1.4,10.4c0.1,0.7,0.2,1.3,0.2,2
			c-0.1,2.9-1.1,5.8-2.5,12.2c-1.5,7-9.1,8.2-14.3,8.2c-3.3,0-5.5-0.7-9.7-0.7c-0.2,1.6-0.4,3.3-0.4,4.4c0,2.5,0.2,4,0.2,5.5
			c0,0.9,0,1.7-0.1,2.9c0.1,4.2,1.1,8.3,2,12.3c0.1,0.9,0.4,2.1,0.4,2.9c0,1.3-1,2.7-2.4,2.7C336.5,394.7,334.6,394.6,332.8,394.6z
			 M335,387.9c-1-2.8-1.6-6.9-1.6-9.4c0-1.3,0.2-2.8,0.2-4.1c0-1.6-0.3-3.7-0.3-4.6c0-1.1,0.2-3.5,0.2-5.5c0-1.3-0.2-2.6-1-3.8
			c-0.8,1.6-0.9,3.5-0.9,5.3v2.2c0,1.4-0.1,2.8-0.1,3.8c0,1.2,0.2,2.4,0.2,6.5c0,1.9,0.2,3.9,0.5,5.9c0.2,1.5,1,2.8,1.5,4.2
			L335,387.9z M332.3,355.4c1.2-1.7,1.6-4.6,1.6-6.6c0-1.5-0.4-3.1-0.8-4.6c-0.4,1.3-0.7,2.7-0.7,3.9
			C332.5,351.2,332.3,352.8,332.3,355.4z M350.7,353c1.1-1.1,1.6-3,1.9-4.5c0.4-1.7,0.7-3.4,0.7-5.1c0-0.8-0.1-2.6-0.3-3.4
			c-1-3.6-4.5-5.6-7.7-5.6c-1.6,0-5.8,1.2-5.8,3.4c-0.6,4.2-0.7,8.6-0.7,12.7c0,2.5,2.8,3.9,5.1,3.9
			C345.9,354.4,348.8,354.3,350.7,353z M359.1,338.6c-0.6-1.6-1.2-3.1-2.1-4.5c-0.7-1-3.3-3.2-4.4-3.2c1.3,1.8,2.6,3.6,3.9,5.4
			C357.2,337,358,337.7,359.1,338.6z M360,344.7c0-1.9-0.3-3.8-0.7-5.6c-0.6,4.8-1.3,9.9-1.5,14.7c0.7-2,1.3-4.1,1.9-6.3
			C359.9,346.6,360,345.7,360,344.7z"/>
		<path class="st2" d="M388.1,371c-2.6,0-3.6-0.6-5-0.8c-2.8-0.4-4.7-2.4-6.7-3.6c-3.4-1.9-4.3-5.4-4.5-11.3
			c-0.3-2.5-0.3-4.7-0.3-7.1c0-1.7,0.5-3.5,0.5-5.2c0-5.2,0.8-9.6,1.3-11.4c0.8-2.9,3.3-5.6,3.9-5.8c1.3-0.4,2-1.4,3.4-2
			c2.4-1,7.9-1.2,10.7-1.2c2,0,6.2,0.9,8.6,1.9c3.9,1.7,5.5,5.2,5.5,9.3c0,1.5-0.4,4-0.5,5.6c-0.2,3-0.4,5.9-2.9,8
			c-1.2,0-3,1.4-7.1,1.4c-3.5,0-7.1-0.2-10.5-0.2c0,1.8,0,4.2,0.7,6.1c1.1,3.2,5.1,4.5,9.3,4.5c2.8-0.6,3.6-2.1,6.1-2.1
			c0.9,0,1.4,1.1,2.3,1.1c1.3,0,1.4,1.8,1.4,2.3c0,0.6,0.5,1.6,0.5,2.3c0,3.9-7.5,7.8-11,7.8C392.3,370.8,390.2,371,388.1,371z
			 M378.1,352.9c0-1.4-0.3-5.4-0.3-6.9c0-2.5,1.3-6.8,1.4-9.2c0.1-1.4,0.6-3.7,1.1-4.3c0.5-0.6,1-1.2,1.3-1.7c0.1-0.4,0.1-1,0.1-1.5
			c-1.2,1-1.9,3.1-2.5,4.3c-1.3,1.2-2.1,6.6-2.1,8.5c0,3.5-0.2,6.5-0.2,8c0,2.2,0.1,5.1,0.7,7.4L378.1,352.9z M396.1,339.2
			c0-0.7,0.5-2.3,0.5-3.9c0-0.6-0.7-2.6-1.6-3c-0.5-1.2-2.3-1.5-3.9-1.5c-3.1,0-3.9,1.4-5.1,2.1c-1.5,2.4-1.3,5.4-1.4,7.7
			c1.5,0.4,4.8,0.5,6.5,0.5C394.6,341.2,396.1,340.5,396.1,339.2z M386.3,364.3c1.1,0.2,2.5,1.2,3.7,1.2c2.1,0,5.1-1.3,5.9-2
			c-2.3,0.7-4.4,1-5.6,1c-1.9,0-3.9-0.8-4.6-1L386.3,364.3z"/>
		<path class="st2" d="M413.4,367.4c0-0.8,0.2-1.4,0.4-2.2c0.3-1.9,0.5-3.7,0.5-5.5c0-1.1-0.1-2-0.1-3.1c0-1.2,0.3-2.2,0.3-3.4
			c0-1.7-0.3-3.5-0.3-5.1c0-8.6-0.6-13.7-0.6-19c0-2.2,0.6-5.9,3.3-5.9c1.7,0,3.5,0.7,5.3,0.7c1.2,0,2.4-0.3,3.7-0.3
			c1.6,1.1,1.6,4.7,1.6,7.5c2.6-1.9,3.9-4.7,5.8-5.3c1.5-0.5,3.3-0.5,4.7-1c1-0.2,1.8-0.5,2.8-0.5c2.5,0,5.9,1.6,7.9,3.5
			c2.8,2.5,2.3,5.8,2.8,8.7c0.5,2.5,0.7,7.1,0.7,10.2c0,3.8,0.4,5.4,0.4,6.9c0,1.7-0.2,3.6-0.2,5.4c0,3.3,1.9,6,1.9,8.7
			c0,3.1-3.8,2.8-6,3.1c-2.5-0.4-9.4-3.1-9.4-6.9c0-0.3,0.1-0.7,0.2-1c1.3-4.8,0.3-9.7,1.2-14.5c0-5.7-0.9-11.7-3.3-11.7
			c-0.3,0-0.5,0-0.8,0.1c-4.1,1.1-5.4,3.2-7.7,5.5c-1.5,1.5-2.6,3.8-2.6,6c0,3.2,1.3,8.1,1.3,12c0,3.4,1.5,4.4,2.2,6.6
			c-1.3,3.5-6,3.7-9.4,3.7C417.1,370.7,413.4,370.4,413.4,367.4z M420.7,329.7c-0.6,0.8-1.1,1.7-1.1,2.7c0,2.8-1,5.3-1,8.2
			c0,2.2,0.5,4.5,0.5,6.8c0,1.1,0.3,2.2,0.9,3.2c0.3-1.1,0.3-2.2,0.3-5.4c0-4.5,0.5-9.1,1-13.7L420.7,329.7z M419.7,352.6
			c0,0.8,0.2,1.5,0.5,2.3c0.1-0.6,0.2-1.2,0.2-1.7c0-0.8-0.1-1.5-0.4-2.3C419.8,351.5,419.7,352,419.7,352.6z M446,364.1
			c0.6-1.4,0.7-2.7,0.7-4.4c0-1.5-0.1-3.1-0.4-4.6c-0.1-0.6-0.1-1.1-0.1-1.6c0-1.2,0.1-2.3,0.1-3.5c0-0.5,0-1-0.1-1.5
			c-1,2.5-1.1,5.5-1.1,8.2c0,0.9-0.1,1.8-0.1,2.8c0,1.1,0.1,2.2,0.4,3.3L446,364.1z"/>
		<path class="st2" d="M139.1,382.3v-4.8h318.9v4.8H139.1z"/>
	</g>
</g>
<g id="AntenneL">
	<line class="st3" x1="226" y1="106.5" x2="124.9" y2="5.4"/>
	<line class="st3" x1="320.4" y1="106.5" x2="421.4" y2="5.4"/>
</g>
</svg>
