<svg xmlns="http://www.w3.org/2000/svg" viewBox="0 0 578.97 556.07"><defs><style>.cls-1{fill:#dd7273;}.cls-2{fill:#3b3561;}.cls-3{fill:#fff;}.cls-4{fill:none;stroke:#3b3561;stroke-miterlimit:10;stroke-width:10px;}</style></defs><g id="TV"><rect class="cls-1" y="139.31" width="578.97" height="416.76" rx="12"/><rect class="cls-2" x="58.65" y="181.52" width="461.68" height="332.33" rx="39.99"/><path class="cls-2" d="M185.09,142h182.8S275.24,19.33,185.09,142Z" transform="translate(-7.6 -1.87)"/><path class="cls-3" d="M141.84,372.22c-1.06,0-2.41.48-3.66.48a3.87,3.87,0,0,1-3.47-1.93,9.94,9.94,0,0,1,1-4.72c2-3.56,1-8,1.92-11.84v-7.13a12.94,12.94,0,0,0,.48-2.12,3.82,3.82,0,0,1-.09-.48,23.74,23.74,0,0,1-.49-5.87,21.45,21.45,0,0,1-.38-4.91,31.18,31.18,0,0,0-.48-7.13c-.29-1.44-.19-2.79-.48-4.24a8.39,8.39,0,0,1-.29-2.21c0-.67.09-1.25.09-1.83,0-.87-.09-1.83-.09-2.7a44.3,44.3,0,0,1,.77-7.22c.19-1,0-2,.58-2.89.57-1.25,2-1.73,2.6-3.08a3,3,0,0,1,2.6-2.12c1.83,0,3.37.39,5.1.39a2.32,2.32,0,0,0,.77-.1c.1,0,.19.1.29.1.48,0,1-.29,1.54-.29a4.29,4.29,0,0,0,.48.1,10.82,10.82,0,0,0,3.47.38c.87,0,1.92.29,2.79.29,1.16,0,3-.77,4.24-.77a13,13,0,0,1,1.92.19,3.14,3.14,0,0,1,1.35-.29c1.16,0,2.51.58,3.76.58.19,0,.38-.1.58-.1.86,0,1.63.1,2.6.1h1.54a12.35,12.35,0,0,1,5,.87,28.89,28.89,0,0,1,3.28,2.4,8.4,8.4,0,0,1,2.12,2.51,6.41,6.41,0,0,1,1.54,3.37c0,6.16.86,9.63.86,13,0,5.1-2.11,9.82-4.81,14.06-1,1-3,2.21-3,3.66,0,1.73,1.45,3,1.45,5l3,6.25a37.79,37.79,0,0,0,4.63,6.94c.86.86,2,1.44,2.69,2.5a5.48,5.48,0,0,1,1.25,2.6c0,1.35-1.44,2.12-2.21,3.08-1,1.06-1.83,2.8-3.27,3.28s-2.7,1-4.05,1.35-1.92,1.63-2.79,2.6c-1.45-1-3.18-1.83-4.14-3.37L173,367.79c-.67-1.54-.58-3.37-1.35-4.72-1.83-2.89-2.12-6.93-3.85-9.92a56.79,56.79,0,0,0-4.72-7c-2.12-.1-4.72-.38-6.74-.38-7.7,0-4.53,5.29-6.36,8.76a8.16,8.16,0,0,1,.49,3.08c0,1.35.38,2.6.38,3.76s-.48,2.31-.58,3.46.1,2.22.1,3.28c0,1.73-.39,5.49-3.47,5.49C144.92,373.57,143.57,372.22,141.84,372.22Zm1.83-7.32c1.15-1,.77-2.51,1-3.76a23.38,23.38,0,0,1-2.31,3.18c0,.48.39.58.77.58Zm2.5-43.24c0-1.54.19-3.08.19-4.62,0-2.22-.77-2.51-1.83-3.37a47.92,47.92,0,0,0-1.05,8.95,23.31,23.31,0,0,0,.57,6,6.58,6.58,0,0,0-.57,2.7c0,1,.19,1.93.19,2.89,0,1.83.38,3.08.38,4.43,0,.58-.09,1.25-.09,1.83,0,1.15.29,2.12,1.73,2.12,0-1.16.1-2.31.1-3.57-.29-1-1.06-1.63-1.26-2.69,0-1.45,1.35-1.83,1.35-3.85,0-1.35-.29-2.6-.29-3.95,0-1.83.68-3.56.68-5.39C146.27,322.62,146.17,322.14,146.17,321.66Zm-.29,27.45c0-1.06-.38-2.41-1.25-2.41a3.52,3.52,0,0,1-.58.58c-.09,2.5-.09,5-.09,7.51a6.86,6.86,0,0,0,.86,2.79c.2-1.44.58-2.7.87-4.14C145.69,352,145.79,350.55,145.88,349.11Zm-1.83,11.55c1.06,0,.77-1.44,1-2.21-.2,0-.77-.2-1-.2ZM167.26,331c.29-1,.39-2,.77-3,.68-1,1.45-1.64,2.12-2.7a14.68,14.68,0,0,0,.58-4.14,26.06,26.06,0,0,0-.48-4.72,20.18,20.18,0,0,0-5.49-4,36.81,36.81,0,0,1-3.76-1.06c-1.73.48-3.37.19-5.1.48a3.78,3.78,0,0,1-1.74.38c-2.5,0-2.31.29-3.17,1a20,20,0,0,1,.29,2.79,32,32,0,0,0-.39,4.53c0,1.54-.48,4.33-.48,6.06a30.58,30.58,0,0,0,.48,6.65c.58,0,1.25-.1,1.83-.1,1.93,1.06,4.14,1.44,7.61,1.44C163,334.56,165.34,332.64,167.26,331Zm6-20.61a4.58,4.58,0,0,0-2.21-4.14l-4.63-.57a13.23,13.23,0,0,1-1.63-1.64,8.22,8.22,0,0,1-2.89,1.06,2.75,2.75,0,0,0,2.12,1,3.9,3.9,0,0,0,1.73-.38l3.08,1.82c1.45.87,2.7,3.09,3.85,3.09A1.3,1.3,0,0,0,173.23,310.39Zm-3.85,28.32a.56.56,0,0,0-.58-.58c-.38,0-.48.29-.48.58a.51.51,0,0,0,.58.57A.54.54,0,0,0,169.38,338.71Zm12.71,24.55c.29,0,.48-.09.77-.09,0-2.7-3.85-4.63-4.33-7-.29-1.26-1.35-2.12-2-3.09-1-1.25-1-2.69-1.74-4s-1.44-3.27-2.4-4.82a6.08,6.08,0,0,0-1.83.29c0,3.28,2.11,6.17,3.17,9.15.68,3,2.51,5.39,3.18,8.28a5.77,5.77,0,0,0,.77,1.74,4.51,4.51,0,0,1,2.31-.48C180.65,363.17,181.42,363.26,182.09,363.26Zm-8.57-29.75a2.67,2.67,0,0,0,.77,1.54,30.87,30.87,0,0,0,4.72-7.32c0-.87-.19-1.64-.19-2.51a10.39,10.39,0,0,0,.48-1.83,22.86,22.86,0,0,1-.1-3.46,20.32,20.32,0,0,0-.29-3.47c-.67,1.45-.57,3.18-.67,4.91-.58,2.31-1.16,4.62-1.64,7-1,1.45-2.5,2.6-2.89,4.43A.83.83,0,0,0,173.52,333.51Z" transform="translate(-7.6 -1.87)"/><path class="cls-3" d="M200.48,326.38a15.59,15.59,0,0,1,7.8-2.22c.87,0,3.47-.28,4.72-.38,4.14.48,8.57.58,11.36,3.47a18,18,0,0,1,3.57,4.52c1.15,2.31,1.63,6.84,1.63,10.11a85.16,85.16,0,0,0-.38,9,26.08,26.08,0,0,0,.58,6.64,69.15,69.15,0,0,0,3,9.44,5.84,5.84,0,0,1,.58,2.22c0,1.73-3.95,2.11-3.95,2.88-.58.87-3.08.87-4.33.87-2.41,0-4.43-2.41-5.2-4.81a1.52,1.52,0,0,0-1.54,1,11.64,11.64,0,0,1-2.89,1.35c-.68,0-2.31,1.63-5.2,1.63-3.47,0-6.07-1.44-6.65-1.44a10.07,10.07,0,0,1-7.41-9.44c0-2.21.29-6.26.29-7.51,0-1.73.19-5.49,1-7.22,1.83-4,7.22-4.43,12.62-4.43,2.31,0,4.62,0,6.54-.1,0-2.5-1.54-7.22-2.79-7.89s-3.18-.58-3.85-.87c-1.64,0-3.95.39-4.82,1.35-1.92.19-3.37,1.54-4.81,1.54-1.06,0-3.08-3.18-3.08-4.24a7.11,7.11,0,0,1,.19-1.44,2.32,2.32,0,0,1-.1-.87C197.3,328.4,199.52,326.86,200.48,326.38Zm0,32.55c0,2.6.39,5,3.08,6.26a8,8,0,0,1-1.92-5.4c0-1.25-.2-2.69-.77-2.69Zm.68-4.24c.19,0,.38-1.35.38-1.83s-.19-.67-.38-.67-.29.19-.29.67S201,354.69,201.16,354.69ZM217,359.31a23.77,23.77,0,0,1-.29-3.75V349.3c-.48,0-.87.48-2.12.48a5.46,5.46,0,0,1-1.64-.19c-3.66,0-5.1.09-6,1.83-.86.38-1.15,5.58-1.15,7.22,0,2.7,2,4.62,3.85,4.62a12.24,12.24,0,0,0,6.16-2C216.76,360.47,217,360,217,359.31Zm6.26-9.43c0-1.54.19-5,.19-9.83,0-1.15-1.25-7.89-4.14-7.89,2,2.12,2.6,5.68,2.6,9.43,0,3.09.29,6.17.29,9.25a32.69,32.69,0,0,0,1,7.22C223.21,355.94,223.21,351.71,223.21,349.88Z" transform="translate(-7.6 -1.87)"/><path class="cls-3" d="M275.79,368.17c0,2.6-3,3.47-4.92,3.85-1.34.29-3.17,1.45-3.75,1.45-2.41,0-3.18-2.12-3.37-4.14a13.41,13.41,0,0,0-3.95.67,20.85,20.85,0,0,1-8.09,2c-5.78,0-14.06-3.75-14.06-12.61,0-3,.19-5.39.19-6.64,0-1.74,0-5.21.77-6.94,1.83-3.95,7.52-4.43,12.91-4.43,2.31,0,4.62,0,6.55-.09-.39-3.37-2.32-8.19-6.65-8.19-1.64,0-3.66.39-5.1.48-1.93.19-4,1.64-5.49,1.64-1.06,0-3.08-2.41-3.08-3.47,0-4.81,7-7.61,11.07-7.61.87,0,3.47-.28,4.72-.38,2.6.19,8.47,1.16,11.27,4,1.25,1.26,2.89,2.32,3.66,3.95a17.82,17.82,0,0,1,2.31,8.19c0,4.81-.39,8.66-.39,10.88a15.64,15.64,0,0,0,.87,5c.77,2.4,1.83,4.91,3.95,10.11A5.75,5.75,0,0,1,275.79,368.17ZM257.68,351.9v-2.31a23.57,23.57,0,0,0-3.75-.2c-3.66,0-5.3.1-6.17,1.83-.58,1.26-.77,3.47-1.25,7,1.64,3.66,4.24,4.24,6.26,4.24a6.31,6.31,0,0,0,3.85-1.25C257.68,359.31,257.68,355.08,257.68,351.9Zm6.74-14.54c0,1.15-.09,2.21-.09,4.23,0,3.09.28,6.17.28,9.25,0,2.21-.67,4.43-.67,7,0,1.73-.77,3.47-1.06,5.3,2.31-1.64,2.89-4.05,2.89-6.65s-.1-4.62-.1-6.64c0-1.54.2-3.28.2-4.82,0-4.43-.29-9.82-4.14-12.9C261.73,334.85,263.55,335.05,264.42,337.36Z" transform="translate(-7.6 -1.87)"/><path class="cls-3" d="M282.33,364.13c-2.5-4.05-3.08-7.71-3.08-12.33,0-1.06.1-2.31.1-3.37,0-1.35-.2-2.69-.2-4,0-2.89.87-5.2.87-8.19,0-2,1-3.75,1.83-5.58a11.93,11.93,0,0,1,10.59-6.36c1.83,0,3.95,0,5.59.87,1.06.38,2,1.06,3.08,1.44a25.75,25.75,0,0,0,2.79-.38c-.19-3.08-.19-7.13-.67-10.11A8.05,8.05,0,0,1,303,314c0-3.08.48-6,.48-9,0-1.15-.2-2.41-.2-3.56,0-2.41,5-3.85,8.38-3.85a3.74,3.74,0,0,1,3.76,2.11,8.13,8.13,0,0,1,.38,3c-.19,2.79-.48,5.78-.48,8.67,0,1.73-.77,3.46-.77,5.39,0,3.56.77,6.07.77,9,0,2.69-.38,5.39-.38,8,0,1.44.09,2.79.09,4.14,0,1.73-.67,3.27-.67,4.91,0,2.41.87,5,.87,7.41a11.44,11.44,0,0,1-.2,1.93c-.77,3.76-.77,7.13-1.63,11-1.06,4.91-4.24,6-7.9,7.22-2.6,1.35-6.07,1.54-8.86,1.54C290.71,371.83,285.61,369.42,282.33,364.13Zm5.3-30.62c1.92-1.74,4-3.09,5.87-4.92-.38,0-.67-.09-1.06-.09a7.71,7.71,0,0,0-8.09,8c0,2.41-.57,4.72-.57,7.13a8.85,8.85,0,0,0,.09,1.54,65.87,65.87,0,0,0,2.22-8C286.47,335.91,286.57,334.37,287.63,333.51Zm16.27,4.14c0-2.89-1.35-3.57-3.27-3.57a34.79,34.79,0,0,0-5.39.29c-4.82.87-6,8.77-6.46,15.31,0,2.8,2.41,13.39,6.55,14.64a17.05,17.05,0,0,0,5-1.64c3-1.54,3.08-7.12,3.08-11.26v-.77c0-3,.29-5.88.29-8.77C303.71,340.54,303.9,339.09,303.9,337.65Zm7.32-14.45a69.25,69.25,0,0,1-.29-7.89v-3.86c-.19-1.63-.86-3.17-.86-4.72a3.34,3.34,0,0,1-1.16-.28c-.29,2.6-1.06,5.2-1.06,7.89a26.26,26.26,0,0,0,.29,3.85c.48,3.86,0,8.77.77,12.62v2.79c0,1,.1,2,.1,3,0,1.54-.1,3.17-.1,4.81v1.25c0,2.12-.39,4.05-.39,6.26v3.66c0,1.16-.09,2.22-.09,3.28a24.63,24.63,0,0,0,.19,2.79,10.3,10.3,0,0,0,.48-3.47,44.26,44.26,0,0,1,.77-4.91c.29-2.7.2-5.49.39-8.09.29-3.85.58-7.61.58-11.36,0-2.31.38-4.62.38-6.93Z" transform="translate(-7.6 -1.87)"/><path class="cls-3" d="M337.51,337a7.18,7.18,0,0,0-.39,2.51c0,.57.87,1.34,1.25,1.83,1.64.77,3.37.77,5.11,1.25,2.21.86,7.51,1.92,9.34,3.66,2.7,2.12,4.24,4,4.24,6,0,.77.77,3.66.77,5.2a8.58,8.58,0,0,1-1.26,4.72c-1.05,1.73-1.92,3.66-3.08,5.29-.86,1.35-3.56,2.8-5.1,3.08-1.93.39-4.91,1.93-9.44,1.93a33.76,33.76,0,0,1-5-.67c-2-.49-4.14-.58-6-1.64-1.05-.77-3.17-2.6-3.17-3.85a14.25,14.25,0,0,1,1-4.53,3.62,3.62,0,0,1,2.41-2.6c1.25,0,3.27,1,4.43,1.16a16.82,16.82,0,0,0,3.08.29c.77,0,2.4.38,3.37.38a14,14,0,0,0,4.14-.38c1.44-.49,1.64-1.45,2.12-1.83,1-.77,1.06-.87,1.25-2a3.78,3.78,0,0,0-.39-1.92,7.91,7.91,0,0,0-6.64-3.08,32.22,32.22,0,0,1-6.74-1.35,6.79,6.79,0,0,1-2.89-1.83c-1.06-1.06-2-1.45-3-2.6a20.2,20.2,0,0,1-1.45-5.88c.39-3,.48-5.77,1.16-7.32a36.74,36.74,0,0,1,2-3.94c.86-1.45,2.41-2,3.85-2.7,2.41-1.06,5.58-2.41,8.76-2.41a32.11,32.11,0,0,1,6.07.77c3.37,1.16,5.49,1.35,7,3,.67.67,1.73.77,2.21,1.64,0,.57-.19,2.5-.19,3.56,0,.58-.58,1-.58,1.44a2.44,2.44,0,0,1-2.69,2.31,8,8,0,0,1-3.57-.77c-1.34,0-3.65-1.73-4.91-1.73-1.54,0-4.33,1-4.91,1S337.8,336.49,337.51,337Zm-4.05,29.28c.77,0,1.35,0,1.35-.48s-1.54-1-2.31-1c-.39,0-.39.39-.39.87Zm7.23-35.44a4.56,4.56,0,0,0-2.61-1.16c-.19,0-.38.1-.57.1-2.12.29-4.63,1.83-5.11,3.85a7.73,7.73,0,0,1,3.57-2.21A19.49,19.49,0,0,1,340.69,330.81Zm9.91,30.81c-1.06.77-4.14,3.47-6.54,3.47-1.55,0-4.43.19-6.36.19a13.47,13.47,0,0,0,2,1c.58,0,2,.29,2.7.29a30.06,30.06,0,0,0,5.29-1.35C348.39,365,350.6,362.49,350.6,361.62Z" transform="translate(-7.6 -1.87)"/><path class="cls-3" d="M380.94,372a34.27,34.27,0,0,1-4.24-.77,12.7,12.7,0,0,1-7.13-3.65c-1.35-1.35-2.89-2.22-3.66-4a18,18,0,0,1-1.92-7.23c0-2.5,0-4.71.09-7.12.1-1.74.48-3.47.48-5.2a29.7,29.7,0,0,0-1-5.88c.29-.67.68-1.15.87-1.73.67-1.35.86-2.89,1.44-4.24,1.06-2.31,4.34-6.06,5.88-6.16,1.35-.1,2.69.1,4-.48a20.63,20.63,0,0,1,7.71-1.83,21.44,21.44,0,0,1,8.28,2.5,11,11,0,0,1,5.77,9.73c0,1.54-.19,3.08-.28,4.62-.2,3-.48,5.3-3.47,7.42a15.83,15.83,0,0,1-6.74,1.63c-3.47,0-7-.19-10.4-.19A28.59,28.59,0,0,0,378,355c1.06,3.18,6.64,5.3,10.3,5.49,1.83,0,3.47-1.45,5.3-1.45,2,0,3.08,3.57,3.08,5.59,0,4.91-7.61,7.22-11.07,7.22C384.31,371.83,382.09,372,380.94,372Zm-8.29-10.11c-.67-1.34-2.5-2.5-2.5-4.23,0-2,.29-3.76.29-5.59v-3.27c0-1.26-.1-2.51-.1-3.76,0-2.5.77-4.91,1-7.32.09-1.83,1-3.56,1.25-5.29-2.6,1.44-3.18,4.52-3.18,7.12v4.05c0,3.46-.48,5.87-.48,7.32,0,4.23.29,9.53,3.85,12.51A7.09,7.09,0,0,0,372.65,361.91Zm5.49,3.95a18.17,18.17,0,0,0,3.28.39,11.91,11.91,0,0,0,4-.68,7.63,7.63,0,0,0-3.46-.77,8.5,8.5,0,0,0-1.64.1A5.93,5.93,0,0,0,378.14,365.86Zm11.65-29c-2-2-3.27-4.53-6.35-4.53a7.4,7.4,0,0,0-3.66,1.16c-1.54,2.4-1.25,5.77-1.44,8.66a21.27,21.27,0,0,0,5,.48C388,342.65,388.25,341.59,389.79,336.88Z" transform="translate(-7.6 -1.87)"/><path class="cls-3" d="M413.29,370.87c-1.54,0-2.6,1.35-4.14,1.44-2.89-.19-3.08-3.37-3.08-5.58,0-3.08.58-6.26.58-9.25,0-1.44-.49-2.89-.49-4.33s.2-3.08.2-7.51c0-3.08.48-6.26.48-9.44,0-1.83-.48-4-.48-5.87,0-1.35.29-2.7.29-4.05,0-4.91-.87-9.72-.87-14.54,0-2.79.38-5.58.48-8.47.1-1.16,0-2.22.19-3.37.39-1.25,4.63-2.7,6.46-2.7a4.07,4.07,0,0,1,2.21,1.16c1.16,1.15,2.41,2.12,2.41,4,0,1.64-.39,3.18-.39,4.82,0,3.17.29,6.35.29,9.53a15,15,0,0,0-.1,2.12c0,2.12.2,4.14.2,6.26s-.58,4-.58,6.06c0,2.22.19,4.34.19,6.46,0,5.58-.67,9.34-.86,13a24.54,24.54,0,0,0,.67,4.23c.19,2.22.1,4.63.38,6.84s1.55,4.43,1.55,6.65a2.58,2.58,0,0,1-2.51,2.6C415.31,371,414.35,370.87,413.29,370.87ZM412,346c-.29,1.06-.29,2.12-.29,6.17a104.26,104.26,0,0,1-.77,12.13,5.4,5.4,0,0,0,.58,2.6c1.15-2.6,1.25-6.45,1.63-9.73C413.19,352.67,413,348.24,412,346Z" transform="translate(-7.6 -1.87)"/><path class="cls-3" d="M440.54,337a7.17,7.17,0,0,0-.38,2.51c0,.57.86,1.34,1.25,1.83,1.63.77,3.37.77,5.1,1.25,2.22.86,7.51,1.92,9.34,3.66,2.7,2.12,4.24,4,4.24,6,0,.77.77,3.66.77,5.2a8.58,8.58,0,0,1-1.25,4.72c-1.06,1.73-1.93,3.66-3.08,5.29a9.64,9.64,0,0,1-5.11,3.08c-1.92.39-4.91,1.93-9.43,1.93a33.76,33.76,0,0,1-5-.67c-2-.49-4.14-.58-6-1.64-1.06-.77-3.18-2.6-3.18-3.85a14.53,14.53,0,0,1,1-4.53,3.64,3.64,0,0,1,2.41-2.6c1.25,0,3.27,1,4.43,1.16a16.9,16.9,0,0,0,3.08.29c.77,0,2.41.38,3.37.38a13.94,13.94,0,0,0,4.14-.38c1.45-.49,1.64-1.45,2.12-1.83,1-.77,1.06-.87,1.25-2a3.78,3.78,0,0,0-.38-1.92,8,8,0,0,0-6.65-3.08,32.34,32.34,0,0,1-6.74-1.35,6.79,6.79,0,0,1-2.89-1.83c-1.06-1.06-2-1.45-3-2.6a20.2,20.2,0,0,1-1.45-5.88c.39-3,.48-5.77,1.16-7.32a36.74,36.74,0,0,1,2-3.94c.87-1.45,2.41-2,3.85-2.7,2.41-1.06,5.59-2.41,8.77-2.41a32,32,0,0,1,6.06.77c3.37,1.16,5.49,1.35,7,3,.68.67,1.74.77,2.22,1.64,0,.57-.19,2.5-.19,3.56,0,.58-.58,1-.58,1.44a2.44,2.44,0,0,1-2.7,2.31,8,8,0,0,1-3.56-.77c-1.35,0-3.66-1.73-4.91-1.73-1.54,0-4.34,1-4.91,1S440.83,336.49,440.54,337Zm-4,29.28c.77,0,1.34,0,1.34-.48s-1.54-1-2.31-1c-.38,0-.38.39-.38.87Zm7.22-35.44a4.56,4.56,0,0,0-2.6-1.16c-.19,0-.39.1-.58.1-2.12.29-4.62,1.83-5.1,3.85a7.7,7.7,0,0,1,3.56-2.21A19.49,19.49,0,0,1,443.72,330.81Zm9.92,30.81c-1.06.77-4.14,3.47-6.55,3.47-1.54,0-4.43.19-6.36.19a14.08,14.08,0,0,0,2,1c.57,0,2,.29,2.69.29a30.33,30.33,0,0,0,5.3-1.35C451.42,365,453.64,362.49,453.64,361.62Z" transform="translate(-7.6 -1.87)"/><path class="cls-3" d="M128.93,383.29v-4.81H463.75v4.81Z" transform="translate(-7.6 -1.87)"/></g><g id="AntenneL"><line class="cls-4" x1="218.36" y1="104.61" x2="117.29" y2="3.54"/><line class="cls-4" x1="312.78" y1="104.61" x2="413.85" y2="3.54"/></g></svg>