<?xml version="1.0" encoding="utf-8"?>
<!-- Generator: Adobe Illustrator 24.1.2, SVG Export Plug-In . SVG Version: 6.00 Build 0)  -->
<svg version="1.1" xmlns="http://www.w3.org/2000/svg" xmlns:xlink="http://www.w3.org/1999/xlink" x="0px" y="0px"
	 viewBox="0 0 595.3 569.5" style="enable-background:new 0 0 595.3 569.5;" xml:space="preserve">
<style type="text/css">
	.st0{fill:#DD7273;}
	.st1{fill:#3B3561;}
	.st2{fill:#FFFFFF;}
	.st3{fill:none;stroke:#3B3561;stroke-width:10;stroke-miterlimit:10;}
</style>
<g id="TV">
	<path class="st0" d="M574.6,557.9h-555c-6.6,0-12-5.4-12-12V153.2c0-6.6,5.4-12,12-12h555c6.6,0,12,5.4,12,12v392.8
		C586.6,552.5,581.2,557.9,574.6,557.9z"/>
	<path class="st1" d="M487.9,515.7H106.2c-22,0-40-18-40-40V223.4c0-22,18-40,40-40h381.7c22,0,40,18,40,40v252.3
		C527.9,497.7,509.9,515.7,487.9,515.7z"/>
	<path class="st1" d="M185.1,142h182.8C367.9,142,275.2,19.3,185.1,142z"/>
	<g>
		<path class="st2" d="M226.9,307c-0.8,2.4-2,4.1-2.7,6.4c-0.7,2.3-1.1,4.8-1.9,6.9c-0.9,2.2-1.5,4.5-1.8,6.7
			c-0.8,2.8-2,5.4-2.2,8.3c0,0.9-0.5,1.5-0.9,2.3c-0.7,1.2-0.8,2.7-0.8,4c0,0.5,0.2,1,0.2,1.5c0,1.5-1,3.1-1,4.8c0,1.2-1,2.2-1,3.5
			c0,0.4,0.1,0.7,0.1,1.1c0,0.6-0.1,1.2-0.5,1.6c-1.7,2.8-2.4,6-2.7,9.2c-0.6,1.2-0.2,2.6-0.7,3.9c-0.4,2.5-1,4.5-2.6,5.7
			c-1.3,0-2.4-0.5-3.6-0.5c-2.3,0-2.4,1.9-5.3,1.9c-4.2,0-3.4-4.8-4.3-8.1c0.1-1.1,0.4-1.9,0.4-3.1v-0.4c-0.9-2.8-2.2-5.6-2.8-8.5
			c-1.8-2.9-1.9-6.5-3.6-9.4c-1.9-4.4-2.3-14.6-5.3-14.6c-0.3,1.2,0,2.4-0.6,3.7c-1.1,3.7-1.6,7.4-2.9,11c-0.4,1-0.3,2.1-0.9,3.1
			c-0.3,0.5-0.3,0.9-0.3,2.4c0,1.4-0.9,2.7-0.9,4c0,1.5-1.3,2.6-1.3,4.4c0,1.6-1,3.2-1,4.8c0,1,0.4,1.9,0.6,2.9
			c-0.9,0.8-1,1.9-1.1,3.4c-0.9,0.5-1.9,1.3-2.6,1.3c-0.8,0-1.4-0.5-2.2-0.7c-1,1.3-2.2,2.4-3.7,3.1c-2.2,0-3.4-1.3-4.4-3h-0.6
			c-4.2,0-4.6-2.5-4.8-5.1c-0.7-0.9-1.6-1.3-1.9-2.4c-0.9-2-1.1-4.1-1.7-6.1c-0.8-3.4-1.7-6.5-2-9.8c-0.8-2.7-1.9-5.4-2.3-8.2
			c-0.2-1.3-0.9-2.5-1.2-3.9c0-2-0.9-3.8-1.5-5.7c-1.5-4.1-2.9-8.2-4.1-12.4c-0.5-1.3-1.2-2.5-1.6-3.9c0-2.3-0.6-5.2-1-7.5
			c0-1.3,0.1-2.6,1-3.6l2.7-1c1.9,0,3,0.6,4.7,2.6c1.8,0.1,3.8,0,5.7,0.2c2.8,1.4,4.9,4.2,4.9,7.3c0,0.3-0.1,0.7-0.1,1
			c0.1,1.8,1,3.6,1,5.4c0,0.4-0.1,0.7-0.1,1c0,1,0.1,2,0.5,3c1.9,5.3,2.9,11.2,3.7,16.7c0.1,2.4,1.5,4.5,1.5,6.8v0.7
			c0.4,1.3,0.4,2.8,0.4,4.1c0.4-0.9,0.4-1.7,0.6-2.6c0.3-1,1.1-1.8,1.1-2.9c0.3-1.8,0.7-3.7,1.5-5.3c0.4-1.9,1.7-3.7,1.7-5.7
			c0-1.3,0.7-2.8,1.1-4c0.2-3.6,2.1-6.7,2.3-10.3c0.1-1.2,0.7-2.3,1-3.5c0.5-1.3,0.3-2.7,0.9-4c0.7-1.7,0.5-3.9,2.1-5.3
			c1.5-0.7,3.1-1.5,4.6-2.4c1.5,0.3,3.4,0.9,5.1,0.9h1.5c0.8,3,2.6,5.9,3.6,9.1c0.2,2.3,0.3,4.8,1.2,7c0.7,1.8,0.9,3.9,1.9,5.7
			c0.2,1.8,0.2,3.8,1,5.3c0.6,1.3,0.8,2.5,1,3.9c0.8,2.8,1.6,5.5,1.6,8.3c0,1.3,0.5,1.5,1.1,2.3c0.6-2.1,1.3-4.2,1.5-6.5
			c0.1-1.2,0.9-2,1.1-3.2c0.2-1.3,0.1-2.6,0.3-3.9c0.7-4.5,2.7-9.1,3.2-13.4c0.4-3.1,1.7-5.8,2.5-8.7c0.5-1.6,1.3-3,1.3-5
			c0-2.4,1.6-4.6,4.5-4.6c1.8,0,2.8,3,4.2,3c1,0,1.8-0.6,2.8-0.6h0.4c0.8,0,1.5-0.1,2.7-0.2c0.6,0.1,0.8,0.8,1,1.2
			C226.4,305.3,226.8,306.1,226.9,307z M152.1,312.6l0.1-0.3l-0.1-0.3h-0.4l-0.1,0.3l0.1,0.3H152.1z M155,323
			c-0.3-1.4-0.9-2.8-1.1-4.2c-0.4-1.9-1-3.9-1.8-5.7c0,2.1,0.8,4.1,1.3,6.3C154.1,320.5,154.4,321.8,155,323z M181.3,318.3
			c0-1-0.3-1.8-0.9-2.6c-0.4,1.1-0.9,2.1-1,3.3c-0.1,1.9-1,3.7-1.3,5.5c0.1,0.6,0.3,1.2,0.5,1.6c-0.7,2.3-2.1,4.2-2.3,6.5
			c-1.5,3.6-2.4,7.3-3.1,11.1c-0.3,1.8-1.2,3.7-1.3,5.8c-0.1,1.1-0.9,1.9-0.9,2.9c0,1.2-0.5,2.3-0.5,3.5c0,2-1.1,3.7-1.1,5.5
			c0,0.4,0.1,0.8,0.3,1.2h1.3c0.2-1.3,0.4-5.5,1.1-6.5c0.8-1.3,0.6-3.1,1.2-4.5c0.8-2,0.7-4.3,1.6-6.3c0.9-1.8,1.5-4.1,1.5-6.4
			c0.4-0.9,0.9-1.7,0.9-3c1.7-4.7,2.6-7,3.1-12.6c0.3-1.3,0.8-2.5,0.8-3.9C181.2,319,181.3,318.7,181.3,318.3z M192.1,332.4
			c0-0.4-0.2-0.8-0.5-0.8c-0.3,0-0.3,0.4-0.3,0.6c0,0.4,0.2,0.8,0.6,0.8C192,332.9,192.1,332.6,192.1,332.4z M194,342.1
			c0-1.3-0.6-2.7-0.6-3.9c0-1.3-0.4-2.1-1-3.1c0,1.1,0,2.1,0.4,3.2C193.3,339.5,193.5,340.9,194,342.1z M195.3,346.2
			c-0.2-1.1-0.5-2.1-1.1-3.3C194.2,344.2,194.3,345.4,195.3,346.2z M205.7,362.4c0-0.4-0.2-0.9-0.6-0.9s-0.6,0.4-0.6,0.7
			c0,0.4,0.2,0.8,0.6,0.9C205.5,363,205.7,362.6,205.7,362.4z M206,360.8c0.3-0.7,0.6-1.4,0.6-2.2c0-0.4-0.1-0.7-0.1-1.1
			c0-2.9,1.4-5.8,1.4-8.9c0.7-4.3,2.3-8.7,2.3-13.2c-0.3,0-0.6-0.1-0.7-0.1c-0.6,2-0.9,4.2-1.6,6.3c0,3.3-1.2,5.6-1.3,8.5
			c-0.5,2.9-1.3,5.7-1.3,8.7C205.3,359.5,205.5,360.1,206,360.8z M211.7,329c-0.6,1.5-1.3,2.9-2.2,4.3c0.4,0,0.9,0.1,1.3,0.1
			C211.3,332.1,211.5,330.6,211.7,329z M214.5,317.8c0-0.3-0.1-0.5-0.3-0.7c-0.2,0.4-0.6,1-0.6,1.4c0,0.2,0,0.4,0.2,0.5
			C214.3,319,214.5,318.3,214.5,317.8z"/>
		<path class="st2" d="M247.6,373c-2.6,0-3.6-0.6-5-0.8c-2.8-0.4-4.7-2.4-6.7-3.6c-3.4-1.9-4.3-5.4-4.5-11.3
			c-0.3-2.5-0.3-4.7-0.3-7.1c0-1.7,0.5-3.5,0.5-5.2c0-5.2,0.8-9.6,1.3-11.4c0.8-2.9,3.3-5.6,3.9-5.8c1.3-0.4,2-1.4,3.4-2
			c2.4-1,7.9-1.2,10.7-1.2c2,0,6.2,0.9,8.6,1.9c3.9,1.7,5.5,5.2,5.5,9.3c0,1.5-0.4,4-0.5,5.6c-0.2,3-0.4,5.9-2.9,8
			c-1.2,0-3,1.4-7.1,1.4c-3.5,0-7.1-0.2-10.5-0.2c0,1.8,0,4.2,0.7,6.1c1.1,3.2,5.1,4.5,9.3,4.5c2.8-0.6,3.6-2.1,6.1-2.1
			c0.9,0,1.4,1.1,2.3,1.1c1.3,0,1.4,1.8,1.4,2.3c0,0.6,0.5,1.6,0.5,2.3c0,3.9-7.5,7.8-11,7.8C251.8,372.9,249.7,373,247.6,373z
			 M237.7,354.9c0-1.4-0.3-5.4-0.3-6.9c0-2.5,1.3-6.8,1.4-9.2c0.1-1.4,0.6-3.7,1.1-4.3c0.5-0.6,1-1.2,1.3-1.7c0.1-0.4,0.1-1,0.1-1.5
			c-1.2,1-1.9,3.1-2.5,4.3c-1.3,1.2-2.1,6.6-2.1,8.5c0,3.5-0.2,6.5-0.2,8c0,2.2,0.1,5.1,0.7,7.4L237.7,354.9z M255.6,341.3
			c0-0.7,0.5-2.3,0.5-3.9c0-0.6-0.7-2.6-1.6-3c-0.5-1.2-2.3-1.5-3.9-1.5c-3.1,0-3.9,1.4-5.1,2.1c-1.5,2.4-1.3,5.4-1.4,7.7
			c1.5,0.4,4.8,0.5,6.5,0.5C254.1,343.2,255.6,342.5,255.6,341.3z M245.8,366.3c1.1,0.2,2.5,1.2,3.7,1.2c2.1,0,5.1-1.3,5.9-2
			c-2.3,0.7-4.4,1-5.6,1c-1.9,0-3.9-0.8-4.6-1L245.8,366.3z"/>
		<path class="st2" d="M287.8,373c-1.3,0-2.8-0.6-4.2-0.8c-2.8-0.4-5.5-1.9-7.1-3.7c-1.3-1.3-2.9-2.2-3.7-3.9
			c-1.1-2.3-1.9-4.8-1.9-7.2c0-2.5,0-4.7,0.1-7.1c0.1-1.7,0.5-3.5,0.5-5.2c0-2.1-0.6-3.9-1-5.9c0.3-0.7,0.7-1.2,0.9-1.7
			c0.7-1.3,0.9-2.9,1.4-4.2c1.1-2.3,4.3-6.1,5.9-6.2c1.3-0.1,2.7,0.1,4-0.5c2.4-1,4.9-1.8,7.7-1.8c2,0,5.9,1.2,8.3,2.5
			c3.8,2,5.8,5.9,5.8,9.7c0,1.5-0.2,3.1-0.3,4.6c-0.2,3-0.5,5.3-3.5,7.4c-2,1.2-4.3,1.4-6.7,1.6c-3.5,0-7-0.2-10.4-0.2
			c0.3,1.8,0.6,3.7,1.3,5.5c1.1,3.2,6.6,5.3,10.3,5.5c1.8,0,3.5-1.4,5.3-1.4c2,0,3.1,3.6,3.1,5.6c0,4.9-7.6,7.2-11.1,7.2
			C291.2,372.9,289,373,287.8,373z M279.5,362.9c-0.7-1.3-2.5-2.5-2.5-4.2c0-2,0.3-3.8,0.3-5.6v-3.3c0-1.3-0.1-2.5-0.1-3.8
			c0-2.5,0.8-4.9,1-7.3c0.1-1.8,1-3.6,1.3-5.3c-2.6,1.4-3.2,4.5-3.2,7.1v4c0,3.5-0.5,5.9-0.5,7.3c0,4.2,0.3,9.5,3.9,12.5
			C279.6,363.9,279.6,363.3,279.5,362.9z M285,366.9c1.1,0.2,2.1,0.4,3.3,0.4c1.3,0,2.7-0.2,4-0.7c-1.2-0.6-2.3-0.8-3.5-0.8
			c-0.6,0-1.2,0-1.6,0.1C286.4,366,285.7,366.5,285,366.9z M296.7,337.9c-2-2-3.3-4.5-6.4-4.5c-1.3,0-2.5,0.5-3.7,1.2
			c-1.5,2.4-1.3,5.8-1.4,8.7c1.5,0.4,3.4,0.5,5,0.5C294.9,343.7,295.1,342.6,296.7,337.9z"/>
		<path class="st2" d="M332.3,372.9c-4.5-1.3-10.4-0.1-11.7-7.9c-0.4-2.4-1.6-4.6-1.6-7.1c0-1.9-0.3-4.3-0.3-6.5
			c0-4.1,0.4-9.2,0.6-13.4c-3.7-0.6-7,0.3-9.3-2.2c-0.8-1.6-0.8-3.5-1.3-5.2c-0.3-0.6-0.4-1.2-0.4-1.8c0-2,1.5-2.5,3.1-2.5h1.7
			c2.4,0,4.6-0.5,7-0.5c0.2-1.5,0.4-5.7,0.4-8.1c0-1.1-0.1-1.7-0.1-2.7c0-1.1,0.1-2.1,0.1-3.1c0-1.2-0.2-2.3-0.2-3.5
			c0-1.3,0.4-2.4,0.8-3.8c0.3-1.2,0.4-2.6,0.9-3.8c1.1-1.5,5.1-2.4,7.9-2.4c2,0,4.7,1.6,4.7,3.9c0,2.5-1.7,4.5-1.7,7.4v3.6
			c-0.2,1.4-0.4,7.1-0.4,8.7c0,1.6,0.2,2.6,0.4,4.1c1.6-0.1,3.4-0.1,4.9-0.1c1.8,0,3.4-1.3,5.2-1.3c1.4,0.3,2.7,1,3.9,1.6
			c1.3,0.8,2.6,2.2,2.6,3.8c-0.4,4-0.7,7.6-4.3,7.6h-9.5c-1.5,0-3.3,0.1-4,1.3c-0.5,1.8-0.6,6.4-0.6,7.3c0,1.9,0.8,3.9,0.8,5.8
			c0,1.3-0.3,2.5-0.3,3.8c0,2.7,0.4,4.6,1.6,5.4c2.4,1,7.2,0.6,11.3,1.4c1.3,1,1.9,2.5,1.9,4c0,6.5-6.5,4-10.6,5.3
			c-0.9,0.3-1.7,0.8-2.8,0.8C332.8,373,332.5,373,332.3,372.9z M330.3,366.9c-1.2-1.2-2.8-2.1-3.5-3.8c-0.9-2.4-1.1-6.4-1.3-8.1
			c0-1.4,0.9-3.2,0.9-4.8c0-1.4-0.4-2.9-0.4-4.3c0-2.4,0.3-5.6,0.3-8.1l-1.3,0.1c-0.6,3.9-1,8.5-1,12.6c0,2.5,0.1,5,0.6,7.4
			c0.5,2.7,0.9,7.1,2.7,8C328.3,366.4,329.2,366.6,330.3,366.9z M325.4,318.3v5.5c0,1.5,0,2.1-0.1,3c2.2-1.3,1.6-2.4,1.8-3.9
			c0-5.7,1-11.6,1-15.7c0-0.7-0.2-1.3-0.5-1.9c-1.2,3-1.8,6.2-2.1,9.4C325.4,315.5,325.4,316.8,325.4,318.3z M340.1,333.5
			c0.8,0,1.5-0.3,2.1-0.6c-2-0.5-4-0.5-6.1-0.5c-1.4,0-3,0-4.3,0.2c1.2,0.8,3,0.9,4.9,0.9H340.1z"/>
		<path class="st2" d="M338.6,394.3c-0.2-1.2-0.7-2.2-0.7-3.2c0-5.2,1.8-7.3,3.7-7.3c2.2,0,4.2,1.1,6.5,1.1c2.4,0,5.6-2,6.5-4.6
			c1.4-1.4,1.7-6.3,1.7-9.3c0-7,0-17.7-0.3-20.9c0-3.4,0.3-6.6,0.3-11.9c0-2.2-0.3-4.4-0.3-6.8c0-0.6-0.1-1.3-0.1-1.8
			c0-3.5,2.9-3.9,4.9-3.9c0.9,0,3.1,0.3,5,0.3c2.3,0,4.2,0.6,4.2,3.6c0,2.8-0.3,5.6-0.3,8.4c0,4.7,0.8,9.5,0.8,14.7
			c0,3.2-0.1,9-0.7,16c0.2,2,0.2,4,0.2,6.1c0,1.5-0.2,3.1-0.7,4.6c-1.3,3.9-1.3,7.5-3.8,10.6c-2.4,3.1-4.5,4.3-8.5,5.9
			c-1.3,0.1-5,0.9-8.1,0.9c-1.8,0-4,0-6.8-0.6C341.2,395.7,339.8,395.2,338.6,394.3z M357.3,314.9c-0.6-1.6-0.8-2.2-0.8-3.9
			c0-1.5,0.2-3.3,1.4-4c1.4-0.8,4.2-1.2,8.5-1.2c2.4,0,4.2,1.2,4.4,6.6l-0.5,3.3c0,3.9-3.5,3.9-6,3.9c-1,0-2.3,0.1-3.3,0.1
			c-1.2,0-1.9-0.4-2.6-0.9c-0.8-0.1-1.3-0.7-1.3-1.5C357.2,317.2,357.2,315,357.3,314.9z M362.1,336.1c0,2.6,0.2,5.1,0.2,7.5
			c-0.1,3.9-0.1,8-0.1,10.1l1.3-4.1c0.1-0.7,0.4-4.1,0.4-7.2c0-1.8-0.1-6.2-0.7-9.5C363.1,333.6,362.1,335.3,362.1,336.1z
			 M362.6,361.2c0.4,0,0.8-0.4,0.8-1.1l-0.8-3.9c-0.4,0-0.5,0.9-0.5,2S362.3,361.2,362.6,361.2z"/>
		<path class="st2" d="M396.3,373c-1.3,0-2.8-0.6-4.2-0.8c-2.8-0.4-5.5-1.9-7.1-3.7c-1.3-1.3-2.9-2.2-3.7-3.9
			c-1.1-2.3-1.9-4.8-1.9-7.2c0-2.5,0-4.7,0.1-7.1c0.1-1.7,0.5-3.5,0.5-5.2c0-2.1-0.6-3.9-1-5.9c0.3-0.7,0.7-1.2,0.9-1.7
			c0.7-1.3,0.9-2.9,1.4-4.2c1.1-2.3,4.3-6.1,5.9-6.2c1.3-0.1,2.7,0.1,4-0.5c2.4-1,4.9-1.8,7.7-1.8c2,0,5.9,1.2,8.3,2.5
			c3.8,2,5.8,5.9,5.8,9.7c0,1.5-0.2,3.1-0.3,4.6c-0.2,3-0.5,5.3-3.5,7.4c-2,1.2-4.3,1.4-6.7,1.6c-3.5,0-7-0.2-10.4-0.2
			c0.3,1.8,0.6,3.7,1.3,5.5c1.1,3.2,6.6,5.3,10.3,5.5c1.8,0,3.5-1.4,5.3-1.4c2,0,3.1,3.6,3.1,5.6c0,4.9-7.6,7.2-11.1,7.2
			C399.6,372.9,397.4,373,396.3,373z M388,362.9c-0.7-1.3-2.5-2.5-2.5-4.2c0-2,0.3-3.8,0.3-5.6v-3.3c0-1.3-0.1-2.5-0.1-3.8
			c0-2.5,0.8-4.9,1-7.3c0.1-1.8,1-3.6,1.3-5.3c-2.6,1.4-3.2,4.5-3.2,7.1v4c0,3.5-0.5,5.9-0.5,7.3c0,4.2,0.3,9.5,3.9,12.5
			C388.1,363.9,388.1,363.3,388,362.9z M393.5,366.9c1.1,0.2,2.1,0.4,3.3,0.4c1.3,0,2.7-0.2,4-0.7c-1.2-0.6-2.3-0.8-3.5-0.8
			c-0.6,0-1.2,0-1.6,0.1C394.8,366,394.1,366.5,393.5,366.9z M405.1,337.9c-2-2-3.3-4.5-6.4-4.5c-1.3,0-2.5,0.5-3.7,1.2
			c-1.5,2.4-1.3,5.8-1.4,8.7c1.5,0.4,3.4,0.5,5,0.5C403.3,343.7,403.6,342.6,405.1,337.9z"/>
		<path class="st2" d="M428.5,372.8c-3.3-0.8-8.1-1.3-8.1-5.1c0-1.3,1.2-6.3,3.4-7c1.9,0,3.7,1,5.6,1c0.8,0,2.2-0.2,2.5-0.2
			c1.3,0,2.6,0.1,3.9,0.1c4.8,0,6-2.3,6-5.1c0-3.1-4.4-4-8.6-4.6c-2.9-0.4-8.3-1.3-9.6-2.7c-1.5-1.5-4.4-4.6-4.4-6.5
			c0.7-4.3,1.1-9.1,3.2-12.8c1.3-2.3,9.4-5.1,12.6-5.1c0.9,0,1.8,0.2,2.7,0.6c3.3,0.5,7.9,1.5,10.9,3.4c2.6,1,2.8,4.5,2.8,6.8
			c0,0.6,0,1-0.3,1.3c-0.8,0.5-2.4,1.1-2.9,1.1c-1.4,0-2.4-0.8-4.2-0.8c-2.2-1.1-5-1.4-7.6-1.4c-1.8,0-4.3,0.9-4.3,2.8
			c-0.5,0-0.6,0.5-0.6,1.6c0,2.8,3.8,2.3,5.8,3c2.2,0.8,6.3,1.1,8,2.4c4.3,3.3,7.3,6.4,7.3,12.6c0,2.1-0.9,3.6-1.7,5
			c-1.1,1.7-2,3.7-3.1,5.3c-1,1.3-3.2,1.5-4.6,2.1c-3.3,1.3-6.9,1.7-10.4,2.9c-0.3,0.1-0.5,0.1-0.8,0.1
			C430.8,373.5,429.6,373,428.5,372.8z M426.7,334.6c1.3-0.5,2.3-1.2,3.6-1.6c1.4-0.4,2.8-0.7,4.1-1.2c-0.8-0.6-1.6-1.2-2.6-1.2
			C429.5,330.7,427.2,332.5,426.7,334.6z M427.5,367.3c0.7,0.3,1.3,0.8,2,1c0.6,0,1.2-0.1,1.8-0.2c2.3-0.4,4.8-0.4,7.1-0.9
			c0.9-0.2,1.9-1,2.6-1.5c-1.4,0.1-2.8,0.3-4.1,0.3C435.3,366.3,430.6,366.5,427.5,367.3z"/>
		<path class="st2" d="M139.1,384.3v-4.8h316.2v4.8H139.1z"/>
	</g>
</g>
<g id="AntenneL">
	<line class="st3" x1="226" y1="106.5" x2="124.9" y2="5.4"/>
	<line class="st3" x1="320.4" y1="106.5" x2="421.4" y2="5.4"/>
</g>
</svg>
